G75*
%MOIN*%
%OFA0B0*%
%FSLAX25Y25*%
%IPPOS*%
%LPD*%
%AMOC8*
5,1,8,0,0,1.08239X$1,22.5*
%
%ADD10C,0.00000*%
%ADD11C,0.00400*%
%ADD12C,0.00300*%
%ADD13C,0.01200*%
%ADD14C,0.01000*%
%ADD15C,0.01400*%
%ADD16C,0.00600*%
%ADD17C,0.02000*%
%ADD18C,0.00500*%
%ADD19C,0.00900*%
D10*
X0002660Y0001000D02*
X0002660Y0195961D01*
X0393861Y0195961D01*
X0393861Y0001000D01*
X0002660Y0001000D01*
X0003861Y0063500D02*
X0003863Y0063658D01*
X0003869Y0063816D01*
X0003879Y0063974D01*
X0003893Y0064132D01*
X0003911Y0064289D01*
X0003932Y0064446D01*
X0003958Y0064602D01*
X0003988Y0064758D01*
X0004021Y0064913D01*
X0004059Y0065066D01*
X0004100Y0065219D01*
X0004145Y0065371D01*
X0004194Y0065522D01*
X0004247Y0065671D01*
X0004303Y0065819D01*
X0004363Y0065965D01*
X0004427Y0066110D01*
X0004495Y0066253D01*
X0004566Y0066395D01*
X0004640Y0066535D01*
X0004718Y0066672D01*
X0004800Y0066808D01*
X0004884Y0066942D01*
X0004973Y0067073D01*
X0005064Y0067202D01*
X0005159Y0067329D01*
X0005256Y0067454D01*
X0005357Y0067576D01*
X0005461Y0067695D01*
X0005568Y0067812D01*
X0005678Y0067926D01*
X0005791Y0068037D01*
X0005906Y0068146D01*
X0006024Y0068251D01*
X0006145Y0068353D01*
X0006268Y0068453D01*
X0006394Y0068549D01*
X0006522Y0068642D01*
X0006652Y0068732D01*
X0006785Y0068818D01*
X0006920Y0068902D01*
X0007056Y0068981D01*
X0007195Y0069058D01*
X0007336Y0069130D01*
X0007478Y0069200D01*
X0007622Y0069265D01*
X0007768Y0069327D01*
X0007915Y0069385D01*
X0008064Y0069440D01*
X0008214Y0069491D01*
X0008365Y0069538D01*
X0008517Y0069581D01*
X0008670Y0069620D01*
X0008825Y0069656D01*
X0008980Y0069687D01*
X0009136Y0069715D01*
X0009292Y0069739D01*
X0009449Y0069759D01*
X0009607Y0069775D01*
X0009764Y0069787D01*
X0009923Y0069795D01*
X0010081Y0069799D01*
X0010239Y0069799D01*
X0010397Y0069795D01*
X0010556Y0069787D01*
X0010713Y0069775D01*
X0010871Y0069759D01*
X0011028Y0069739D01*
X0011184Y0069715D01*
X0011340Y0069687D01*
X0011495Y0069656D01*
X0011650Y0069620D01*
X0011803Y0069581D01*
X0011955Y0069538D01*
X0012106Y0069491D01*
X0012256Y0069440D01*
X0012405Y0069385D01*
X0012552Y0069327D01*
X0012698Y0069265D01*
X0012842Y0069200D01*
X0012984Y0069130D01*
X0013125Y0069058D01*
X0013264Y0068981D01*
X0013400Y0068902D01*
X0013535Y0068818D01*
X0013668Y0068732D01*
X0013798Y0068642D01*
X0013926Y0068549D01*
X0014052Y0068453D01*
X0014175Y0068353D01*
X0014296Y0068251D01*
X0014414Y0068146D01*
X0014529Y0068037D01*
X0014642Y0067926D01*
X0014752Y0067812D01*
X0014859Y0067695D01*
X0014963Y0067576D01*
X0015064Y0067454D01*
X0015161Y0067329D01*
X0015256Y0067202D01*
X0015347Y0067073D01*
X0015436Y0066942D01*
X0015520Y0066808D01*
X0015602Y0066672D01*
X0015680Y0066535D01*
X0015754Y0066395D01*
X0015825Y0066253D01*
X0015893Y0066110D01*
X0015957Y0065965D01*
X0016017Y0065819D01*
X0016073Y0065671D01*
X0016126Y0065522D01*
X0016175Y0065371D01*
X0016220Y0065219D01*
X0016261Y0065066D01*
X0016299Y0064913D01*
X0016332Y0064758D01*
X0016362Y0064602D01*
X0016388Y0064446D01*
X0016409Y0064289D01*
X0016427Y0064132D01*
X0016441Y0063974D01*
X0016451Y0063816D01*
X0016457Y0063658D01*
X0016459Y0063500D01*
X0016457Y0063342D01*
X0016451Y0063184D01*
X0016441Y0063026D01*
X0016427Y0062868D01*
X0016409Y0062711D01*
X0016388Y0062554D01*
X0016362Y0062398D01*
X0016332Y0062242D01*
X0016299Y0062087D01*
X0016261Y0061934D01*
X0016220Y0061781D01*
X0016175Y0061629D01*
X0016126Y0061478D01*
X0016073Y0061329D01*
X0016017Y0061181D01*
X0015957Y0061035D01*
X0015893Y0060890D01*
X0015825Y0060747D01*
X0015754Y0060605D01*
X0015680Y0060465D01*
X0015602Y0060328D01*
X0015520Y0060192D01*
X0015436Y0060058D01*
X0015347Y0059927D01*
X0015256Y0059798D01*
X0015161Y0059671D01*
X0015064Y0059546D01*
X0014963Y0059424D01*
X0014859Y0059305D01*
X0014752Y0059188D01*
X0014642Y0059074D01*
X0014529Y0058963D01*
X0014414Y0058854D01*
X0014296Y0058749D01*
X0014175Y0058647D01*
X0014052Y0058547D01*
X0013926Y0058451D01*
X0013798Y0058358D01*
X0013668Y0058268D01*
X0013535Y0058182D01*
X0013400Y0058098D01*
X0013264Y0058019D01*
X0013125Y0057942D01*
X0012984Y0057870D01*
X0012842Y0057800D01*
X0012698Y0057735D01*
X0012552Y0057673D01*
X0012405Y0057615D01*
X0012256Y0057560D01*
X0012106Y0057509D01*
X0011955Y0057462D01*
X0011803Y0057419D01*
X0011650Y0057380D01*
X0011495Y0057344D01*
X0011340Y0057313D01*
X0011184Y0057285D01*
X0011028Y0057261D01*
X0010871Y0057241D01*
X0010713Y0057225D01*
X0010556Y0057213D01*
X0010397Y0057205D01*
X0010239Y0057201D01*
X0010081Y0057201D01*
X0009923Y0057205D01*
X0009764Y0057213D01*
X0009607Y0057225D01*
X0009449Y0057241D01*
X0009292Y0057261D01*
X0009136Y0057285D01*
X0008980Y0057313D01*
X0008825Y0057344D01*
X0008670Y0057380D01*
X0008517Y0057419D01*
X0008365Y0057462D01*
X0008214Y0057509D01*
X0008064Y0057560D01*
X0007915Y0057615D01*
X0007768Y0057673D01*
X0007622Y0057735D01*
X0007478Y0057800D01*
X0007336Y0057870D01*
X0007195Y0057942D01*
X0007056Y0058019D01*
X0006920Y0058098D01*
X0006785Y0058182D01*
X0006652Y0058268D01*
X0006522Y0058358D01*
X0006394Y0058451D01*
X0006268Y0058547D01*
X0006145Y0058647D01*
X0006024Y0058749D01*
X0005906Y0058854D01*
X0005791Y0058963D01*
X0005678Y0059074D01*
X0005568Y0059188D01*
X0005461Y0059305D01*
X0005357Y0059424D01*
X0005256Y0059546D01*
X0005159Y0059671D01*
X0005064Y0059798D01*
X0004973Y0059927D01*
X0004884Y0060058D01*
X0004800Y0060192D01*
X0004718Y0060328D01*
X0004640Y0060465D01*
X0004566Y0060605D01*
X0004495Y0060747D01*
X0004427Y0060890D01*
X0004363Y0061035D01*
X0004303Y0061181D01*
X0004247Y0061329D01*
X0004194Y0061478D01*
X0004145Y0061629D01*
X0004100Y0061781D01*
X0004059Y0061934D01*
X0004021Y0062087D01*
X0003988Y0062242D01*
X0003958Y0062398D01*
X0003932Y0062554D01*
X0003911Y0062711D01*
X0003893Y0062868D01*
X0003879Y0063026D01*
X0003869Y0063184D01*
X0003863Y0063342D01*
X0003861Y0063500D01*
X0003861Y0131000D02*
X0003863Y0131158D01*
X0003869Y0131316D01*
X0003879Y0131474D01*
X0003893Y0131632D01*
X0003911Y0131789D01*
X0003932Y0131946D01*
X0003958Y0132102D01*
X0003988Y0132258D01*
X0004021Y0132413D01*
X0004059Y0132566D01*
X0004100Y0132719D01*
X0004145Y0132871D01*
X0004194Y0133022D01*
X0004247Y0133171D01*
X0004303Y0133319D01*
X0004363Y0133465D01*
X0004427Y0133610D01*
X0004495Y0133753D01*
X0004566Y0133895D01*
X0004640Y0134035D01*
X0004718Y0134172D01*
X0004800Y0134308D01*
X0004884Y0134442D01*
X0004973Y0134573D01*
X0005064Y0134702D01*
X0005159Y0134829D01*
X0005256Y0134954D01*
X0005357Y0135076D01*
X0005461Y0135195D01*
X0005568Y0135312D01*
X0005678Y0135426D01*
X0005791Y0135537D01*
X0005906Y0135646D01*
X0006024Y0135751D01*
X0006145Y0135853D01*
X0006268Y0135953D01*
X0006394Y0136049D01*
X0006522Y0136142D01*
X0006652Y0136232D01*
X0006785Y0136318D01*
X0006920Y0136402D01*
X0007056Y0136481D01*
X0007195Y0136558D01*
X0007336Y0136630D01*
X0007478Y0136700D01*
X0007622Y0136765D01*
X0007768Y0136827D01*
X0007915Y0136885D01*
X0008064Y0136940D01*
X0008214Y0136991D01*
X0008365Y0137038D01*
X0008517Y0137081D01*
X0008670Y0137120D01*
X0008825Y0137156D01*
X0008980Y0137187D01*
X0009136Y0137215D01*
X0009292Y0137239D01*
X0009449Y0137259D01*
X0009607Y0137275D01*
X0009764Y0137287D01*
X0009923Y0137295D01*
X0010081Y0137299D01*
X0010239Y0137299D01*
X0010397Y0137295D01*
X0010556Y0137287D01*
X0010713Y0137275D01*
X0010871Y0137259D01*
X0011028Y0137239D01*
X0011184Y0137215D01*
X0011340Y0137187D01*
X0011495Y0137156D01*
X0011650Y0137120D01*
X0011803Y0137081D01*
X0011955Y0137038D01*
X0012106Y0136991D01*
X0012256Y0136940D01*
X0012405Y0136885D01*
X0012552Y0136827D01*
X0012698Y0136765D01*
X0012842Y0136700D01*
X0012984Y0136630D01*
X0013125Y0136558D01*
X0013264Y0136481D01*
X0013400Y0136402D01*
X0013535Y0136318D01*
X0013668Y0136232D01*
X0013798Y0136142D01*
X0013926Y0136049D01*
X0014052Y0135953D01*
X0014175Y0135853D01*
X0014296Y0135751D01*
X0014414Y0135646D01*
X0014529Y0135537D01*
X0014642Y0135426D01*
X0014752Y0135312D01*
X0014859Y0135195D01*
X0014963Y0135076D01*
X0015064Y0134954D01*
X0015161Y0134829D01*
X0015256Y0134702D01*
X0015347Y0134573D01*
X0015436Y0134442D01*
X0015520Y0134308D01*
X0015602Y0134172D01*
X0015680Y0134035D01*
X0015754Y0133895D01*
X0015825Y0133753D01*
X0015893Y0133610D01*
X0015957Y0133465D01*
X0016017Y0133319D01*
X0016073Y0133171D01*
X0016126Y0133022D01*
X0016175Y0132871D01*
X0016220Y0132719D01*
X0016261Y0132566D01*
X0016299Y0132413D01*
X0016332Y0132258D01*
X0016362Y0132102D01*
X0016388Y0131946D01*
X0016409Y0131789D01*
X0016427Y0131632D01*
X0016441Y0131474D01*
X0016451Y0131316D01*
X0016457Y0131158D01*
X0016459Y0131000D01*
X0016457Y0130842D01*
X0016451Y0130684D01*
X0016441Y0130526D01*
X0016427Y0130368D01*
X0016409Y0130211D01*
X0016388Y0130054D01*
X0016362Y0129898D01*
X0016332Y0129742D01*
X0016299Y0129587D01*
X0016261Y0129434D01*
X0016220Y0129281D01*
X0016175Y0129129D01*
X0016126Y0128978D01*
X0016073Y0128829D01*
X0016017Y0128681D01*
X0015957Y0128535D01*
X0015893Y0128390D01*
X0015825Y0128247D01*
X0015754Y0128105D01*
X0015680Y0127965D01*
X0015602Y0127828D01*
X0015520Y0127692D01*
X0015436Y0127558D01*
X0015347Y0127427D01*
X0015256Y0127298D01*
X0015161Y0127171D01*
X0015064Y0127046D01*
X0014963Y0126924D01*
X0014859Y0126805D01*
X0014752Y0126688D01*
X0014642Y0126574D01*
X0014529Y0126463D01*
X0014414Y0126354D01*
X0014296Y0126249D01*
X0014175Y0126147D01*
X0014052Y0126047D01*
X0013926Y0125951D01*
X0013798Y0125858D01*
X0013668Y0125768D01*
X0013535Y0125682D01*
X0013400Y0125598D01*
X0013264Y0125519D01*
X0013125Y0125442D01*
X0012984Y0125370D01*
X0012842Y0125300D01*
X0012698Y0125235D01*
X0012552Y0125173D01*
X0012405Y0125115D01*
X0012256Y0125060D01*
X0012106Y0125009D01*
X0011955Y0124962D01*
X0011803Y0124919D01*
X0011650Y0124880D01*
X0011495Y0124844D01*
X0011340Y0124813D01*
X0011184Y0124785D01*
X0011028Y0124761D01*
X0010871Y0124741D01*
X0010713Y0124725D01*
X0010556Y0124713D01*
X0010397Y0124705D01*
X0010239Y0124701D01*
X0010081Y0124701D01*
X0009923Y0124705D01*
X0009764Y0124713D01*
X0009607Y0124725D01*
X0009449Y0124741D01*
X0009292Y0124761D01*
X0009136Y0124785D01*
X0008980Y0124813D01*
X0008825Y0124844D01*
X0008670Y0124880D01*
X0008517Y0124919D01*
X0008365Y0124962D01*
X0008214Y0125009D01*
X0008064Y0125060D01*
X0007915Y0125115D01*
X0007768Y0125173D01*
X0007622Y0125235D01*
X0007478Y0125300D01*
X0007336Y0125370D01*
X0007195Y0125442D01*
X0007056Y0125519D01*
X0006920Y0125598D01*
X0006785Y0125682D01*
X0006652Y0125768D01*
X0006522Y0125858D01*
X0006394Y0125951D01*
X0006268Y0126047D01*
X0006145Y0126147D01*
X0006024Y0126249D01*
X0005906Y0126354D01*
X0005791Y0126463D01*
X0005678Y0126574D01*
X0005568Y0126688D01*
X0005461Y0126805D01*
X0005357Y0126924D01*
X0005256Y0127046D01*
X0005159Y0127171D01*
X0005064Y0127298D01*
X0004973Y0127427D01*
X0004884Y0127558D01*
X0004800Y0127692D01*
X0004718Y0127828D01*
X0004640Y0127965D01*
X0004566Y0128105D01*
X0004495Y0128247D01*
X0004427Y0128390D01*
X0004363Y0128535D01*
X0004303Y0128681D01*
X0004247Y0128829D01*
X0004194Y0128978D01*
X0004145Y0129129D01*
X0004100Y0129281D01*
X0004059Y0129434D01*
X0004021Y0129587D01*
X0003988Y0129742D01*
X0003958Y0129898D01*
X0003932Y0130054D01*
X0003911Y0130211D01*
X0003893Y0130368D01*
X0003879Y0130526D01*
X0003869Y0130684D01*
X0003863Y0130842D01*
X0003861Y0131000D01*
D11*
X0007860Y0112165D02*
X0010929Y0109096D01*
X0010929Y0106794D02*
X0007860Y0106794D01*
X0007860Y0106027D02*
X0007860Y0107561D01*
X0007860Y0109096D02*
X0010929Y0112165D01*
X0010929Y0106794D02*
X0010929Y0106027D01*
X0010929Y0104492D02*
X0010929Y0103725D01*
X0009394Y0102190D01*
X0007860Y0102190D02*
X0010929Y0102190D01*
X0010929Y0100655D02*
X0010929Y0099121D01*
X0011696Y0099888D02*
X0008627Y0099888D01*
X0007860Y0100655D01*
X0007860Y0097586D02*
X0007860Y0095284D01*
X0008627Y0094517D01*
X0009394Y0095284D01*
X0009394Y0097586D01*
X0010162Y0097586D02*
X0007860Y0097586D01*
X0010162Y0097586D02*
X0010929Y0096819D01*
X0010929Y0095284D01*
X0012464Y0092982D02*
X0007860Y0092982D01*
X0010929Y0091448D02*
X0012464Y0092982D01*
X0010929Y0091448D02*
X0012464Y0089913D01*
X0007860Y0089913D01*
X0010162Y0083774D02*
X0010162Y0080705D01*
X0012464Y0083007D01*
X0007860Y0083007D01*
X0007860Y0079170D02*
X0010929Y0076101D01*
X0010929Y0074567D02*
X0010162Y0073799D01*
X0009394Y0074567D01*
X0008627Y0074567D01*
X0007860Y0073799D01*
X0007860Y0072265D01*
X0008627Y0071497D01*
X0010162Y0073032D02*
X0010162Y0073799D01*
X0010929Y0074567D02*
X0011696Y0074567D01*
X0012464Y0073799D01*
X0012464Y0072265D01*
X0011696Y0071497D01*
X0007860Y0076101D02*
X0010929Y0079170D01*
X0025860Y0070665D02*
X0028162Y0068363D01*
X0027394Y0067596D02*
X0030464Y0070665D01*
X0030464Y0067596D02*
X0025860Y0067596D01*
X0026627Y0066061D02*
X0025860Y0065294D01*
X0025860Y0063759D01*
X0026627Y0062992D01*
X0029696Y0066061D01*
X0026627Y0066061D01*
X0029696Y0066061D02*
X0030464Y0065294D01*
X0030464Y0063759D01*
X0029696Y0062992D01*
X0026627Y0062992D01*
X0026627Y0061457D02*
X0025860Y0060690D01*
X0025860Y0059155D01*
X0026627Y0058388D01*
X0029696Y0061457D01*
X0026627Y0061457D01*
X0029696Y0061457D02*
X0030464Y0060690D01*
X0030464Y0059155D01*
X0029696Y0058388D01*
X0026627Y0058388D01*
X0025860Y0056854D02*
X0025860Y0053784D01*
X0025860Y0055319D02*
X0030464Y0055319D01*
X0028929Y0053784D01*
X0013231Y0106794D02*
X0012464Y0106794D01*
X0127860Y0125235D02*
X0132464Y0125235D01*
X0132464Y0126769D02*
X0132464Y0123700D01*
X0132464Y0128304D02*
X0127860Y0128304D01*
X0127860Y0131373D01*
X0128627Y0132908D02*
X0131696Y0135977D01*
X0128627Y0135977D01*
X0127860Y0135210D01*
X0127860Y0133675D01*
X0128627Y0132908D01*
X0131696Y0132908D01*
X0132464Y0133675D01*
X0132464Y0135210D01*
X0131696Y0135977D01*
X0132464Y0137512D02*
X0132464Y0140581D01*
X0131696Y0140581D01*
X0128627Y0137512D01*
X0127860Y0137512D01*
X0130162Y0142116D02*
X0130162Y0145185D01*
X0127860Y0144418D02*
X0132464Y0144418D01*
X0130162Y0142116D01*
X0212860Y0146200D02*
X0216963Y0146200D01*
X0216963Y0148252D01*
X0216279Y0148936D01*
X0214912Y0148936D01*
X0214228Y0148252D01*
X0214228Y0146200D01*
X0214228Y0147568D02*
X0212860Y0148936D01*
X0212860Y0150344D02*
X0212860Y0153079D01*
X0212860Y0154487D02*
X0212860Y0156539D01*
X0213544Y0157223D01*
X0216279Y0157223D01*
X0216963Y0156539D01*
X0216963Y0154487D01*
X0212860Y0154487D01*
X0214912Y0151711D02*
X0214912Y0150344D01*
X0216963Y0150344D02*
X0212860Y0150344D01*
X0216963Y0150344D02*
X0216963Y0153079D01*
X0216279Y0162774D02*
X0215596Y0162774D01*
X0214912Y0163458D01*
X0214912Y0164826D01*
X0214228Y0165510D01*
X0213544Y0165510D01*
X0212860Y0164826D01*
X0212860Y0163458D01*
X0213544Y0162774D01*
X0216279Y0162774D02*
X0216963Y0163458D01*
X0216963Y0164826D01*
X0216279Y0165510D01*
X0216963Y0166918D02*
X0216963Y0169653D01*
X0216963Y0168286D02*
X0212860Y0168286D01*
X0212860Y0171061D02*
X0216963Y0171061D01*
X0216963Y0173113D01*
X0216279Y0173797D01*
X0214912Y0173797D01*
X0214228Y0173113D01*
X0214228Y0171061D01*
X0214228Y0172429D02*
X0212860Y0173797D01*
X0212860Y0175205D02*
X0212860Y0176573D01*
X0212860Y0175889D02*
X0216963Y0175889D01*
X0216963Y0175205D02*
X0216963Y0176573D01*
X0216963Y0177967D02*
X0212860Y0177967D01*
X0214228Y0177967D02*
X0214228Y0180019D01*
X0214912Y0180703D01*
X0216279Y0180703D01*
X0216963Y0180019D01*
X0216963Y0177967D01*
X0216963Y0182111D02*
X0212860Y0182111D01*
X0212860Y0184846D01*
X0214912Y0183479D02*
X0214912Y0182111D01*
X0216963Y0182111D02*
X0216963Y0184846D01*
X0164960Y0053304D02*
X0161891Y0053304D01*
X0163425Y0053304D02*
X0163425Y0048700D01*
X0160356Y0048700D02*
X0157287Y0048700D01*
X0155752Y0049467D02*
X0154985Y0048700D01*
X0153450Y0048700D01*
X0152683Y0049467D01*
X0152683Y0052537D01*
X0155752Y0049467D01*
X0155752Y0052537D01*
X0154985Y0053304D01*
X0153450Y0053304D01*
X0152683Y0052537D01*
X0151148Y0053304D02*
X0148079Y0053304D01*
X0148079Y0052537D01*
X0151148Y0049467D01*
X0151148Y0048700D01*
X0146544Y0048700D02*
X0143475Y0051769D01*
X0143475Y0052537D01*
X0144242Y0053304D01*
X0145777Y0053304D01*
X0146544Y0052537D01*
X0146544Y0048700D02*
X0143475Y0048700D01*
X0160356Y0048700D02*
X0160356Y0053304D01*
D12*
X0135512Y0064331D02*
X0132610Y0064331D01*
X0132610Y0063364D02*
X0132610Y0065299D01*
X0133094Y0066310D02*
X0135029Y0068245D01*
X0133094Y0068245D01*
X0132610Y0067762D01*
X0132610Y0066794D01*
X0133094Y0066310D01*
X0135029Y0066310D01*
X0135512Y0066794D01*
X0135512Y0067762D01*
X0135029Y0068245D01*
X0135029Y0069257D02*
X0133094Y0069257D01*
X0135029Y0071192D01*
X0133094Y0071192D01*
X0132610Y0070708D01*
X0132610Y0069741D01*
X0133094Y0069257D01*
X0135029Y0069257D02*
X0135512Y0069741D01*
X0135512Y0070708D01*
X0135029Y0071192D01*
X0134545Y0072203D02*
X0134545Y0073655D01*
X0134061Y0074138D01*
X0132610Y0074138D01*
X0132610Y0072203D02*
X0134545Y0072203D01*
X0135512Y0064331D02*
X0134545Y0063364D01*
X0121510Y0066634D02*
X0121026Y0066150D01*
X0120059Y0066150D01*
X0119575Y0066634D01*
X0118563Y0066634D02*
X0118080Y0066150D01*
X0117112Y0066150D01*
X0116628Y0066634D01*
X0116628Y0068569D01*
X0117112Y0069052D01*
X0118080Y0069052D01*
X0118563Y0068569D01*
X0118563Y0068085D01*
X0118080Y0067601D01*
X0116628Y0067601D01*
X0119575Y0068569D02*
X0120059Y0069052D01*
X0121026Y0069052D01*
X0121510Y0068569D01*
X0121510Y0066634D01*
X0075010Y0048619D02*
X0075010Y0046150D01*
X0075010Y0048002D02*
X0072541Y0048002D01*
X0072541Y0048619D02*
X0072541Y0046150D01*
X0072541Y0048619D02*
X0073775Y0049853D01*
X0075010Y0048619D01*
X0067644Y0048002D02*
X0067644Y0046767D01*
X0067026Y0046150D01*
X0065175Y0046150D01*
X0065175Y0045533D02*
X0065175Y0048619D01*
X0067026Y0048619D01*
X0067644Y0048002D01*
X0065175Y0045533D02*
X0065792Y0044916D01*
X0066409Y0044916D01*
X0063960Y0046767D02*
X0063343Y0047384D01*
X0061492Y0047384D01*
X0061492Y0048002D02*
X0061492Y0046150D01*
X0063343Y0046150D01*
X0063960Y0046767D01*
X0063343Y0048619D02*
X0062109Y0048619D01*
X0061492Y0048002D01*
X0060277Y0048619D02*
X0059660Y0048619D01*
X0059660Y0046150D01*
X0060277Y0046150D02*
X0059043Y0046150D01*
X0057822Y0046150D02*
X0057822Y0048619D01*
X0055970Y0048619D01*
X0055353Y0048002D01*
X0055353Y0046150D01*
X0059660Y0049853D02*
X0059660Y0050470D01*
X0063166Y0061900D02*
X0064133Y0061900D01*
X0064617Y0062384D01*
X0064617Y0063351D02*
X0063649Y0063835D01*
X0063166Y0063835D01*
X0062682Y0063351D01*
X0062682Y0062384D01*
X0063166Y0061900D01*
X0064617Y0063351D02*
X0064617Y0064802D01*
X0062682Y0064802D01*
X0066596Y0064802D02*
X0066596Y0061900D01*
X0067563Y0061900D02*
X0065628Y0061900D01*
X0067563Y0063835D02*
X0066596Y0064802D01*
X0068575Y0064319D02*
X0068575Y0063351D01*
X0069059Y0062867D01*
X0070510Y0062867D01*
X0070510Y0061900D02*
X0070510Y0064802D01*
X0069059Y0064802D01*
X0068575Y0064319D01*
X0069542Y0062867D02*
X0068575Y0061900D01*
X0036513Y0056787D02*
X0032810Y0056787D01*
X0032810Y0054936D01*
X0033427Y0054318D01*
X0034661Y0054318D01*
X0035279Y0054936D01*
X0035279Y0056787D01*
X0034661Y0053104D02*
X0034044Y0053104D01*
X0034044Y0050635D01*
X0033427Y0050635D02*
X0034661Y0050635D01*
X0035279Y0051253D01*
X0035279Y0052487D01*
X0034661Y0053104D01*
X0032810Y0052487D02*
X0032810Y0051253D01*
X0033427Y0050635D01*
X0032810Y0049418D02*
X0034044Y0047566D01*
X0035279Y0049418D01*
X0036513Y0047566D02*
X0032810Y0047566D01*
X0035279Y0046348D02*
X0035279Y0045731D01*
X0034044Y0044497D01*
X0034044Y0043282D02*
X0034044Y0041431D01*
X0033427Y0040814D01*
X0032810Y0041431D01*
X0032810Y0043282D01*
X0034661Y0043282D01*
X0035279Y0042665D01*
X0035279Y0041431D01*
X0034661Y0039599D02*
X0032810Y0039599D01*
X0032810Y0038365D02*
X0034661Y0038365D01*
X0035279Y0038982D01*
X0034661Y0039599D01*
X0034661Y0038365D02*
X0035279Y0037748D01*
X0035279Y0037130D01*
X0032810Y0037130D01*
X0032810Y0035916D02*
X0034661Y0035916D01*
X0035279Y0035299D01*
X0035279Y0033447D01*
X0032810Y0033447D01*
X0032810Y0032233D02*
X0035279Y0032233D01*
X0035279Y0029764D02*
X0033427Y0029764D01*
X0032810Y0030381D01*
X0032810Y0032233D01*
X0032810Y0024860D02*
X0032810Y0023626D01*
X0032810Y0024243D02*
X0036513Y0024243D01*
X0036513Y0023626D01*
X0036513Y0021787D02*
X0032810Y0021787D01*
X0032810Y0021170D02*
X0032810Y0022405D01*
X0032810Y0019956D02*
X0035279Y0019956D01*
X0036513Y0018721D01*
X0035279Y0017487D01*
X0032810Y0017487D01*
X0034661Y0017487D02*
X0034661Y0019956D01*
X0036513Y0021170D02*
X0036513Y0021787D01*
X0065521Y0013102D02*
X0065521Y0012619D01*
X0067456Y0010684D01*
X0067456Y0010200D01*
X0068468Y0010200D02*
X0070403Y0010200D01*
X0069435Y0010200D02*
X0069435Y0013102D01*
X0070403Y0012135D01*
X0071414Y0012619D02*
X0071414Y0011651D01*
X0071898Y0011167D01*
X0073349Y0011167D01*
X0073349Y0010200D02*
X0073349Y0013102D01*
X0071898Y0013102D01*
X0071414Y0012619D01*
X0072382Y0011167D02*
X0071414Y0010200D01*
X0067456Y0013102D02*
X0065521Y0013102D01*
X0066005Y0031200D02*
X0065521Y0031684D01*
X0065521Y0032167D01*
X0066005Y0032651D01*
X0067456Y0032651D01*
X0067456Y0031684D01*
X0066973Y0031200D01*
X0066005Y0031200D01*
X0067456Y0032651D02*
X0066489Y0033619D01*
X0065521Y0034102D01*
X0069435Y0034102D02*
X0070403Y0033135D01*
X0071414Y0033619D02*
X0071414Y0032651D01*
X0071898Y0032167D01*
X0073349Y0032167D01*
X0073349Y0031200D02*
X0073349Y0034102D01*
X0071898Y0034102D01*
X0071414Y0033619D01*
X0072382Y0032167D02*
X0071414Y0031200D01*
X0070403Y0031200D02*
X0068468Y0031200D01*
X0069435Y0031200D02*
X0069435Y0034102D01*
X0035279Y0044497D02*
X0032810Y0044497D01*
X0032810Y0061685D02*
X0035279Y0061685D01*
X0035279Y0062919D02*
X0035279Y0063536D01*
X0035279Y0062919D02*
X0034044Y0061685D01*
X0034044Y0064754D02*
X0034044Y0067223D01*
X0034661Y0067223D01*
X0035279Y0066606D01*
X0035279Y0065371D01*
X0034661Y0064754D01*
X0033427Y0064754D01*
X0032810Y0065371D01*
X0032810Y0066606D01*
X0032810Y0068437D02*
X0032810Y0070289D01*
X0033427Y0070906D01*
X0034044Y0070289D01*
X0034044Y0069054D01*
X0034661Y0068437D01*
X0035279Y0069054D01*
X0035279Y0070906D01*
X0035279Y0072120D02*
X0035279Y0072738D01*
X0032810Y0072738D01*
X0032810Y0073355D02*
X0032810Y0072120D01*
X0032810Y0074576D02*
X0032810Y0076427D01*
X0033427Y0077045D01*
X0034044Y0076427D01*
X0034044Y0075193D01*
X0034661Y0074576D01*
X0035279Y0075193D01*
X0035279Y0077045D01*
X0035279Y0078259D02*
X0035279Y0079493D01*
X0035896Y0078876D02*
X0033427Y0078876D01*
X0032810Y0079493D01*
X0033427Y0080714D02*
X0032810Y0081332D01*
X0032810Y0082566D01*
X0033427Y0083183D01*
X0034661Y0083183D01*
X0035279Y0082566D01*
X0035279Y0081332D01*
X0034661Y0080714D01*
X0033427Y0080714D01*
X0032810Y0084397D02*
X0035279Y0084397D01*
X0034044Y0084397D02*
X0035279Y0085632D01*
X0035279Y0086249D01*
X0034661Y0087467D02*
X0035279Y0088084D01*
X0035279Y0089936D01*
X0034044Y0089318D02*
X0034044Y0088084D01*
X0034661Y0087467D01*
X0032810Y0087467D02*
X0032810Y0089318D01*
X0033427Y0089936D01*
X0034044Y0089318D01*
X0065628Y0085802D02*
X0065628Y0085319D01*
X0067563Y0083384D01*
X0067563Y0082900D01*
X0068575Y0082900D02*
X0069542Y0083867D01*
X0069059Y0083867D02*
X0070510Y0083867D01*
X0070510Y0082900D02*
X0070510Y0085802D01*
X0069059Y0085802D01*
X0068575Y0085319D01*
X0068575Y0084351D01*
X0069059Y0083867D01*
X0067563Y0085802D02*
X0065628Y0085802D01*
X0037130Y0072738D02*
X0036513Y0072738D01*
X0066112Y0102900D02*
X0065628Y0103384D01*
X0065628Y0103867D01*
X0066112Y0104351D01*
X0067563Y0104351D01*
X0067563Y0103384D01*
X0067080Y0102900D01*
X0066112Y0102900D01*
X0067563Y0104351D02*
X0066596Y0105319D01*
X0065628Y0105802D01*
X0068575Y0105319D02*
X0068575Y0104351D01*
X0069059Y0103867D01*
X0070510Y0103867D01*
X0070510Y0102900D02*
X0070510Y0105802D01*
X0069059Y0105802D01*
X0068575Y0105319D01*
X0069542Y0103867D02*
X0068575Y0102900D01*
X0068575Y0117900D02*
X0069542Y0118867D01*
X0069059Y0118867D02*
X0070510Y0118867D01*
X0070510Y0117900D02*
X0070510Y0120802D01*
X0069059Y0120802D01*
X0068575Y0120319D01*
X0068575Y0119351D01*
X0069059Y0118867D01*
X0067563Y0117900D02*
X0065628Y0117900D01*
X0066596Y0117900D02*
X0066596Y0120802D01*
X0067563Y0119835D01*
X0088505Y0127200D02*
X0088505Y0130102D01*
X0089956Y0128651D01*
X0088021Y0128651D01*
X0090968Y0128651D02*
X0091452Y0128167D01*
X0092903Y0128167D01*
X0092903Y0127200D02*
X0092903Y0130102D01*
X0091452Y0130102D01*
X0090968Y0129619D01*
X0090968Y0128651D01*
X0091935Y0128167D02*
X0090968Y0127200D01*
X0071403Y0133200D02*
X0071403Y0136102D01*
X0069952Y0136102D01*
X0069468Y0135619D01*
X0069468Y0134651D01*
X0069952Y0134167D01*
X0071403Y0134167D01*
X0070435Y0134167D02*
X0069468Y0133200D01*
X0068456Y0133684D02*
X0067973Y0133200D01*
X0067005Y0133200D01*
X0066521Y0133684D01*
X0066521Y0134167D01*
X0067005Y0134651D01*
X0067489Y0134651D01*
X0067005Y0134651D02*
X0066521Y0135135D01*
X0066521Y0135619D01*
X0067005Y0136102D01*
X0067973Y0136102D01*
X0068456Y0135619D01*
X0068575Y0147900D02*
X0069542Y0148867D01*
X0069059Y0148867D02*
X0070510Y0148867D01*
X0070510Y0147900D02*
X0070510Y0150802D01*
X0069059Y0150802D01*
X0068575Y0150319D01*
X0068575Y0149351D01*
X0069059Y0148867D01*
X0067563Y0148867D02*
X0067080Y0149351D01*
X0066112Y0149351D01*
X0065628Y0148867D01*
X0065628Y0148384D01*
X0066112Y0147900D01*
X0067080Y0147900D01*
X0067563Y0148384D01*
X0067563Y0148867D01*
X0067080Y0149351D02*
X0067563Y0149835D01*
X0067563Y0150319D01*
X0067080Y0150802D01*
X0066112Y0150802D01*
X0065628Y0150319D01*
X0065628Y0149835D01*
X0066112Y0149351D01*
X0065628Y0163900D02*
X0067563Y0163900D01*
X0065628Y0165835D01*
X0065628Y0166319D01*
X0066112Y0166802D01*
X0067080Y0166802D01*
X0067563Y0166319D01*
X0068575Y0166319D02*
X0068575Y0165351D01*
X0069059Y0164867D01*
X0070510Y0164867D01*
X0070510Y0163900D02*
X0070510Y0166802D01*
X0069059Y0166802D01*
X0068575Y0166319D01*
X0069542Y0164867D02*
X0068575Y0163900D01*
X0068575Y0182900D02*
X0069542Y0183867D01*
X0069059Y0183867D02*
X0070510Y0183867D01*
X0070510Y0182900D02*
X0070510Y0185802D01*
X0069059Y0185802D01*
X0068575Y0185319D01*
X0068575Y0184351D01*
X0069059Y0183867D01*
X0067563Y0182900D02*
X0065628Y0182900D01*
X0066596Y0182900D02*
X0066596Y0185802D01*
X0067563Y0184835D01*
X0064617Y0184835D02*
X0064617Y0185319D01*
X0064133Y0185802D01*
X0063166Y0185802D01*
X0062682Y0185319D01*
X0062682Y0184835D01*
X0063166Y0184351D01*
X0064133Y0184351D01*
X0064617Y0184835D01*
X0064133Y0184351D02*
X0064617Y0183867D01*
X0064617Y0183384D01*
X0064133Y0182900D01*
X0063166Y0182900D01*
X0062682Y0183384D01*
X0062682Y0183867D01*
X0063166Y0184351D01*
X0062233Y0187150D02*
X0059764Y0187150D01*
X0060998Y0187150D02*
X0060998Y0190853D01*
X0062233Y0189619D01*
X0058550Y0190236D02*
X0058550Y0187767D01*
X0056081Y0190236D01*
X0056081Y0187767D01*
X0056698Y0187150D01*
X0057932Y0187150D01*
X0058550Y0187767D01*
X0058550Y0190236D02*
X0057932Y0190853D01*
X0056698Y0190853D01*
X0056081Y0190236D01*
X0054866Y0190236D02*
X0054866Y0187767D01*
X0052398Y0190236D01*
X0052398Y0187767D01*
X0053015Y0187150D01*
X0054249Y0187150D01*
X0054866Y0187767D01*
X0054866Y0190236D02*
X0054249Y0190853D01*
X0053015Y0190853D01*
X0052398Y0190236D01*
X0051183Y0190853D02*
X0051183Y0187150D01*
X0051183Y0188384D02*
X0049332Y0189619D01*
X0051183Y0188384D02*
X0049332Y0187150D01*
X0067137Y0187150D02*
X0068371Y0187150D01*
X0067754Y0187150D02*
X0067754Y0190853D01*
X0068371Y0190853D01*
X0070210Y0190853D02*
X0070210Y0187150D01*
X0070827Y0187150D02*
X0069592Y0187150D01*
X0072041Y0187150D02*
X0073893Y0187150D01*
X0074510Y0187767D01*
X0073893Y0188384D01*
X0072041Y0188384D01*
X0072041Y0189002D02*
X0072041Y0187150D01*
X0072041Y0189002D02*
X0072658Y0189619D01*
X0073893Y0189619D01*
X0070827Y0190853D02*
X0070210Y0190853D01*
X0150310Y0177168D02*
X0152161Y0177168D01*
X0152779Y0176551D01*
X0152779Y0174699D01*
X0150310Y0174699D01*
X0150927Y0173485D02*
X0150310Y0172868D01*
X0150310Y0171633D01*
X0150927Y0171016D01*
X0153396Y0173485D01*
X0150927Y0173485D01*
X0153396Y0173485D02*
X0154013Y0172868D01*
X0154013Y0171633D01*
X0153396Y0171016D01*
X0150927Y0171016D01*
X0150927Y0169802D02*
X0150310Y0169185D01*
X0150310Y0167950D01*
X0150927Y0167333D01*
X0153396Y0169802D01*
X0150927Y0169802D01*
X0153396Y0169802D02*
X0154013Y0169185D01*
X0154013Y0167950D01*
X0153396Y0167333D01*
X0150927Y0167333D01*
X0150310Y0166119D02*
X0150310Y0163650D01*
X0150310Y0164884D02*
X0154013Y0164884D01*
X0152779Y0163650D01*
X0118010Y0137302D02*
X0116559Y0137302D01*
X0116075Y0136819D01*
X0116075Y0135851D01*
X0116559Y0135367D01*
X0118010Y0135367D01*
X0118010Y0134400D02*
X0118010Y0137302D01*
X0117042Y0135367D02*
X0116075Y0134400D01*
X0115063Y0134884D02*
X0114580Y0134400D01*
X0113612Y0134400D01*
X0113128Y0134884D01*
X0113128Y0135851D01*
X0113612Y0136335D01*
X0114096Y0136335D01*
X0115063Y0135851D01*
X0115063Y0137302D01*
X0113128Y0137302D01*
X0148735Y0104601D02*
X0148735Y0103150D01*
X0148735Y0104601D02*
X0149219Y0105085D01*
X0150670Y0105085D01*
X0150670Y0103150D01*
X0151682Y0103634D02*
X0152166Y0103150D01*
X0153133Y0103150D01*
X0153617Y0103634D01*
X0151682Y0105569D01*
X0151682Y0103634D01*
X0151682Y0105569D02*
X0152166Y0106052D01*
X0153133Y0106052D01*
X0153617Y0105569D01*
X0153617Y0103634D01*
X0154628Y0103634D02*
X0154628Y0105569D01*
X0156563Y0103634D01*
X0156080Y0103150D01*
X0155112Y0103150D01*
X0154628Y0103634D01*
X0154628Y0105569D02*
X0155112Y0106052D01*
X0156080Y0106052D01*
X0156563Y0105569D01*
X0156563Y0103634D01*
X0157575Y0103150D02*
X0159510Y0103150D01*
X0158542Y0103150D02*
X0158542Y0106052D01*
X0159510Y0105085D01*
X0155510Y0097302D02*
X0154059Y0097302D01*
X0153575Y0096819D01*
X0153575Y0095851D01*
X0154059Y0095367D01*
X0155510Y0095367D01*
X0155510Y0094400D02*
X0155510Y0097302D01*
X0154542Y0095367D02*
X0153575Y0094400D01*
X0152563Y0094400D02*
X0150628Y0094400D01*
X0151596Y0094400D02*
X0151596Y0097302D01*
X0152563Y0096335D01*
X0149617Y0096819D02*
X0149133Y0097302D01*
X0148166Y0097302D01*
X0147682Y0096819D01*
X0149617Y0094884D01*
X0149133Y0094400D01*
X0148166Y0094400D01*
X0147682Y0094884D01*
X0147682Y0096819D01*
X0149617Y0096819D02*
X0149617Y0094884D01*
X0173682Y0070569D02*
X0174166Y0071052D01*
X0175133Y0071052D01*
X0175617Y0070569D01*
X0175617Y0068634D01*
X0173682Y0070569D01*
X0173682Y0068634D01*
X0174166Y0068150D01*
X0175133Y0068150D01*
X0175617Y0068634D01*
X0176628Y0068634D02*
X0177112Y0068150D01*
X0178080Y0068150D01*
X0178563Y0068634D01*
X0176628Y0070569D01*
X0176628Y0068634D01*
X0176628Y0070569D02*
X0177112Y0071052D01*
X0178080Y0071052D01*
X0178563Y0070569D01*
X0178563Y0068634D01*
X0179575Y0068150D02*
X0181510Y0068150D01*
X0180542Y0068150D02*
X0180542Y0071052D01*
X0181510Y0070085D01*
X0172670Y0070085D02*
X0172670Y0068150D01*
X0170735Y0068150D02*
X0170735Y0069601D01*
X0171219Y0070085D01*
X0172670Y0070085D01*
X0217853Y0058002D02*
X0217853Y0056150D01*
X0217853Y0058002D02*
X0218470Y0058619D01*
X0220322Y0058619D01*
X0220322Y0056150D01*
X0221543Y0056150D02*
X0222777Y0056150D01*
X0222160Y0056150D02*
X0222160Y0058619D01*
X0222777Y0058619D01*
X0223992Y0058002D02*
X0223992Y0056150D01*
X0225843Y0056150D01*
X0226460Y0056767D01*
X0225843Y0057384D01*
X0223992Y0057384D01*
X0223992Y0058002D02*
X0224609Y0058619D01*
X0225843Y0058619D01*
X0227675Y0058619D02*
X0229526Y0058619D01*
X0230144Y0058002D01*
X0230144Y0056767D01*
X0229526Y0056150D01*
X0227675Y0056150D01*
X0227675Y0055533D02*
X0227675Y0058619D01*
X0227675Y0055533D02*
X0228292Y0054916D01*
X0228909Y0054916D01*
X0235041Y0056767D02*
X0235041Y0057384D01*
X0235658Y0058002D01*
X0237510Y0058002D01*
X0237510Y0059853D02*
X0235658Y0059853D01*
X0235041Y0059236D01*
X0235041Y0058619D01*
X0235658Y0058002D01*
X0235041Y0056767D02*
X0235658Y0056150D01*
X0237510Y0056150D01*
X0237510Y0059853D01*
X0230510Y0061900D02*
X0230510Y0064802D01*
X0229059Y0064802D01*
X0228575Y0064319D01*
X0228575Y0063351D01*
X0229059Y0062867D01*
X0230510Y0062867D01*
X0229542Y0062867D02*
X0228575Y0061900D01*
X0227563Y0061900D02*
X0225628Y0061900D01*
X0226596Y0061900D02*
X0226596Y0064802D01*
X0227563Y0063835D01*
X0224617Y0064319D02*
X0224133Y0064802D01*
X0223166Y0064802D01*
X0222682Y0064319D01*
X0222682Y0063835D01*
X0224617Y0061900D01*
X0222682Y0061900D01*
X0222160Y0060470D02*
X0222160Y0059853D01*
X0225005Y0038102D02*
X0224521Y0037619D01*
X0224521Y0037135D01*
X0225005Y0036651D01*
X0224521Y0036167D01*
X0224521Y0035684D01*
X0225005Y0035200D01*
X0225973Y0035200D01*
X0226456Y0035684D01*
X0227468Y0035200D02*
X0229403Y0035200D01*
X0228435Y0035200D02*
X0228435Y0038102D01*
X0229403Y0037135D01*
X0230414Y0037619D02*
X0230414Y0036651D01*
X0230898Y0036167D01*
X0232349Y0036167D01*
X0232349Y0035200D02*
X0232349Y0038102D01*
X0230898Y0038102D01*
X0230414Y0037619D01*
X0231382Y0036167D02*
X0230414Y0035200D01*
X0225489Y0036651D02*
X0225005Y0036651D01*
X0225005Y0038102D02*
X0225973Y0038102D01*
X0226456Y0037619D01*
X0227596Y0023802D02*
X0227596Y0020900D01*
X0228563Y0020900D02*
X0226628Y0020900D01*
X0225617Y0022351D02*
X0223682Y0022351D01*
X0224166Y0020900D02*
X0224166Y0023802D01*
X0225617Y0022351D01*
X0227596Y0023802D02*
X0228563Y0022835D01*
X0229575Y0023319D02*
X0230059Y0023802D01*
X0231510Y0023802D01*
X0231510Y0020900D01*
X0231510Y0021867D02*
X0230059Y0021867D01*
X0229575Y0022351D01*
X0229575Y0023319D01*
X0230542Y0021867D02*
X0229575Y0020900D01*
X0228435Y0009102D02*
X0228435Y0006200D01*
X0227468Y0006200D02*
X0229403Y0006200D01*
X0230414Y0006200D02*
X0231382Y0007167D01*
X0230898Y0007167D02*
X0232349Y0007167D01*
X0232349Y0006200D02*
X0232349Y0009102D01*
X0230898Y0009102D01*
X0230414Y0008619D01*
X0230414Y0007651D01*
X0230898Y0007167D01*
X0229403Y0008135D02*
X0228435Y0009102D01*
X0226456Y0008619D02*
X0226456Y0008135D01*
X0225973Y0007651D01*
X0224521Y0007651D01*
X0224521Y0006684D02*
X0224521Y0008619D01*
X0225005Y0009102D01*
X0225973Y0009102D01*
X0226456Y0008619D01*
X0226456Y0006684D02*
X0225973Y0006200D01*
X0225005Y0006200D01*
X0224521Y0006684D01*
X0340021Y0006151D02*
X0341956Y0006151D01*
X0340505Y0007602D01*
X0340505Y0004700D01*
X0342968Y0004700D02*
X0344903Y0004700D01*
X0342968Y0006635D01*
X0342968Y0007119D01*
X0343452Y0007602D01*
X0344419Y0007602D01*
X0344903Y0007119D01*
X0345914Y0007119D02*
X0345914Y0006151D01*
X0346398Y0005667D01*
X0347849Y0005667D01*
X0347849Y0004700D02*
X0347849Y0007602D01*
X0346398Y0007602D01*
X0345914Y0007119D01*
X0346882Y0005667D02*
X0345914Y0004700D01*
X0350514Y0017950D02*
X0351965Y0018917D01*
X0350514Y0019885D01*
X0351965Y0020852D02*
X0351965Y0017950D01*
X0352977Y0017950D02*
X0354912Y0017950D01*
X0353944Y0017950D02*
X0353944Y0020852D01*
X0354912Y0019885D01*
X0233349Y0092200D02*
X0233349Y0095102D01*
X0231898Y0095102D01*
X0231414Y0094619D01*
X0231414Y0093651D01*
X0231898Y0093167D01*
X0233349Y0093167D01*
X0232382Y0093167D02*
X0231414Y0092200D01*
X0230403Y0092200D02*
X0228468Y0094135D01*
X0228468Y0094619D01*
X0228952Y0095102D01*
X0229919Y0095102D01*
X0230403Y0094619D01*
X0227456Y0094619D02*
X0227456Y0092684D01*
X0225521Y0094619D01*
X0225521Y0092684D01*
X0226005Y0092200D01*
X0226973Y0092200D01*
X0227456Y0092684D01*
X0228468Y0092200D02*
X0230403Y0092200D01*
X0227456Y0094619D02*
X0226973Y0095102D01*
X0226005Y0095102D01*
X0225521Y0094619D01*
X0225968Y0101200D02*
X0227903Y0101200D01*
X0225968Y0103135D01*
X0225968Y0103619D01*
X0226452Y0104102D01*
X0227419Y0104102D01*
X0227903Y0103619D01*
X0228914Y0103619D02*
X0228914Y0102651D01*
X0229398Y0102167D01*
X0230849Y0102167D01*
X0230849Y0101200D02*
X0230849Y0104102D01*
X0229398Y0104102D01*
X0228914Y0103619D01*
X0229882Y0102167D02*
X0228914Y0101200D01*
X0224956Y0101200D02*
X0223021Y0101200D01*
X0223989Y0101200D02*
X0223989Y0104102D01*
X0224956Y0103135D01*
X0221409Y0117416D02*
X0220792Y0117416D01*
X0220175Y0118033D01*
X0220175Y0121119D01*
X0222026Y0121119D01*
X0222644Y0120502D01*
X0222644Y0119267D01*
X0222026Y0118650D01*
X0220175Y0118650D01*
X0218960Y0119267D02*
X0218343Y0119884D01*
X0216492Y0119884D01*
X0216492Y0120502D02*
X0216492Y0118650D01*
X0218343Y0118650D01*
X0218960Y0119267D01*
X0218343Y0121119D02*
X0217109Y0121119D01*
X0216492Y0120502D01*
X0215277Y0121119D02*
X0214660Y0121119D01*
X0214660Y0118650D01*
X0215277Y0118650D02*
X0214043Y0118650D01*
X0212822Y0118650D02*
X0212822Y0121119D01*
X0210970Y0121119D01*
X0210353Y0120502D01*
X0210353Y0118650D01*
X0214660Y0122353D02*
X0214660Y0122970D01*
X0227541Y0121736D02*
X0228158Y0122353D01*
X0229393Y0122353D01*
X0230010Y0121736D01*
X0230010Y0119267D01*
X0229393Y0118650D01*
X0228158Y0118650D01*
X0227541Y0119267D01*
X0240521Y0122684D02*
X0240521Y0124619D01*
X0241005Y0125102D01*
X0241973Y0125102D01*
X0242456Y0124619D01*
X0242456Y0124135D01*
X0241973Y0123651D01*
X0240521Y0123651D01*
X0240521Y0122684D02*
X0241005Y0122200D01*
X0241973Y0122200D01*
X0242456Y0122684D01*
X0243468Y0122200D02*
X0244435Y0123167D01*
X0243952Y0123167D02*
X0245403Y0123167D01*
X0245403Y0122200D02*
X0245403Y0125102D01*
X0243952Y0125102D01*
X0243468Y0124619D01*
X0243468Y0123651D01*
X0243952Y0123167D01*
X0205510Y0131900D02*
X0205510Y0134802D01*
X0204059Y0134802D01*
X0203575Y0134319D01*
X0203575Y0133351D01*
X0204059Y0132867D01*
X0205510Y0132867D01*
X0204542Y0132867D02*
X0203575Y0131900D01*
X0202563Y0131900D02*
X0200628Y0131900D01*
X0201596Y0131900D02*
X0201596Y0134802D01*
X0202563Y0133835D01*
X0199617Y0133835D02*
X0198649Y0134802D01*
X0198649Y0131900D01*
X0197682Y0131900D02*
X0199617Y0131900D01*
X0219984Y0188650D02*
X0221051Y0189718D01*
X0220517Y0189718D02*
X0222119Y0189718D01*
X0222119Y0188650D02*
X0222119Y0191853D01*
X0220517Y0191853D01*
X0219984Y0191319D01*
X0219984Y0190251D01*
X0220517Y0189718D01*
X0223206Y0188650D02*
X0225342Y0188650D01*
X0225342Y0191853D01*
X0223206Y0191853D01*
X0224274Y0190251D02*
X0225342Y0190251D01*
X0226429Y0188650D02*
X0227497Y0189718D01*
X0228564Y0188650D01*
X0228564Y0191853D01*
X0229652Y0191319D02*
X0229652Y0189184D01*
X0230186Y0188650D01*
X0231253Y0188650D01*
X0231787Y0189184D01*
X0231787Y0191319D01*
X0231253Y0191853D01*
X0230186Y0191853D01*
X0229652Y0191319D01*
X0232875Y0191319D02*
X0232875Y0190251D01*
X0233408Y0189718D01*
X0235010Y0189718D01*
X0235010Y0188650D02*
X0235010Y0191853D01*
X0233408Y0191853D01*
X0232875Y0191319D01*
X0226429Y0191853D02*
X0226429Y0188650D01*
X0348182Y0142819D02*
X0348666Y0143302D01*
X0349633Y0143302D01*
X0350117Y0142819D01*
X0351128Y0142819D02*
X0351612Y0143302D01*
X0352580Y0143302D01*
X0353063Y0142819D01*
X0354075Y0142819D02*
X0354075Y0141851D01*
X0354559Y0141367D01*
X0356010Y0141367D01*
X0356010Y0140400D02*
X0356010Y0143302D01*
X0354559Y0143302D01*
X0354075Y0142819D01*
X0355042Y0141367D02*
X0354075Y0140400D01*
X0353063Y0140400D02*
X0351128Y0142335D01*
X0351128Y0142819D01*
X0351128Y0140400D02*
X0353063Y0140400D01*
X0350117Y0140400D02*
X0348182Y0142335D01*
X0348182Y0142819D01*
X0348182Y0140400D02*
X0350117Y0140400D01*
X0349633Y0134302D02*
X0348666Y0134302D01*
X0348182Y0133819D01*
X0348182Y0133335D01*
X0348666Y0132851D01*
X0348182Y0132367D01*
X0348182Y0131884D01*
X0348666Y0131400D01*
X0349633Y0131400D01*
X0350117Y0131884D01*
X0351128Y0131400D02*
X0353063Y0131400D01*
X0351128Y0133335D01*
X0351128Y0133819D01*
X0351612Y0134302D01*
X0352580Y0134302D01*
X0353063Y0133819D01*
X0354075Y0133819D02*
X0354075Y0132851D01*
X0354559Y0132367D01*
X0356010Y0132367D01*
X0356010Y0131400D02*
X0356010Y0134302D01*
X0354559Y0134302D01*
X0354075Y0133819D01*
X0355042Y0132367D02*
X0354075Y0131400D01*
X0350117Y0133819D02*
X0349633Y0134302D01*
X0349149Y0132851D02*
X0348666Y0132851D01*
X0372112Y0133085D02*
X0373563Y0132117D01*
X0372112Y0131150D01*
X0373563Y0131150D02*
X0373563Y0134052D01*
X0375542Y0134052D02*
X0376510Y0133085D01*
X0375542Y0134052D02*
X0375542Y0131150D01*
X0374575Y0131150D02*
X0376510Y0131150D01*
X0367510Y0147150D02*
X0365575Y0147150D01*
X0366542Y0147150D02*
X0366542Y0150052D01*
X0367510Y0149085D01*
X0364563Y0150052D02*
X0364563Y0147150D01*
X0364563Y0148117D02*
X0363112Y0149085D01*
X0364563Y0148117D02*
X0363112Y0147150D01*
D13*
X0217660Y0141000D02*
X0215160Y0138500D01*
X0212660Y0141000D01*
X0215160Y0143500D02*
X0215160Y0138500D01*
X0036480Y0066000D02*
X0036483Y0066274D01*
X0036493Y0066549D01*
X0036510Y0066822D01*
X0036534Y0067096D01*
X0036564Y0067369D01*
X0036601Y0067640D01*
X0036645Y0067911D01*
X0036695Y0068181D01*
X0036752Y0068450D01*
X0036815Y0068717D01*
X0036885Y0068982D01*
X0036961Y0069245D01*
X0037044Y0069507D01*
X0037134Y0069766D01*
X0037229Y0070024D01*
X0037331Y0070278D01*
X0037439Y0070531D01*
X0037553Y0070780D01*
X0037674Y0071027D01*
X0037800Y0071270D01*
X0037932Y0071511D01*
X0038071Y0071748D01*
X0038215Y0071981D01*
X0038364Y0072211D01*
X0038519Y0072438D01*
X0038680Y0072660D01*
X0038846Y0072878D01*
X0039018Y0073093D01*
X0039194Y0073302D01*
X0039376Y0073508D01*
X0039563Y0073709D01*
X0039755Y0073905D01*
X0039951Y0074097D01*
X0040152Y0074284D01*
X0040358Y0074466D01*
X0040567Y0074642D01*
X0040782Y0074814D01*
X0041000Y0074980D01*
X0041222Y0075141D01*
X0041449Y0075296D01*
X0041679Y0075445D01*
X0041912Y0075589D01*
X0042149Y0075728D01*
X0042390Y0075860D01*
X0042633Y0075986D01*
X0042880Y0076107D01*
X0043129Y0076221D01*
X0043382Y0076329D01*
X0043636Y0076431D01*
X0043894Y0076526D01*
X0044153Y0076616D01*
X0044415Y0076699D01*
X0044678Y0076775D01*
X0044943Y0076845D01*
X0045210Y0076908D01*
X0045479Y0076965D01*
X0045749Y0077015D01*
X0046020Y0077059D01*
X0046291Y0077096D01*
X0046564Y0077126D01*
X0046838Y0077150D01*
X0047111Y0077167D01*
X0047386Y0077177D01*
X0047660Y0077180D01*
X0047934Y0077177D01*
X0048209Y0077167D01*
X0048482Y0077150D01*
X0048756Y0077126D01*
X0049029Y0077096D01*
X0049300Y0077059D01*
X0049571Y0077015D01*
X0049841Y0076965D01*
X0050110Y0076908D01*
X0050377Y0076845D01*
X0050642Y0076775D01*
X0050905Y0076699D01*
X0051167Y0076616D01*
X0051426Y0076526D01*
X0051684Y0076431D01*
X0051938Y0076329D01*
X0052191Y0076221D01*
X0052440Y0076107D01*
X0052687Y0075986D01*
X0052930Y0075860D01*
X0053171Y0075728D01*
X0053408Y0075589D01*
X0053641Y0075445D01*
X0053871Y0075296D01*
X0054098Y0075141D01*
X0054320Y0074980D01*
X0054538Y0074814D01*
X0054753Y0074642D01*
X0054962Y0074466D01*
X0055168Y0074284D01*
X0055369Y0074097D01*
X0055565Y0073905D01*
X0055757Y0073709D01*
X0055944Y0073508D01*
X0056126Y0073302D01*
X0056302Y0073093D01*
X0056474Y0072878D01*
X0056640Y0072660D01*
X0056801Y0072438D01*
X0056956Y0072211D01*
X0057105Y0071981D01*
X0057249Y0071748D01*
X0057388Y0071511D01*
X0057520Y0071270D01*
X0057646Y0071027D01*
X0057767Y0070780D01*
X0057881Y0070531D01*
X0057989Y0070278D01*
X0058091Y0070024D01*
X0058186Y0069766D01*
X0058276Y0069507D01*
X0058359Y0069245D01*
X0058435Y0068982D01*
X0058505Y0068717D01*
X0058568Y0068450D01*
X0058625Y0068181D01*
X0058675Y0067911D01*
X0058719Y0067640D01*
X0058756Y0067369D01*
X0058786Y0067096D01*
X0058810Y0066822D01*
X0058827Y0066549D01*
X0058837Y0066274D01*
X0058840Y0066000D01*
X0058837Y0065726D01*
X0058827Y0065451D01*
X0058810Y0065178D01*
X0058786Y0064904D01*
X0058756Y0064631D01*
X0058719Y0064360D01*
X0058675Y0064089D01*
X0058625Y0063819D01*
X0058568Y0063550D01*
X0058505Y0063283D01*
X0058435Y0063018D01*
X0058359Y0062755D01*
X0058276Y0062493D01*
X0058186Y0062234D01*
X0058091Y0061976D01*
X0057989Y0061722D01*
X0057881Y0061469D01*
X0057767Y0061220D01*
X0057646Y0060973D01*
X0057520Y0060730D01*
X0057388Y0060489D01*
X0057249Y0060252D01*
X0057105Y0060019D01*
X0056956Y0059789D01*
X0056801Y0059562D01*
X0056640Y0059340D01*
X0056474Y0059122D01*
X0056302Y0058907D01*
X0056126Y0058698D01*
X0055944Y0058492D01*
X0055757Y0058291D01*
X0055565Y0058095D01*
X0055369Y0057903D01*
X0055168Y0057716D01*
X0054962Y0057534D01*
X0054753Y0057358D01*
X0054538Y0057186D01*
X0054320Y0057020D01*
X0054098Y0056859D01*
X0053871Y0056704D01*
X0053641Y0056555D01*
X0053408Y0056411D01*
X0053171Y0056272D01*
X0052930Y0056140D01*
X0052687Y0056014D01*
X0052440Y0055893D01*
X0052191Y0055779D01*
X0051938Y0055671D01*
X0051684Y0055569D01*
X0051426Y0055474D01*
X0051167Y0055384D01*
X0050905Y0055301D01*
X0050642Y0055225D01*
X0050377Y0055155D01*
X0050110Y0055092D01*
X0049841Y0055035D01*
X0049571Y0054985D01*
X0049300Y0054941D01*
X0049029Y0054904D01*
X0048756Y0054874D01*
X0048482Y0054850D01*
X0048209Y0054833D01*
X0047934Y0054823D01*
X0047660Y0054820D01*
X0047386Y0054823D01*
X0047111Y0054833D01*
X0046838Y0054850D01*
X0046564Y0054874D01*
X0046291Y0054904D01*
X0046020Y0054941D01*
X0045749Y0054985D01*
X0045479Y0055035D01*
X0045210Y0055092D01*
X0044943Y0055155D01*
X0044678Y0055225D01*
X0044415Y0055301D01*
X0044153Y0055384D01*
X0043894Y0055474D01*
X0043636Y0055569D01*
X0043382Y0055671D01*
X0043129Y0055779D01*
X0042880Y0055893D01*
X0042633Y0056014D01*
X0042390Y0056140D01*
X0042149Y0056272D01*
X0041912Y0056411D01*
X0041679Y0056555D01*
X0041449Y0056704D01*
X0041222Y0056859D01*
X0041000Y0057020D01*
X0040782Y0057186D01*
X0040567Y0057358D01*
X0040358Y0057534D01*
X0040152Y0057716D01*
X0039951Y0057903D01*
X0039755Y0058095D01*
X0039563Y0058291D01*
X0039376Y0058492D01*
X0039194Y0058698D01*
X0039018Y0058907D01*
X0038846Y0059122D01*
X0038680Y0059340D01*
X0038519Y0059562D01*
X0038364Y0059789D01*
X0038215Y0060019D01*
X0038071Y0060252D01*
X0037932Y0060489D01*
X0037800Y0060730D01*
X0037674Y0060973D01*
X0037553Y0061220D01*
X0037439Y0061469D01*
X0037331Y0061722D01*
X0037229Y0061976D01*
X0037134Y0062234D01*
X0037044Y0062493D01*
X0036961Y0062755D01*
X0036885Y0063018D01*
X0036815Y0063283D01*
X0036752Y0063550D01*
X0036695Y0063819D01*
X0036645Y0064089D01*
X0036601Y0064360D01*
X0036564Y0064631D01*
X0036534Y0064904D01*
X0036510Y0065178D01*
X0036493Y0065451D01*
X0036483Y0065726D01*
X0036480Y0066000D01*
X0033980Y0133500D02*
X0033983Y0133774D01*
X0033993Y0134049D01*
X0034010Y0134322D01*
X0034034Y0134596D01*
X0034064Y0134869D01*
X0034101Y0135140D01*
X0034145Y0135411D01*
X0034195Y0135681D01*
X0034252Y0135950D01*
X0034315Y0136217D01*
X0034385Y0136482D01*
X0034461Y0136745D01*
X0034544Y0137007D01*
X0034634Y0137266D01*
X0034729Y0137524D01*
X0034831Y0137778D01*
X0034939Y0138031D01*
X0035053Y0138280D01*
X0035174Y0138527D01*
X0035300Y0138770D01*
X0035432Y0139011D01*
X0035571Y0139248D01*
X0035715Y0139481D01*
X0035864Y0139711D01*
X0036019Y0139938D01*
X0036180Y0140160D01*
X0036346Y0140378D01*
X0036518Y0140593D01*
X0036694Y0140802D01*
X0036876Y0141008D01*
X0037063Y0141209D01*
X0037255Y0141405D01*
X0037451Y0141597D01*
X0037652Y0141784D01*
X0037858Y0141966D01*
X0038067Y0142142D01*
X0038282Y0142314D01*
X0038500Y0142480D01*
X0038722Y0142641D01*
X0038949Y0142796D01*
X0039179Y0142945D01*
X0039412Y0143089D01*
X0039649Y0143228D01*
X0039890Y0143360D01*
X0040133Y0143486D01*
X0040380Y0143607D01*
X0040629Y0143721D01*
X0040882Y0143829D01*
X0041136Y0143931D01*
X0041394Y0144026D01*
X0041653Y0144116D01*
X0041915Y0144199D01*
X0042178Y0144275D01*
X0042443Y0144345D01*
X0042710Y0144408D01*
X0042979Y0144465D01*
X0043249Y0144515D01*
X0043520Y0144559D01*
X0043791Y0144596D01*
X0044064Y0144626D01*
X0044338Y0144650D01*
X0044611Y0144667D01*
X0044886Y0144677D01*
X0045160Y0144680D01*
X0045434Y0144677D01*
X0045709Y0144667D01*
X0045982Y0144650D01*
X0046256Y0144626D01*
X0046529Y0144596D01*
X0046800Y0144559D01*
X0047071Y0144515D01*
X0047341Y0144465D01*
X0047610Y0144408D01*
X0047877Y0144345D01*
X0048142Y0144275D01*
X0048405Y0144199D01*
X0048667Y0144116D01*
X0048926Y0144026D01*
X0049184Y0143931D01*
X0049438Y0143829D01*
X0049691Y0143721D01*
X0049940Y0143607D01*
X0050187Y0143486D01*
X0050430Y0143360D01*
X0050671Y0143228D01*
X0050908Y0143089D01*
X0051141Y0142945D01*
X0051371Y0142796D01*
X0051598Y0142641D01*
X0051820Y0142480D01*
X0052038Y0142314D01*
X0052253Y0142142D01*
X0052462Y0141966D01*
X0052668Y0141784D01*
X0052869Y0141597D01*
X0053065Y0141405D01*
X0053257Y0141209D01*
X0053444Y0141008D01*
X0053626Y0140802D01*
X0053802Y0140593D01*
X0053974Y0140378D01*
X0054140Y0140160D01*
X0054301Y0139938D01*
X0054456Y0139711D01*
X0054605Y0139481D01*
X0054749Y0139248D01*
X0054888Y0139011D01*
X0055020Y0138770D01*
X0055146Y0138527D01*
X0055267Y0138280D01*
X0055381Y0138031D01*
X0055489Y0137778D01*
X0055591Y0137524D01*
X0055686Y0137266D01*
X0055776Y0137007D01*
X0055859Y0136745D01*
X0055935Y0136482D01*
X0056005Y0136217D01*
X0056068Y0135950D01*
X0056125Y0135681D01*
X0056175Y0135411D01*
X0056219Y0135140D01*
X0056256Y0134869D01*
X0056286Y0134596D01*
X0056310Y0134322D01*
X0056327Y0134049D01*
X0056337Y0133774D01*
X0056340Y0133500D01*
X0056337Y0133226D01*
X0056327Y0132951D01*
X0056310Y0132678D01*
X0056286Y0132404D01*
X0056256Y0132131D01*
X0056219Y0131860D01*
X0056175Y0131589D01*
X0056125Y0131319D01*
X0056068Y0131050D01*
X0056005Y0130783D01*
X0055935Y0130518D01*
X0055859Y0130255D01*
X0055776Y0129993D01*
X0055686Y0129734D01*
X0055591Y0129476D01*
X0055489Y0129222D01*
X0055381Y0128969D01*
X0055267Y0128720D01*
X0055146Y0128473D01*
X0055020Y0128230D01*
X0054888Y0127989D01*
X0054749Y0127752D01*
X0054605Y0127519D01*
X0054456Y0127289D01*
X0054301Y0127062D01*
X0054140Y0126840D01*
X0053974Y0126622D01*
X0053802Y0126407D01*
X0053626Y0126198D01*
X0053444Y0125992D01*
X0053257Y0125791D01*
X0053065Y0125595D01*
X0052869Y0125403D01*
X0052668Y0125216D01*
X0052462Y0125034D01*
X0052253Y0124858D01*
X0052038Y0124686D01*
X0051820Y0124520D01*
X0051598Y0124359D01*
X0051371Y0124204D01*
X0051141Y0124055D01*
X0050908Y0123911D01*
X0050671Y0123772D01*
X0050430Y0123640D01*
X0050187Y0123514D01*
X0049940Y0123393D01*
X0049691Y0123279D01*
X0049438Y0123171D01*
X0049184Y0123069D01*
X0048926Y0122974D01*
X0048667Y0122884D01*
X0048405Y0122801D01*
X0048142Y0122725D01*
X0047877Y0122655D01*
X0047610Y0122592D01*
X0047341Y0122535D01*
X0047071Y0122485D01*
X0046800Y0122441D01*
X0046529Y0122404D01*
X0046256Y0122374D01*
X0045982Y0122350D01*
X0045709Y0122333D01*
X0045434Y0122323D01*
X0045160Y0122320D01*
X0044886Y0122323D01*
X0044611Y0122333D01*
X0044338Y0122350D01*
X0044064Y0122374D01*
X0043791Y0122404D01*
X0043520Y0122441D01*
X0043249Y0122485D01*
X0042979Y0122535D01*
X0042710Y0122592D01*
X0042443Y0122655D01*
X0042178Y0122725D01*
X0041915Y0122801D01*
X0041653Y0122884D01*
X0041394Y0122974D01*
X0041136Y0123069D01*
X0040882Y0123171D01*
X0040629Y0123279D01*
X0040380Y0123393D01*
X0040133Y0123514D01*
X0039890Y0123640D01*
X0039649Y0123772D01*
X0039412Y0123911D01*
X0039179Y0124055D01*
X0038949Y0124204D01*
X0038722Y0124359D01*
X0038500Y0124520D01*
X0038282Y0124686D01*
X0038067Y0124858D01*
X0037858Y0125034D01*
X0037652Y0125216D01*
X0037451Y0125403D01*
X0037255Y0125595D01*
X0037063Y0125791D01*
X0036876Y0125992D01*
X0036694Y0126198D01*
X0036518Y0126407D01*
X0036346Y0126622D01*
X0036180Y0126840D01*
X0036019Y0127062D01*
X0035864Y0127289D01*
X0035715Y0127519D01*
X0035571Y0127752D01*
X0035432Y0127989D01*
X0035300Y0128230D01*
X0035174Y0128473D01*
X0035053Y0128720D01*
X0034939Y0128969D01*
X0034831Y0129222D01*
X0034729Y0129476D01*
X0034634Y0129734D01*
X0034544Y0129993D01*
X0034461Y0130255D01*
X0034385Y0130518D01*
X0034315Y0130783D01*
X0034252Y0131050D01*
X0034195Y0131319D01*
X0034145Y0131589D01*
X0034101Y0131860D01*
X0034064Y0132131D01*
X0034034Y0132404D01*
X0034010Y0132678D01*
X0033993Y0132951D01*
X0033983Y0133226D01*
X0033980Y0133500D01*
D14*
X0037660Y0138500D02*
X0042660Y0138500D01*
X0040160Y0071000D02*
X0045160Y0071000D01*
X0057660Y0066000D02*
X0057660Y0051000D01*
X0077660Y0051000D01*
X0077660Y0066000D01*
X0057660Y0066000D01*
X0217660Y0061000D02*
X0217660Y0073500D01*
X0225160Y0073500D01*
X0232660Y0073500D02*
X0237660Y0073500D01*
X0237660Y0071000D01*
X0232660Y0061000D02*
X0217660Y0061000D01*
X0217660Y0123500D02*
X0217660Y0133500D01*
X0220160Y0133500D01*
X0232660Y0133500D02*
X0237660Y0133500D01*
X0237660Y0123500D01*
X0217660Y0123500D01*
D15*
X0148660Y0115000D02*
X0148660Y0147000D01*
X0147660Y0147000D02*
X0147660Y0116000D01*
X0157660Y0075000D02*
X0157660Y0057000D01*
X0156660Y0057000D02*
X0156660Y0074000D01*
D16*
X0175979Y0065862D02*
X0178341Y0065862D01*
X0178341Y0061138D02*
X0175979Y0061138D01*
X0130022Y0069819D02*
X0130022Y0072181D01*
X0125298Y0072181D02*
X0125298Y0069819D01*
X0151479Y0088638D02*
X0153841Y0088638D01*
X0153841Y0093362D02*
X0151479Y0093362D01*
X0151979Y0107138D02*
X0154341Y0107138D01*
X0154341Y0111862D02*
X0151979Y0111862D01*
X0116341Y0128638D02*
X0113979Y0128638D01*
X0113979Y0133362D02*
X0116341Y0133362D01*
X0091341Y0131138D02*
X0088979Y0131138D01*
X0088979Y0135862D02*
X0091341Y0135862D01*
X0068841Y0130862D02*
X0066479Y0130862D01*
X0066479Y0126138D02*
X0068841Y0126138D01*
X0068841Y0115862D02*
X0066479Y0115862D01*
X0066479Y0111138D02*
X0068841Y0111138D01*
X0068841Y0100862D02*
X0066479Y0100862D01*
X0066479Y0096138D02*
X0068841Y0096138D01*
X0068841Y0080862D02*
X0066479Y0080862D01*
X0066479Y0076138D02*
X0068841Y0076138D01*
X0068841Y0060862D02*
X0066479Y0060862D01*
X0066479Y0056138D02*
X0068841Y0056138D01*
X0068841Y0040862D02*
X0066479Y0040862D01*
X0066479Y0036138D02*
X0068841Y0036138D01*
X0068841Y0020862D02*
X0066479Y0020862D01*
X0066479Y0016138D02*
X0068841Y0016138D01*
X0226479Y0015862D02*
X0228841Y0015862D01*
X0228841Y0011138D02*
X0226479Y0011138D01*
X0226479Y0026138D02*
X0228841Y0026138D01*
X0228841Y0030862D02*
X0226479Y0030862D01*
X0226479Y0041138D02*
X0228841Y0041138D01*
X0228841Y0045862D02*
X0226479Y0045862D01*
X0226479Y0066138D02*
X0228841Y0066138D01*
X0228841Y0070862D02*
X0226479Y0070862D01*
X0226479Y0086138D02*
X0228841Y0086138D01*
X0228841Y0090862D02*
X0226479Y0090862D01*
X0226341Y0106138D02*
X0223979Y0106138D01*
X0223979Y0110862D02*
X0226341Y0110862D01*
X0226479Y0126138D02*
X0228841Y0126138D01*
X0228841Y0130862D02*
X0226479Y0130862D01*
X0203841Y0130862D02*
X0201479Y0130862D01*
X0201479Y0126138D02*
X0203841Y0126138D01*
X0147522Y0167319D02*
X0147522Y0169681D01*
X0142798Y0169681D02*
X0142798Y0167319D01*
X0068841Y0160862D02*
X0066479Y0160862D01*
X0066479Y0156138D02*
X0068841Y0156138D01*
X0068841Y0145862D02*
X0066479Y0145862D01*
X0066479Y0141138D02*
X0068841Y0141138D01*
X0068841Y0176138D02*
X0066479Y0176138D01*
X0066479Y0180862D02*
X0068841Y0180862D01*
X0217660Y0183500D02*
X0220160Y0186000D01*
X0235160Y0186000D01*
X0237660Y0183500D01*
X0362479Y0144362D02*
X0364841Y0144362D01*
X0364841Y0139638D02*
X0362479Y0139638D01*
X0362479Y0134362D02*
X0364841Y0134362D01*
X0364841Y0129638D02*
X0362479Y0129638D01*
X0354022Y0012181D02*
X0354022Y0009819D01*
X0349298Y0009819D02*
X0349298Y0012181D01*
D17*
X0240160Y0136000D02*
X0215160Y0136000D01*
D18*
X0238612Y0150274D02*
X0238612Y0151942D01*
X0239029Y0152359D01*
X0240280Y0152359D01*
X0240280Y0149857D01*
X0239029Y0149857D01*
X0238612Y0150274D01*
X0241374Y0149857D02*
X0241374Y0152359D01*
X0243042Y0152359D02*
X0241374Y0149857D01*
X0243042Y0149857D02*
X0243042Y0152359D01*
X0244136Y0151942D02*
X0244553Y0152359D01*
X0245387Y0152359D01*
X0245804Y0151942D01*
X0245804Y0150274D01*
X0245387Y0149857D01*
X0244553Y0149857D01*
X0244136Y0150274D01*
X0244136Y0151108D01*
X0244970Y0151108D01*
X0245280Y0159784D02*
X0244446Y0159784D01*
X0244029Y0160201D01*
X0244029Y0161035D01*
X0244863Y0161035D01*
X0245697Y0161869D02*
X0245697Y0160201D01*
X0245280Y0159784D01*
X0245697Y0161869D02*
X0245280Y0162286D01*
X0244446Y0162286D01*
X0244029Y0161869D01*
X0242935Y0162286D02*
X0241266Y0159784D01*
X0241266Y0162286D01*
X0240172Y0162286D02*
X0240172Y0159784D01*
X0238921Y0159784D01*
X0238504Y0160201D01*
X0238504Y0161869D01*
X0238921Y0162286D01*
X0240172Y0162286D01*
X0242935Y0162286D02*
X0242935Y0159784D01*
X0242827Y0169711D02*
X0242827Y0172213D01*
X0241159Y0169711D01*
X0241159Y0172213D01*
X0240065Y0172213D02*
X0240065Y0169711D01*
X0238814Y0169711D01*
X0238397Y0170128D01*
X0238397Y0171796D01*
X0238814Y0172213D01*
X0240065Y0172213D01*
X0243921Y0171796D02*
X0244338Y0172213D01*
X0245173Y0172213D01*
X0245590Y0171796D01*
X0245590Y0170128D01*
X0245173Y0169711D01*
X0244338Y0169711D01*
X0243921Y0170128D01*
X0243921Y0170962D01*
X0244755Y0170962D01*
D19*
X0240007Y0179337D02*
X0240007Y0182740D01*
X0241708Y0181039D02*
X0238305Y0181039D01*
X0239332Y0141001D02*
X0242735Y0141001D01*
M02*
