G75*
%MOIN*%
%OFA0B0*%
%FSLAX25Y25*%
%IPPOS*%
%LPD*%
%AMOC8*
5,1,8,0,0,1.08239X$1,22.5*
%
%ADD10C,0.00000*%
D10*
X0002660Y0001000D02*
X0002660Y0195961D01*
X0393861Y0195961D01*
X0393861Y0001000D01*
X0002660Y0001000D01*
X0003861Y0063500D02*
X0003863Y0063658D01*
X0003869Y0063816D01*
X0003879Y0063974D01*
X0003893Y0064132D01*
X0003911Y0064289D01*
X0003932Y0064446D01*
X0003958Y0064602D01*
X0003988Y0064758D01*
X0004021Y0064913D01*
X0004059Y0065066D01*
X0004100Y0065219D01*
X0004145Y0065371D01*
X0004194Y0065522D01*
X0004247Y0065671D01*
X0004303Y0065819D01*
X0004363Y0065965D01*
X0004427Y0066110D01*
X0004495Y0066253D01*
X0004566Y0066395D01*
X0004640Y0066535D01*
X0004718Y0066672D01*
X0004800Y0066808D01*
X0004884Y0066942D01*
X0004973Y0067073D01*
X0005064Y0067202D01*
X0005159Y0067329D01*
X0005256Y0067454D01*
X0005357Y0067576D01*
X0005461Y0067695D01*
X0005568Y0067812D01*
X0005678Y0067926D01*
X0005791Y0068037D01*
X0005906Y0068146D01*
X0006024Y0068251D01*
X0006145Y0068353D01*
X0006268Y0068453D01*
X0006394Y0068549D01*
X0006522Y0068642D01*
X0006652Y0068732D01*
X0006785Y0068818D01*
X0006920Y0068902D01*
X0007056Y0068981D01*
X0007195Y0069058D01*
X0007336Y0069130D01*
X0007478Y0069200D01*
X0007622Y0069265D01*
X0007768Y0069327D01*
X0007915Y0069385D01*
X0008064Y0069440D01*
X0008214Y0069491D01*
X0008365Y0069538D01*
X0008517Y0069581D01*
X0008670Y0069620D01*
X0008825Y0069656D01*
X0008980Y0069687D01*
X0009136Y0069715D01*
X0009292Y0069739D01*
X0009449Y0069759D01*
X0009607Y0069775D01*
X0009764Y0069787D01*
X0009923Y0069795D01*
X0010081Y0069799D01*
X0010239Y0069799D01*
X0010397Y0069795D01*
X0010556Y0069787D01*
X0010713Y0069775D01*
X0010871Y0069759D01*
X0011028Y0069739D01*
X0011184Y0069715D01*
X0011340Y0069687D01*
X0011495Y0069656D01*
X0011650Y0069620D01*
X0011803Y0069581D01*
X0011955Y0069538D01*
X0012106Y0069491D01*
X0012256Y0069440D01*
X0012405Y0069385D01*
X0012552Y0069327D01*
X0012698Y0069265D01*
X0012842Y0069200D01*
X0012984Y0069130D01*
X0013125Y0069058D01*
X0013264Y0068981D01*
X0013400Y0068902D01*
X0013535Y0068818D01*
X0013668Y0068732D01*
X0013798Y0068642D01*
X0013926Y0068549D01*
X0014052Y0068453D01*
X0014175Y0068353D01*
X0014296Y0068251D01*
X0014414Y0068146D01*
X0014529Y0068037D01*
X0014642Y0067926D01*
X0014752Y0067812D01*
X0014859Y0067695D01*
X0014963Y0067576D01*
X0015064Y0067454D01*
X0015161Y0067329D01*
X0015256Y0067202D01*
X0015347Y0067073D01*
X0015436Y0066942D01*
X0015520Y0066808D01*
X0015602Y0066672D01*
X0015680Y0066535D01*
X0015754Y0066395D01*
X0015825Y0066253D01*
X0015893Y0066110D01*
X0015957Y0065965D01*
X0016017Y0065819D01*
X0016073Y0065671D01*
X0016126Y0065522D01*
X0016175Y0065371D01*
X0016220Y0065219D01*
X0016261Y0065066D01*
X0016299Y0064913D01*
X0016332Y0064758D01*
X0016362Y0064602D01*
X0016388Y0064446D01*
X0016409Y0064289D01*
X0016427Y0064132D01*
X0016441Y0063974D01*
X0016451Y0063816D01*
X0016457Y0063658D01*
X0016459Y0063500D01*
X0016457Y0063342D01*
X0016451Y0063184D01*
X0016441Y0063026D01*
X0016427Y0062868D01*
X0016409Y0062711D01*
X0016388Y0062554D01*
X0016362Y0062398D01*
X0016332Y0062242D01*
X0016299Y0062087D01*
X0016261Y0061934D01*
X0016220Y0061781D01*
X0016175Y0061629D01*
X0016126Y0061478D01*
X0016073Y0061329D01*
X0016017Y0061181D01*
X0015957Y0061035D01*
X0015893Y0060890D01*
X0015825Y0060747D01*
X0015754Y0060605D01*
X0015680Y0060465D01*
X0015602Y0060328D01*
X0015520Y0060192D01*
X0015436Y0060058D01*
X0015347Y0059927D01*
X0015256Y0059798D01*
X0015161Y0059671D01*
X0015064Y0059546D01*
X0014963Y0059424D01*
X0014859Y0059305D01*
X0014752Y0059188D01*
X0014642Y0059074D01*
X0014529Y0058963D01*
X0014414Y0058854D01*
X0014296Y0058749D01*
X0014175Y0058647D01*
X0014052Y0058547D01*
X0013926Y0058451D01*
X0013798Y0058358D01*
X0013668Y0058268D01*
X0013535Y0058182D01*
X0013400Y0058098D01*
X0013264Y0058019D01*
X0013125Y0057942D01*
X0012984Y0057870D01*
X0012842Y0057800D01*
X0012698Y0057735D01*
X0012552Y0057673D01*
X0012405Y0057615D01*
X0012256Y0057560D01*
X0012106Y0057509D01*
X0011955Y0057462D01*
X0011803Y0057419D01*
X0011650Y0057380D01*
X0011495Y0057344D01*
X0011340Y0057313D01*
X0011184Y0057285D01*
X0011028Y0057261D01*
X0010871Y0057241D01*
X0010713Y0057225D01*
X0010556Y0057213D01*
X0010397Y0057205D01*
X0010239Y0057201D01*
X0010081Y0057201D01*
X0009923Y0057205D01*
X0009764Y0057213D01*
X0009607Y0057225D01*
X0009449Y0057241D01*
X0009292Y0057261D01*
X0009136Y0057285D01*
X0008980Y0057313D01*
X0008825Y0057344D01*
X0008670Y0057380D01*
X0008517Y0057419D01*
X0008365Y0057462D01*
X0008214Y0057509D01*
X0008064Y0057560D01*
X0007915Y0057615D01*
X0007768Y0057673D01*
X0007622Y0057735D01*
X0007478Y0057800D01*
X0007336Y0057870D01*
X0007195Y0057942D01*
X0007056Y0058019D01*
X0006920Y0058098D01*
X0006785Y0058182D01*
X0006652Y0058268D01*
X0006522Y0058358D01*
X0006394Y0058451D01*
X0006268Y0058547D01*
X0006145Y0058647D01*
X0006024Y0058749D01*
X0005906Y0058854D01*
X0005791Y0058963D01*
X0005678Y0059074D01*
X0005568Y0059188D01*
X0005461Y0059305D01*
X0005357Y0059424D01*
X0005256Y0059546D01*
X0005159Y0059671D01*
X0005064Y0059798D01*
X0004973Y0059927D01*
X0004884Y0060058D01*
X0004800Y0060192D01*
X0004718Y0060328D01*
X0004640Y0060465D01*
X0004566Y0060605D01*
X0004495Y0060747D01*
X0004427Y0060890D01*
X0004363Y0061035D01*
X0004303Y0061181D01*
X0004247Y0061329D01*
X0004194Y0061478D01*
X0004145Y0061629D01*
X0004100Y0061781D01*
X0004059Y0061934D01*
X0004021Y0062087D01*
X0003988Y0062242D01*
X0003958Y0062398D01*
X0003932Y0062554D01*
X0003911Y0062711D01*
X0003893Y0062868D01*
X0003879Y0063026D01*
X0003869Y0063184D01*
X0003863Y0063342D01*
X0003861Y0063500D01*
X0003861Y0131000D02*
X0003863Y0131158D01*
X0003869Y0131316D01*
X0003879Y0131474D01*
X0003893Y0131632D01*
X0003911Y0131789D01*
X0003932Y0131946D01*
X0003958Y0132102D01*
X0003988Y0132258D01*
X0004021Y0132413D01*
X0004059Y0132566D01*
X0004100Y0132719D01*
X0004145Y0132871D01*
X0004194Y0133022D01*
X0004247Y0133171D01*
X0004303Y0133319D01*
X0004363Y0133465D01*
X0004427Y0133610D01*
X0004495Y0133753D01*
X0004566Y0133895D01*
X0004640Y0134035D01*
X0004718Y0134172D01*
X0004800Y0134308D01*
X0004884Y0134442D01*
X0004973Y0134573D01*
X0005064Y0134702D01*
X0005159Y0134829D01*
X0005256Y0134954D01*
X0005357Y0135076D01*
X0005461Y0135195D01*
X0005568Y0135312D01*
X0005678Y0135426D01*
X0005791Y0135537D01*
X0005906Y0135646D01*
X0006024Y0135751D01*
X0006145Y0135853D01*
X0006268Y0135953D01*
X0006394Y0136049D01*
X0006522Y0136142D01*
X0006652Y0136232D01*
X0006785Y0136318D01*
X0006920Y0136402D01*
X0007056Y0136481D01*
X0007195Y0136558D01*
X0007336Y0136630D01*
X0007478Y0136700D01*
X0007622Y0136765D01*
X0007768Y0136827D01*
X0007915Y0136885D01*
X0008064Y0136940D01*
X0008214Y0136991D01*
X0008365Y0137038D01*
X0008517Y0137081D01*
X0008670Y0137120D01*
X0008825Y0137156D01*
X0008980Y0137187D01*
X0009136Y0137215D01*
X0009292Y0137239D01*
X0009449Y0137259D01*
X0009607Y0137275D01*
X0009764Y0137287D01*
X0009923Y0137295D01*
X0010081Y0137299D01*
X0010239Y0137299D01*
X0010397Y0137295D01*
X0010556Y0137287D01*
X0010713Y0137275D01*
X0010871Y0137259D01*
X0011028Y0137239D01*
X0011184Y0137215D01*
X0011340Y0137187D01*
X0011495Y0137156D01*
X0011650Y0137120D01*
X0011803Y0137081D01*
X0011955Y0137038D01*
X0012106Y0136991D01*
X0012256Y0136940D01*
X0012405Y0136885D01*
X0012552Y0136827D01*
X0012698Y0136765D01*
X0012842Y0136700D01*
X0012984Y0136630D01*
X0013125Y0136558D01*
X0013264Y0136481D01*
X0013400Y0136402D01*
X0013535Y0136318D01*
X0013668Y0136232D01*
X0013798Y0136142D01*
X0013926Y0136049D01*
X0014052Y0135953D01*
X0014175Y0135853D01*
X0014296Y0135751D01*
X0014414Y0135646D01*
X0014529Y0135537D01*
X0014642Y0135426D01*
X0014752Y0135312D01*
X0014859Y0135195D01*
X0014963Y0135076D01*
X0015064Y0134954D01*
X0015161Y0134829D01*
X0015256Y0134702D01*
X0015347Y0134573D01*
X0015436Y0134442D01*
X0015520Y0134308D01*
X0015602Y0134172D01*
X0015680Y0134035D01*
X0015754Y0133895D01*
X0015825Y0133753D01*
X0015893Y0133610D01*
X0015957Y0133465D01*
X0016017Y0133319D01*
X0016073Y0133171D01*
X0016126Y0133022D01*
X0016175Y0132871D01*
X0016220Y0132719D01*
X0016261Y0132566D01*
X0016299Y0132413D01*
X0016332Y0132258D01*
X0016362Y0132102D01*
X0016388Y0131946D01*
X0016409Y0131789D01*
X0016427Y0131632D01*
X0016441Y0131474D01*
X0016451Y0131316D01*
X0016457Y0131158D01*
X0016459Y0131000D01*
X0016457Y0130842D01*
X0016451Y0130684D01*
X0016441Y0130526D01*
X0016427Y0130368D01*
X0016409Y0130211D01*
X0016388Y0130054D01*
X0016362Y0129898D01*
X0016332Y0129742D01*
X0016299Y0129587D01*
X0016261Y0129434D01*
X0016220Y0129281D01*
X0016175Y0129129D01*
X0016126Y0128978D01*
X0016073Y0128829D01*
X0016017Y0128681D01*
X0015957Y0128535D01*
X0015893Y0128390D01*
X0015825Y0128247D01*
X0015754Y0128105D01*
X0015680Y0127965D01*
X0015602Y0127828D01*
X0015520Y0127692D01*
X0015436Y0127558D01*
X0015347Y0127427D01*
X0015256Y0127298D01*
X0015161Y0127171D01*
X0015064Y0127046D01*
X0014963Y0126924D01*
X0014859Y0126805D01*
X0014752Y0126688D01*
X0014642Y0126574D01*
X0014529Y0126463D01*
X0014414Y0126354D01*
X0014296Y0126249D01*
X0014175Y0126147D01*
X0014052Y0126047D01*
X0013926Y0125951D01*
X0013798Y0125858D01*
X0013668Y0125768D01*
X0013535Y0125682D01*
X0013400Y0125598D01*
X0013264Y0125519D01*
X0013125Y0125442D01*
X0012984Y0125370D01*
X0012842Y0125300D01*
X0012698Y0125235D01*
X0012552Y0125173D01*
X0012405Y0125115D01*
X0012256Y0125060D01*
X0012106Y0125009D01*
X0011955Y0124962D01*
X0011803Y0124919D01*
X0011650Y0124880D01*
X0011495Y0124844D01*
X0011340Y0124813D01*
X0011184Y0124785D01*
X0011028Y0124761D01*
X0010871Y0124741D01*
X0010713Y0124725D01*
X0010556Y0124713D01*
X0010397Y0124705D01*
X0010239Y0124701D01*
X0010081Y0124701D01*
X0009923Y0124705D01*
X0009764Y0124713D01*
X0009607Y0124725D01*
X0009449Y0124741D01*
X0009292Y0124761D01*
X0009136Y0124785D01*
X0008980Y0124813D01*
X0008825Y0124844D01*
X0008670Y0124880D01*
X0008517Y0124919D01*
X0008365Y0124962D01*
X0008214Y0125009D01*
X0008064Y0125060D01*
X0007915Y0125115D01*
X0007768Y0125173D01*
X0007622Y0125235D01*
X0007478Y0125300D01*
X0007336Y0125370D01*
X0007195Y0125442D01*
X0007056Y0125519D01*
X0006920Y0125598D01*
X0006785Y0125682D01*
X0006652Y0125768D01*
X0006522Y0125858D01*
X0006394Y0125951D01*
X0006268Y0126047D01*
X0006145Y0126147D01*
X0006024Y0126249D01*
X0005906Y0126354D01*
X0005791Y0126463D01*
X0005678Y0126574D01*
X0005568Y0126688D01*
X0005461Y0126805D01*
X0005357Y0126924D01*
X0005256Y0127046D01*
X0005159Y0127171D01*
X0005064Y0127298D01*
X0004973Y0127427D01*
X0004884Y0127558D01*
X0004800Y0127692D01*
X0004718Y0127828D01*
X0004640Y0127965D01*
X0004566Y0128105D01*
X0004495Y0128247D01*
X0004427Y0128390D01*
X0004363Y0128535D01*
X0004303Y0128681D01*
X0004247Y0128829D01*
X0004194Y0128978D01*
X0004145Y0129129D01*
X0004100Y0129281D01*
X0004059Y0129434D01*
X0004021Y0129587D01*
X0003988Y0129742D01*
X0003958Y0129898D01*
X0003932Y0130054D01*
X0003911Y0130211D01*
X0003893Y0130368D01*
X0003879Y0130526D01*
X0003869Y0130684D01*
X0003863Y0130842D01*
X0003861Y0131000D01*
M02*
