%
M48
M72
T01C0.01400
T02C0.02362
T03C0.02756
T04C0.04000
T05C0.04331
T06C0.04400
T07C0.08268
T08C0.12598
%
T01
X82035Y136625
X116410Y122250
X135160Y142875
X148260Y151400
X194535Y127875
X242660Y129125
X253910Y164125
X123910Y89750
X139535Y83500
X149535Y73500
X117860Y74600
X78910Y78500
T02
X10160Y178500
X35160Y163500
X47660Y188500
X79660Y189500
X137660Y176000
X147660Y181000
X160160Y176000
X152660Y158500
X142660Y153000
X165160Y156000
X135160Y138500
X125160Y131000
X125160Y126000
X134660Y128000
X154160Y131000
X168160Y125000
X180160Y133500
X192660Y123500
X192660Y117000
X192660Y111000
X197660Y101000
X187660Y101000
X178660Y102000
X180160Y96000
X165160Y96000
X162160Y91000
X157660Y98000
X148660Y100000
X145160Y106000
X140160Y93500
X157660Y81000
X169660Y79000
X170160Y86500
X192660Y76000
X197660Y71000
X207660Y73000
X213660Y76000
X208660Y82000
X185660Y71000
X192660Y66000
X181660Y59000
X169660Y55000
X172660Y43000
X157660Y42000
X149660Y42000
X142660Y41000
X128660Y49000
X142660Y51000
X123660Y62000
X107660Y61000
X102660Y61000
X87660Y61000
X95160Y68500
X77660Y86000
X52660Y81000
X36660Y97000
X20160Y98500
X30160Y133500
X60160Y136000
X77660Y141000
X85160Y121000
X117660Y111000
X117660Y106000
X117660Y141000
X120160Y151000
X196660Y178000
X197660Y186000
X206660Y188000
X237660Y176000
X245160Y166000
X272660Y173500
X297660Y186000
X248660Y188000
X202660Y158500
X211660Y146000
X210160Y116000
X232660Y116000
X247660Y96000
X230160Y78500
X280160Y76000
X289660Y66000
X298160Y61500
X298160Y51500
X280160Y49500
X280160Y43500
X238160Y41500
X238160Y35500
X217160Y51500
X167660Y31000
X157660Y31000
X147660Y31000
X117660Y31000
X117660Y36000
X92660Y11000
X52660Y11000
X33160Y29000
X12660Y31000
X152660Y69000
X275160Y8500
X280160Y23500
X312660Y11000
X385160Y8500
X337660Y51000
X352660Y51500
X382660Y63500
X337660Y101000
X382660Y128500
X340160Y146000
X354660Y181000
X355160Y186000
T03
X40160Y133500
X50160Y133500
X42660Y66000
X52660Y66000
T04
X222660Y141000
X232660Y141000
X232660Y151000
X222660Y151000
X222660Y161000
X232660Y161000
X232660Y171000
X222660Y171000
X222660Y181000
X232660Y181000
T05
X50219Y175843
X50219Y166000
X50219Y156157
X50219Y108343
X50219Y98500
X50219Y88657
X50219Y40843
X50219Y31000
X50219Y21157
X130219Y21157
X130219Y31000
X130219Y40843
X210219Y38343
X210219Y28500
X210219Y18657
X290219Y21157
X307975Y26000
X290219Y31000
X290219Y40843
X341439Y26000
X353250Y26000
X375160Y39780
X375160Y51591
X375160Y72909
X375160Y84720
X353250Y73500
X341439Y73500
X307975Y73500
X290219Y88657
X290219Y98500
X290219Y108343
X307975Y123500
X341439Y123500
X353250Y123500
X375160Y118185
X375160Y145409
X375160Y157220
X353250Y171000
X341439Y171000
X307975Y171000
X290219Y175843
X290219Y166000
X290219Y156157
X210219Y156157
X210219Y166000
X210219Y175843
X130219Y175843
X130219Y166000
X130219Y156157
X130219Y108343
X130219Y98500
X130219Y88657
X210219Y88657
X210219Y98500
X210219Y108343
X375160Y190685
X375160Y6315
T06
X237660Y66000
X277660Y66000
X290160Y133500
X250160Y133500
T07
X22660Y183717
X22660Y148283
X22660Y116217
X22660Y80783
X22660Y48717
X22660Y13283
X102660Y13283
X102660Y48717
X102660Y80783
X102660Y116217
X102660Y148283
X102660Y183717
X182660Y183717
X182660Y148283
X182660Y116217
X182660Y80783
X182660Y46217
X182660Y10783
X262660Y13283
X262660Y48717
X262660Y80783
X262660Y116217
X262660Y148283
X262660Y183717
T08
X10160Y131000
X10160Y63500
M30
