G75*
%MOIN*%
%OFA0B0*%
%FSLAX25Y25*%
%IPPOS*%
%LPD*%
%AMOC8*
5,1,8,0,0,1.08239X$1,22.5*
%
%ADD10C,0.00000*%
%ADD11R,0.06496X0.06496*%
%ADD12OC8,0.06496*%
%ADD13R,0.12268X0.12268*%
%ADD14R,0.06500X0.06500*%
%ADD15C,0.06500*%
%ADD16C,0.06600*%
%ADD17C,0.06496*%
%ADD18OC8,0.06000*%
%ADD19C,0.02400*%
%ADD20C,0.03562*%
%ADD21C,0.01000*%
%ADD22C,0.01600*%
%ADD23C,0.01200*%
%ADD24C,0.02600*%
%ADD25C,0.01400*%
%ADD26R,0.03562X0.03562*%
D10*
X0002660Y0001000D02*
X0002660Y0195961D01*
X0393861Y0195961D01*
X0393861Y0001000D01*
X0002660Y0001000D01*
X0003861Y0063500D02*
X0003863Y0063658D01*
X0003869Y0063816D01*
X0003879Y0063974D01*
X0003893Y0064132D01*
X0003911Y0064289D01*
X0003932Y0064446D01*
X0003958Y0064602D01*
X0003988Y0064758D01*
X0004021Y0064913D01*
X0004059Y0065066D01*
X0004100Y0065219D01*
X0004145Y0065371D01*
X0004194Y0065522D01*
X0004247Y0065671D01*
X0004303Y0065819D01*
X0004363Y0065965D01*
X0004427Y0066110D01*
X0004495Y0066253D01*
X0004566Y0066395D01*
X0004640Y0066535D01*
X0004718Y0066672D01*
X0004800Y0066808D01*
X0004884Y0066942D01*
X0004973Y0067073D01*
X0005064Y0067202D01*
X0005159Y0067329D01*
X0005256Y0067454D01*
X0005357Y0067576D01*
X0005461Y0067695D01*
X0005568Y0067812D01*
X0005678Y0067926D01*
X0005791Y0068037D01*
X0005906Y0068146D01*
X0006024Y0068251D01*
X0006145Y0068353D01*
X0006268Y0068453D01*
X0006394Y0068549D01*
X0006522Y0068642D01*
X0006652Y0068732D01*
X0006785Y0068818D01*
X0006920Y0068902D01*
X0007056Y0068981D01*
X0007195Y0069058D01*
X0007336Y0069130D01*
X0007478Y0069200D01*
X0007622Y0069265D01*
X0007768Y0069327D01*
X0007915Y0069385D01*
X0008064Y0069440D01*
X0008214Y0069491D01*
X0008365Y0069538D01*
X0008517Y0069581D01*
X0008670Y0069620D01*
X0008825Y0069656D01*
X0008980Y0069687D01*
X0009136Y0069715D01*
X0009292Y0069739D01*
X0009449Y0069759D01*
X0009607Y0069775D01*
X0009764Y0069787D01*
X0009923Y0069795D01*
X0010081Y0069799D01*
X0010239Y0069799D01*
X0010397Y0069795D01*
X0010556Y0069787D01*
X0010713Y0069775D01*
X0010871Y0069759D01*
X0011028Y0069739D01*
X0011184Y0069715D01*
X0011340Y0069687D01*
X0011495Y0069656D01*
X0011650Y0069620D01*
X0011803Y0069581D01*
X0011955Y0069538D01*
X0012106Y0069491D01*
X0012256Y0069440D01*
X0012405Y0069385D01*
X0012552Y0069327D01*
X0012698Y0069265D01*
X0012842Y0069200D01*
X0012984Y0069130D01*
X0013125Y0069058D01*
X0013264Y0068981D01*
X0013400Y0068902D01*
X0013535Y0068818D01*
X0013668Y0068732D01*
X0013798Y0068642D01*
X0013926Y0068549D01*
X0014052Y0068453D01*
X0014175Y0068353D01*
X0014296Y0068251D01*
X0014414Y0068146D01*
X0014529Y0068037D01*
X0014642Y0067926D01*
X0014752Y0067812D01*
X0014859Y0067695D01*
X0014963Y0067576D01*
X0015064Y0067454D01*
X0015161Y0067329D01*
X0015256Y0067202D01*
X0015347Y0067073D01*
X0015436Y0066942D01*
X0015520Y0066808D01*
X0015602Y0066672D01*
X0015680Y0066535D01*
X0015754Y0066395D01*
X0015825Y0066253D01*
X0015893Y0066110D01*
X0015957Y0065965D01*
X0016017Y0065819D01*
X0016073Y0065671D01*
X0016126Y0065522D01*
X0016175Y0065371D01*
X0016220Y0065219D01*
X0016261Y0065066D01*
X0016299Y0064913D01*
X0016332Y0064758D01*
X0016362Y0064602D01*
X0016388Y0064446D01*
X0016409Y0064289D01*
X0016427Y0064132D01*
X0016441Y0063974D01*
X0016451Y0063816D01*
X0016457Y0063658D01*
X0016459Y0063500D01*
X0016457Y0063342D01*
X0016451Y0063184D01*
X0016441Y0063026D01*
X0016427Y0062868D01*
X0016409Y0062711D01*
X0016388Y0062554D01*
X0016362Y0062398D01*
X0016332Y0062242D01*
X0016299Y0062087D01*
X0016261Y0061934D01*
X0016220Y0061781D01*
X0016175Y0061629D01*
X0016126Y0061478D01*
X0016073Y0061329D01*
X0016017Y0061181D01*
X0015957Y0061035D01*
X0015893Y0060890D01*
X0015825Y0060747D01*
X0015754Y0060605D01*
X0015680Y0060465D01*
X0015602Y0060328D01*
X0015520Y0060192D01*
X0015436Y0060058D01*
X0015347Y0059927D01*
X0015256Y0059798D01*
X0015161Y0059671D01*
X0015064Y0059546D01*
X0014963Y0059424D01*
X0014859Y0059305D01*
X0014752Y0059188D01*
X0014642Y0059074D01*
X0014529Y0058963D01*
X0014414Y0058854D01*
X0014296Y0058749D01*
X0014175Y0058647D01*
X0014052Y0058547D01*
X0013926Y0058451D01*
X0013798Y0058358D01*
X0013668Y0058268D01*
X0013535Y0058182D01*
X0013400Y0058098D01*
X0013264Y0058019D01*
X0013125Y0057942D01*
X0012984Y0057870D01*
X0012842Y0057800D01*
X0012698Y0057735D01*
X0012552Y0057673D01*
X0012405Y0057615D01*
X0012256Y0057560D01*
X0012106Y0057509D01*
X0011955Y0057462D01*
X0011803Y0057419D01*
X0011650Y0057380D01*
X0011495Y0057344D01*
X0011340Y0057313D01*
X0011184Y0057285D01*
X0011028Y0057261D01*
X0010871Y0057241D01*
X0010713Y0057225D01*
X0010556Y0057213D01*
X0010397Y0057205D01*
X0010239Y0057201D01*
X0010081Y0057201D01*
X0009923Y0057205D01*
X0009764Y0057213D01*
X0009607Y0057225D01*
X0009449Y0057241D01*
X0009292Y0057261D01*
X0009136Y0057285D01*
X0008980Y0057313D01*
X0008825Y0057344D01*
X0008670Y0057380D01*
X0008517Y0057419D01*
X0008365Y0057462D01*
X0008214Y0057509D01*
X0008064Y0057560D01*
X0007915Y0057615D01*
X0007768Y0057673D01*
X0007622Y0057735D01*
X0007478Y0057800D01*
X0007336Y0057870D01*
X0007195Y0057942D01*
X0007056Y0058019D01*
X0006920Y0058098D01*
X0006785Y0058182D01*
X0006652Y0058268D01*
X0006522Y0058358D01*
X0006394Y0058451D01*
X0006268Y0058547D01*
X0006145Y0058647D01*
X0006024Y0058749D01*
X0005906Y0058854D01*
X0005791Y0058963D01*
X0005678Y0059074D01*
X0005568Y0059188D01*
X0005461Y0059305D01*
X0005357Y0059424D01*
X0005256Y0059546D01*
X0005159Y0059671D01*
X0005064Y0059798D01*
X0004973Y0059927D01*
X0004884Y0060058D01*
X0004800Y0060192D01*
X0004718Y0060328D01*
X0004640Y0060465D01*
X0004566Y0060605D01*
X0004495Y0060747D01*
X0004427Y0060890D01*
X0004363Y0061035D01*
X0004303Y0061181D01*
X0004247Y0061329D01*
X0004194Y0061478D01*
X0004145Y0061629D01*
X0004100Y0061781D01*
X0004059Y0061934D01*
X0004021Y0062087D01*
X0003988Y0062242D01*
X0003958Y0062398D01*
X0003932Y0062554D01*
X0003911Y0062711D01*
X0003893Y0062868D01*
X0003879Y0063026D01*
X0003869Y0063184D01*
X0003863Y0063342D01*
X0003861Y0063500D01*
X0003861Y0131000D02*
X0003863Y0131158D01*
X0003869Y0131316D01*
X0003879Y0131474D01*
X0003893Y0131632D01*
X0003911Y0131789D01*
X0003932Y0131946D01*
X0003958Y0132102D01*
X0003988Y0132258D01*
X0004021Y0132413D01*
X0004059Y0132566D01*
X0004100Y0132719D01*
X0004145Y0132871D01*
X0004194Y0133022D01*
X0004247Y0133171D01*
X0004303Y0133319D01*
X0004363Y0133465D01*
X0004427Y0133610D01*
X0004495Y0133753D01*
X0004566Y0133895D01*
X0004640Y0134035D01*
X0004718Y0134172D01*
X0004800Y0134308D01*
X0004884Y0134442D01*
X0004973Y0134573D01*
X0005064Y0134702D01*
X0005159Y0134829D01*
X0005256Y0134954D01*
X0005357Y0135076D01*
X0005461Y0135195D01*
X0005568Y0135312D01*
X0005678Y0135426D01*
X0005791Y0135537D01*
X0005906Y0135646D01*
X0006024Y0135751D01*
X0006145Y0135853D01*
X0006268Y0135953D01*
X0006394Y0136049D01*
X0006522Y0136142D01*
X0006652Y0136232D01*
X0006785Y0136318D01*
X0006920Y0136402D01*
X0007056Y0136481D01*
X0007195Y0136558D01*
X0007336Y0136630D01*
X0007478Y0136700D01*
X0007622Y0136765D01*
X0007768Y0136827D01*
X0007915Y0136885D01*
X0008064Y0136940D01*
X0008214Y0136991D01*
X0008365Y0137038D01*
X0008517Y0137081D01*
X0008670Y0137120D01*
X0008825Y0137156D01*
X0008980Y0137187D01*
X0009136Y0137215D01*
X0009292Y0137239D01*
X0009449Y0137259D01*
X0009607Y0137275D01*
X0009764Y0137287D01*
X0009923Y0137295D01*
X0010081Y0137299D01*
X0010239Y0137299D01*
X0010397Y0137295D01*
X0010556Y0137287D01*
X0010713Y0137275D01*
X0010871Y0137259D01*
X0011028Y0137239D01*
X0011184Y0137215D01*
X0011340Y0137187D01*
X0011495Y0137156D01*
X0011650Y0137120D01*
X0011803Y0137081D01*
X0011955Y0137038D01*
X0012106Y0136991D01*
X0012256Y0136940D01*
X0012405Y0136885D01*
X0012552Y0136827D01*
X0012698Y0136765D01*
X0012842Y0136700D01*
X0012984Y0136630D01*
X0013125Y0136558D01*
X0013264Y0136481D01*
X0013400Y0136402D01*
X0013535Y0136318D01*
X0013668Y0136232D01*
X0013798Y0136142D01*
X0013926Y0136049D01*
X0014052Y0135953D01*
X0014175Y0135853D01*
X0014296Y0135751D01*
X0014414Y0135646D01*
X0014529Y0135537D01*
X0014642Y0135426D01*
X0014752Y0135312D01*
X0014859Y0135195D01*
X0014963Y0135076D01*
X0015064Y0134954D01*
X0015161Y0134829D01*
X0015256Y0134702D01*
X0015347Y0134573D01*
X0015436Y0134442D01*
X0015520Y0134308D01*
X0015602Y0134172D01*
X0015680Y0134035D01*
X0015754Y0133895D01*
X0015825Y0133753D01*
X0015893Y0133610D01*
X0015957Y0133465D01*
X0016017Y0133319D01*
X0016073Y0133171D01*
X0016126Y0133022D01*
X0016175Y0132871D01*
X0016220Y0132719D01*
X0016261Y0132566D01*
X0016299Y0132413D01*
X0016332Y0132258D01*
X0016362Y0132102D01*
X0016388Y0131946D01*
X0016409Y0131789D01*
X0016427Y0131632D01*
X0016441Y0131474D01*
X0016451Y0131316D01*
X0016457Y0131158D01*
X0016459Y0131000D01*
X0016457Y0130842D01*
X0016451Y0130684D01*
X0016441Y0130526D01*
X0016427Y0130368D01*
X0016409Y0130211D01*
X0016388Y0130054D01*
X0016362Y0129898D01*
X0016332Y0129742D01*
X0016299Y0129587D01*
X0016261Y0129434D01*
X0016220Y0129281D01*
X0016175Y0129129D01*
X0016126Y0128978D01*
X0016073Y0128829D01*
X0016017Y0128681D01*
X0015957Y0128535D01*
X0015893Y0128390D01*
X0015825Y0128247D01*
X0015754Y0128105D01*
X0015680Y0127965D01*
X0015602Y0127828D01*
X0015520Y0127692D01*
X0015436Y0127558D01*
X0015347Y0127427D01*
X0015256Y0127298D01*
X0015161Y0127171D01*
X0015064Y0127046D01*
X0014963Y0126924D01*
X0014859Y0126805D01*
X0014752Y0126688D01*
X0014642Y0126574D01*
X0014529Y0126463D01*
X0014414Y0126354D01*
X0014296Y0126249D01*
X0014175Y0126147D01*
X0014052Y0126047D01*
X0013926Y0125951D01*
X0013798Y0125858D01*
X0013668Y0125768D01*
X0013535Y0125682D01*
X0013400Y0125598D01*
X0013264Y0125519D01*
X0013125Y0125442D01*
X0012984Y0125370D01*
X0012842Y0125300D01*
X0012698Y0125235D01*
X0012552Y0125173D01*
X0012405Y0125115D01*
X0012256Y0125060D01*
X0012106Y0125009D01*
X0011955Y0124962D01*
X0011803Y0124919D01*
X0011650Y0124880D01*
X0011495Y0124844D01*
X0011340Y0124813D01*
X0011184Y0124785D01*
X0011028Y0124761D01*
X0010871Y0124741D01*
X0010713Y0124725D01*
X0010556Y0124713D01*
X0010397Y0124705D01*
X0010239Y0124701D01*
X0010081Y0124701D01*
X0009923Y0124705D01*
X0009764Y0124713D01*
X0009607Y0124725D01*
X0009449Y0124741D01*
X0009292Y0124761D01*
X0009136Y0124785D01*
X0008980Y0124813D01*
X0008825Y0124844D01*
X0008670Y0124880D01*
X0008517Y0124919D01*
X0008365Y0124962D01*
X0008214Y0125009D01*
X0008064Y0125060D01*
X0007915Y0125115D01*
X0007768Y0125173D01*
X0007622Y0125235D01*
X0007478Y0125300D01*
X0007336Y0125370D01*
X0007195Y0125442D01*
X0007056Y0125519D01*
X0006920Y0125598D01*
X0006785Y0125682D01*
X0006652Y0125768D01*
X0006522Y0125858D01*
X0006394Y0125951D01*
X0006268Y0126047D01*
X0006145Y0126147D01*
X0006024Y0126249D01*
X0005906Y0126354D01*
X0005791Y0126463D01*
X0005678Y0126574D01*
X0005568Y0126688D01*
X0005461Y0126805D01*
X0005357Y0126924D01*
X0005256Y0127046D01*
X0005159Y0127171D01*
X0005064Y0127298D01*
X0004973Y0127427D01*
X0004884Y0127558D01*
X0004800Y0127692D01*
X0004718Y0127828D01*
X0004640Y0127965D01*
X0004566Y0128105D01*
X0004495Y0128247D01*
X0004427Y0128390D01*
X0004363Y0128535D01*
X0004303Y0128681D01*
X0004247Y0128829D01*
X0004194Y0128978D01*
X0004145Y0129129D01*
X0004100Y0129281D01*
X0004059Y0129434D01*
X0004021Y0129587D01*
X0003988Y0129742D01*
X0003958Y0129898D01*
X0003932Y0130054D01*
X0003911Y0130211D01*
X0003893Y0130368D01*
X0003879Y0130526D01*
X0003869Y0130684D01*
X0003863Y0130842D01*
X0003861Y0131000D01*
D11*
X0050219Y0156157D03*
X0130219Y0156157D03*
X0210219Y0156157D03*
X0290219Y0156157D03*
X0290219Y0088657D03*
X0210219Y0088657D03*
X0130219Y0088657D03*
X0050219Y0088657D03*
X0050219Y0021157D03*
X0130219Y0021157D03*
X0210219Y0018657D03*
X0290219Y0021157D03*
D12*
X0290219Y0031000D03*
X0290219Y0040843D03*
X0210219Y0038343D03*
X0210219Y0028500D03*
X0130219Y0031000D03*
X0130219Y0040843D03*
X0050219Y0040843D03*
X0050219Y0031000D03*
X0050219Y0098500D03*
X0050219Y0108343D03*
X0130219Y0108343D03*
X0130219Y0098500D03*
X0210219Y0098500D03*
X0210219Y0108343D03*
X0290219Y0108343D03*
X0290219Y0098500D03*
X0290219Y0166000D03*
X0290219Y0175843D03*
X0210219Y0175843D03*
X0210219Y0166000D03*
X0130219Y0166000D03*
X0130219Y0175843D03*
X0050219Y0175843D03*
X0050219Y0166000D03*
D13*
X0022660Y0148283D03*
X0022660Y0116217D03*
X0022660Y0080783D03*
X0022660Y0048717D03*
X0022660Y0013283D03*
X0102660Y0013283D03*
X0102660Y0048717D03*
X0102660Y0080783D03*
X0102660Y0116217D03*
X0102660Y0148283D03*
X0102660Y0183717D03*
X0022660Y0183717D03*
X0182660Y0183717D03*
X0182660Y0148283D03*
X0182660Y0116217D03*
X0182660Y0080783D03*
X0182660Y0046217D03*
X0182660Y0010783D03*
X0262660Y0013283D03*
X0262660Y0048717D03*
X0262660Y0080783D03*
X0262660Y0116217D03*
X0262660Y0148283D03*
X0262660Y0183717D03*
D14*
X0050160Y0133500D03*
X0052660Y0066000D03*
D15*
X0042660Y0066000D03*
X0040160Y0133500D03*
D16*
X0237660Y0066000D03*
X0277660Y0066000D03*
X0290160Y0133500D03*
X0250160Y0133500D03*
D17*
X0307975Y0123500D03*
X0341439Y0123500D03*
X0353250Y0123500D03*
X0375160Y0118185D03*
X0375160Y0145409D03*
X0375160Y0157220D03*
X0353250Y0171000D03*
X0341439Y0171000D03*
X0307975Y0171000D03*
X0375160Y0190685D03*
X0375160Y0084720D03*
X0375160Y0072909D03*
X0353250Y0073500D03*
X0341439Y0073500D03*
X0307975Y0073500D03*
X0375160Y0051591D03*
X0375160Y0039780D03*
X0353250Y0026000D03*
X0341439Y0026000D03*
X0307975Y0026000D03*
X0375160Y0006315D03*
D18*
X0232660Y0141000D03*
X0222660Y0141000D03*
X0222660Y0151000D03*
X0232660Y0151000D03*
X0232660Y0161000D03*
X0222660Y0161000D03*
X0222660Y0171000D03*
X0232660Y0171000D03*
X0232660Y0181000D03*
X0222660Y0181000D03*
D19*
X0232660Y0181000D01*
X0242660Y0181000D01*
X0257660Y0166000D01*
X0262660Y0166000D01*
X0287660Y0141000D01*
X0287660Y0136000D01*
X0290160Y0133500D01*
X0284660Y0132918D02*
X0255660Y0132918D01*
X0255660Y0132406D02*
X0255660Y0134594D01*
X0254823Y0136615D01*
X0253275Y0138163D01*
X0251254Y0139000D01*
X0249066Y0139000D01*
X0247044Y0138163D01*
X0245497Y0136615D01*
X0245460Y0136525D01*
X0245460Y0151715D01*
X0254370Y0160625D01*
X0254606Y0160625D01*
X0255892Y0161158D01*
X0256877Y0162142D01*
X0257067Y0162600D01*
X0261252Y0162600D01*
X0267234Y0156617D01*
X0255615Y0156617D01*
X0254326Y0155329D01*
X0254326Y0141238D01*
X0255615Y0139950D01*
X0269705Y0139950D01*
X0270994Y0141238D01*
X0270994Y0152858D01*
X0284260Y0139592D01*
X0284260Y0135324D01*
X0284660Y0134358D01*
X0284660Y0132406D01*
X0285497Y0130384D01*
X0287044Y0128837D01*
X0289066Y0128000D01*
X0291254Y0128000D01*
X0292660Y0128582D01*
X0292660Y0115760D01*
X0290691Y0113791D01*
X0287962Y0113791D01*
X0284771Y0110599D01*
X0284771Y0107871D01*
X0281886Y0104986D01*
X0281460Y0103957D01*
X0281460Y0085243D01*
X0281886Y0084214D01*
X0282674Y0083426D01*
X0286260Y0079840D01*
X0286260Y0068195D01*
X0285679Y0066792D01*
X0285679Y0065208D01*
X0286285Y0063745D01*
X0287405Y0062625D01*
X0288868Y0062019D01*
X0290452Y0062019D01*
X0291915Y0062625D01*
X0293035Y0063745D01*
X0293641Y0065208D01*
X0293641Y0066792D01*
X0293035Y0068255D01*
X0291915Y0069375D01*
X0291860Y0069398D01*
X0291860Y0081557D01*
X0291434Y0082586D01*
X0290810Y0083209D01*
X0293757Y0083209D01*
X0294316Y0083359D01*
X0294818Y0083649D01*
X0295227Y0084059D01*
X0295517Y0084560D01*
X0295667Y0085120D01*
X0295667Y0088657D01*
X0290219Y0088657D01*
X0290219Y0088658D01*
X0295667Y0088658D01*
X0295667Y0092195D01*
X0295517Y0092755D01*
X0295227Y0093256D01*
X0294818Y0093666D01*
X0294316Y0093956D01*
X0293757Y0094105D01*
X0293529Y0094105D01*
X0295667Y0096243D01*
X0295667Y0100757D01*
X0293002Y0103421D01*
X0295667Y0106086D01*
X0295667Y0110599D01*
X0295543Y0110723D01*
X0297834Y0113014D01*
X0298260Y0114043D01*
X0298260Y0169400D01*
X0302741Y0169400D01*
X0303356Y0167914D01*
X0304889Y0166381D01*
X0306891Y0165552D01*
X0309058Y0165552D01*
X0311061Y0166381D01*
X0312593Y0167914D01*
X0313423Y0169916D01*
X0313423Y0172084D01*
X0312593Y0174086D01*
X0311061Y0175619D01*
X0309058Y0176448D01*
X0306891Y0176448D01*
X0304889Y0175619D01*
X0304270Y0175000D01*
X0295667Y0175000D01*
X0295667Y0178099D01*
X0292476Y0181291D01*
X0287962Y0181291D01*
X0284771Y0178099D01*
X0284771Y0173586D01*
X0287435Y0170921D01*
X0284771Y0168257D01*
X0284771Y0163743D01*
X0286909Y0161605D01*
X0286681Y0161605D01*
X0286122Y0161456D01*
X0285620Y0161166D01*
X0285210Y0160756D01*
X0284921Y0160255D01*
X0284771Y0159695D01*
X0284771Y0156158D01*
X0290219Y0156158D01*
X0290219Y0156157D01*
X0290219Y0150709D01*
X0292660Y0150709D01*
X0292660Y0138418D01*
X0291254Y0139000D01*
X0291060Y0139000D01*
X0291060Y0141676D01*
X0290542Y0142926D01*
X0289586Y0143882D01*
X0264586Y0168882D01*
X0263336Y0169400D01*
X0259068Y0169400D01*
X0244586Y0183882D01*
X0243336Y0184400D01*
X0236614Y0184400D01*
X0234814Y0186200D01*
X0230506Y0186200D01*
X0228706Y0184400D01*
X0226614Y0184400D01*
X0224814Y0186200D01*
X0220506Y0186200D01*
X0217460Y0183154D01*
X0217460Y0178846D01*
X0220306Y0176000D01*
X0217460Y0173154D01*
X0217460Y0171000D01*
X0222660Y0171000D01*
X0232660Y0171000D01*
X0237860Y0171000D01*
X0237860Y0173154D01*
X0235014Y0176000D01*
X0236614Y0177600D01*
X0241252Y0177600D01*
X0251843Y0167008D01*
X0250943Y0166108D01*
X0250410Y0164821D01*
X0250410Y0164585D01*
X0240286Y0154461D01*
X0239860Y0153432D01*
X0239860Y0138608D01*
X0237860Y0140608D01*
X0237860Y0143154D01*
X0235014Y0146000D01*
X0237860Y0148846D01*
X0237860Y0151000D01*
X0237860Y0153154D01*
X0235014Y0156000D01*
X0237860Y0158846D01*
X0237860Y0161000D01*
X0237860Y0163154D01*
X0235014Y0166000D01*
X0237860Y0168846D01*
X0237860Y0171000D01*
X0232660Y0171000D01*
X0232660Y0171000D01*
X0232660Y0165800D01*
X0232660Y0161000D01*
X0237860Y0161000D01*
X0232660Y0161000D01*
X0232660Y0161000D01*
X0232660Y0161000D01*
X0232660Y0155800D01*
X0232660Y0151000D01*
X0237860Y0151000D01*
X0232660Y0151000D01*
X0232660Y0151000D01*
X0232660Y0151000D01*
X0232660Y0161000D01*
X0232660Y0161000D01*
X0232660Y0171000D01*
X0232660Y0171000D01*
X0227860Y0171000D01*
X0222660Y0171000D01*
X0222660Y0171000D01*
X0222660Y0165800D01*
X0222660Y0161000D01*
X0232660Y0161000D01*
X0227460Y0161000D01*
X0222660Y0161000D01*
X0222660Y0161000D01*
X0222660Y0161000D01*
X0222660Y0155800D01*
X0222660Y0151000D01*
X0232660Y0151000D01*
X0227460Y0151000D01*
X0222660Y0151000D01*
X0222660Y0151000D01*
X0222660Y0151000D01*
X0222660Y0161000D01*
X0222660Y0161000D01*
X0222660Y0171000D01*
X0222660Y0171000D01*
X0217460Y0171000D01*
X0217460Y0168846D01*
X0220306Y0166000D01*
X0217460Y0163154D01*
X0217460Y0161000D01*
X0222660Y0161000D01*
X0217460Y0161000D01*
X0217460Y0158846D01*
X0220306Y0156000D01*
X0217460Y0153154D01*
X0217460Y0151000D01*
X0222660Y0151000D01*
X0217460Y0151000D01*
X0217460Y0148846D01*
X0220306Y0146000D01*
X0217560Y0143254D01*
X0217560Y0145577D01*
X0217118Y0146643D01*
X0216303Y0147458D01*
X0214303Y0149458D01*
X0213237Y0149900D01*
X0212648Y0149900D01*
X0212452Y0149981D01*
X0210868Y0149981D01*
X0209405Y0149375D01*
X0208285Y0148255D01*
X0207679Y0146792D01*
X0207679Y0145208D01*
X0208285Y0143745D01*
X0209405Y0142625D01*
X0210868Y0142019D01*
X0211760Y0142019D01*
X0211760Y0119981D01*
X0207467Y0119981D01*
X0206179Y0118692D01*
X0206179Y0118309D01*
X0206130Y0118289D01*
X0196541Y0108700D01*
X0190522Y0108700D01*
X0190994Y0109171D01*
X0190994Y0123262D01*
X0189705Y0124550D01*
X0175615Y0124550D01*
X0174326Y0123262D01*
X0174326Y0109171D01*
X0174797Y0108700D01*
X0149133Y0108700D01*
X0147852Y0109981D01*
X0142467Y0109981D01*
X0141179Y0108692D01*
X0141179Y0103308D01*
X0142467Y0102019D01*
X0147852Y0102019D01*
X0149133Y0103300D01*
X0194330Y0103300D01*
X0194285Y0103255D01*
X0193679Y0101792D01*
X0193679Y0100837D01*
X0186541Y0093700D01*
X0184141Y0093700D01*
X0184141Y0098692D01*
X0182852Y0099981D01*
X0177467Y0099981D01*
X0176286Y0098800D01*
X0167990Y0098800D01*
X0167415Y0099375D01*
X0165952Y0099981D01*
X0164368Y0099981D01*
X0162905Y0099375D01*
X0161785Y0098255D01*
X0161179Y0096792D01*
X0161179Y0095208D01*
X0161287Y0094947D01*
X0159905Y0094375D01*
X0158785Y0093255D01*
X0158179Y0091792D01*
X0158179Y0090208D01*
X0158785Y0088745D01*
X0159905Y0087625D01*
X0161368Y0087019D01*
X0162952Y0087019D01*
X0164415Y0087625D01*
X0165090Y0088300D01*
X0166596Y0088300D01*
X0166179Y0087292D01*
X0166179Y0085708D01*
X0166785Y0084245D01*
X0167905Y0083125D01*
X0169368Y0082519D01*
X0170952Y0082519D01*
X0172415Y0083125D01*
X0173183Y0083893D01*
X0173746Y0084126D01*
X0174326Y0084706D01*
X0174326Y0073738D01*
X0175615Y0072450D01*
X0189705Y0072450D01*
X0190994Y0073738D01*
X0190994Y0086200D01*
X0193860Y0086200D01*
X0193860Y0084443D01*
X0194286Y0083414D01*
X0195074Y0082626D01*
X0203746Y0073954D01*
X0203679Y0073792D01*
X0203679Y0072208D01*
X0204285Y0070745D01*
X0205405Y0069625D01*
X0206868Y0069019D01*
X0208452Y0069019D01*
X0209915Y0069625D01*
X0211035Y0070745D01*
X0211641Y0072208D01*
X0211641Y0073792D01*
X0211035Y0075255D01*
X0209915Y0076375D01*
X0208771Y0076849D01*
X0207412Y0078208D01*
X0207868Y0078019D01*
X0209452Y0078019D01*
X0210915Y0078625D01*
X0212035Y0079745D01*
X0212641Y0081208D01*
X0212641Y0082792D01*
X0212468Y0083209D01*
X0213757Y0083209D01*
X0214316Y0083359D01*
X0214818Y0083649D01*
X0215227Y0084059D01*
X0215517Y0084560D01*
X0215667Y0085120D01*
X0215667Y0088657D01*
X0210219Y0088657D01*
X0210219Y0088658D01*
X0215667Y0088658D01*
X0215667Y0092195D01*
X0215517Y0092755D01*
X0215260Y0093200D01*
X0224807Y0093200D01*
X0225004Y0093149D01*
X0225359Y0093200D01*
X0225717Y0093200D01*
X0225905Y0093278D01*
X0226107Y0093307D01*
X0226415Y0093489D01*
X0226746Y0093626D01*
X0226890Y0093770D01*
X0227066Y0093874D01*
X0227280Y0094161D01*
X0227534Y0094414D01*
X0227612Y0094602D01*
X0234260Y0103467D01*
X0234260Y0070378D01*
X0232997Y0069115D01*
X0232160Y0067094D01*
X0232160Y0064906D01*
X0232997Y0062884D01*
X0234544Y0061337D01*
X0236566Y0060500D01*
X0238754Y0060500D01*
X0240775Y0061337D01*
X0242323Y0062884D01*
X0243160Y0064906D01*
X0243160Y0067094D01*
X0242323Y0069115D01*
X0241060Y0070378D01*
X0241060Y0125999D01*
X0241964Y0125625D01*
X0243356Y0125625D01*
X0244642Y0126158D01*
X0245627Y0127142D01*
X0246160Y0128429D01*
X0246160Y0129722D01*
X0247044Y0128837D01*
X0249066Y0128000D01*
X0251254Y0128000D01*
X0253275Y0128837D01*
X0254823Y0130384D01*
X0255660Y0132406D01*
X0254878Y0130520D02*
X0285441Y0130520D01*
X0288773Y0128121D02*
X0251546Y0128121D01*
X0248773Y0128121D02*
X0246032Y0128121D01*
X0243592Y0125723D02*
X0292660Y0125723D01*
X0292660Y0123324D02*
X0270931Y0123324D01*
X0270994Y0123262D02*
X0269705Y0124550D01*
X0255615Y0124550D01*
X0254326Y0123262D01*
X0254326Y0109171D01*
X0255615Y0107883D01*
X0269705Y0107883D01*
X0270994Y0109171D01*
X0270994Y0123262D01*
X0270994Y0120926D02*
X0292660Y0120926D01*
X0292660Y0118527D02*
X0270994Y0118527D01*
X0270994Y0116129D02*
X0292660Y0116129D01*
X0298260Y0116129D02*
X0314436Y0116129D01*
X0314436Y0113730D02*
X0298130Y0113730D01*
X0296151Y0111332D02*
X0314670Y0111332D01*
X0314436Y0111565D02*
X0315725Y0110276D01*
X0339595Y0110276D01*
X0340883Y0111565D01*
X0340883Y0118052D01*
X0342523Y0118052D01*
X0344525Y0118881D01*
X0346058Y0120414D01*
X0346887Y0122416D01*
X0346887Y0124584D01*
X0346058Y0126586D01*
X0344525Y0128119D01*
X0342523Y0128948D01*
X0340883Y0128948D01*
X0340883Y0135435D01*
X0339595Y0136724D01*
X0315725Y0136724D01*
X0314436Y0135435D01*
X0314436Y0111565D01*
X0311061Y0118881D02*
X0309058Y0118052D01*
X0306891Y0118052D01*
X0304889Y0118881D01*
X0303356Y0120414D01*
X0302527Y0122416D01*
X0302527Y0124584D01*
X0303356Y0126586D01*
X0304889Y0128119D01*
X0306891Y0128948D01*
X0309058Y0128948D01*
X0311061Y0128119D01*
X0312593Y0126586D01*
X0313423Y0124584D01*
X0313423Y0122416D01*
X0312593Y0120414D01*
X0311061Y0118881D01*
X0310205Y0118527D02*
X0314436Y0118527D01*
X0314436Y0120926D02*
X0312805Y0120926D01*
X0313423Y0123324D02*
X0314436Y0123324D01*
X0314436Y0125723D02*
X0312951Y0125723D01*
X0314436Y0128121D02*
X0311055Y0128121D01*
X0314436Y0130520D02*
X0298260Y0130520D01*
X0298260Y0132918D02*
X0314436Y0132918D01*
X0314436Y0135317D02*
X0298260Y0135317D01*
X0298260Y0137715D02*
X0387660Y0137715D01*
X0387660Y0135317D02*
X0340883Y0135317D01*
X0340883Y0132918D02*
X0387660Y0132918D01*
X0387660Y0130520D02*
X0340883Y0130520D01*
X0344519Y0128121D02*
X0350342Y0128121D01*
X0350395Y0128160D02*
X0349701Y0127656D01*
X0349095Y0127049D01*
X0348591Y0126355D01*
X0348202Y0125591D01*
X0347937Y0124776D01*
X0347802Y0123929D01*
X0347802Y0123500D01*
X0347802Y0123071D01*
X0347937Y0122224D01*
X0348202Y0121409D01*
X0348591Y0120645D01*
X0349095Y0119951D01*
X0349701Y0119344D01*
X0350395Y0118840D01*
X0351159Y0118451D01*
X0351975Y0118186D01*
X0352822Y0118052D01*
X0353250Y0118052D01*
X0353250Y0123500D01*
X0347802Y0123500D01*
X0353250Y0123500D01*
X0353250Y0123500D01*
X0353250Y0128948D01*
X0352822Y0128948D01*
X0351975Y0128814D01*
X0351159Y0128549D01*
X0350395Y0128160D01*
X0353250Y0128121D02*
X0353250Y0128121D01*
X0353250Y0128948D02*
X0353250Y0123500D01*
X0353250Y0123500D01*
X0353250Y0123500D01*
X0353250Y0118052D01*
X0353679Y0118052D01*
X0354526Y0118186D01*
X0355342Y0118451D01*
X0356106Y0118840D01*
X0356800Y0119344D01*
X0357406Y0119951D01*
X0357910Y0120645D01*
X0358299Y0121409D01*
X0358564Y0122224D01*
X0358698Y0123071D01*
X0358698Y0123500D01*
X0358698Y0123929D01*
X0358564Y0124776D01*
X0358299Y0125591D01*
X0357910Y0126355D01*
X0357406Y0127049D01*
X0356800Y0127656D01*
X0356106Y0128160D01*
X0355342Y0128549D01*
X0354526Y0128814D01*
X0353679Y0128948D01*
X0353250Y0128948D01*
X0356159Y0128121D02*
X0387660Y0128121D01*
X0387660Y0125723D02*
X0358232Y0125723D01*
X0358698Y0123500D02*
X0353251Y0123500D01*
X0353251Y0123500D01*
X0358698Y0123500D01*
X0358698Y0123324D02*
X0373330Y0123324D01*
X0374076Y0123633D02*
X0372074Y0122804D01*
X0370541Y0121271D01*
X0369712Y0119269D01*
X0369712Y0117101D01*
X0370541Y0115099D01*
X0372074Y0113566D01*
X0374076Y0112737D01*
X0376244Y0112737D01*
X0378246Y0113566D01*
X0379778Y0115099D01*
X0380608Y0117101D01*
X0380608Y0119269D01*
X0379778Y0121271D01*
X0378246Y0122804D01*
X0376244Y0123633D01*
X0374076Y0123633D01*
X0376989Y0123324D02*
X0387660Y0123324D01*
X0387660Y0120926D02*
X0379922Y0120926D01*
X0380608Y0118527D02*
X0387660Y0118527D01*
X0387660Y0116129D02*
X0380205Y0116129D01*
X0378410Y0113730D02*
X0387660Y0113730D01*
X0387095Y0111724D02*
X0363225Y0111724D01*
X0361936Y0110435D01*
X0361936Y0086565D01*
X0363225Y0085276D01*
X0369712Y0085276D01*
X0369712Y0083637D01*
X0370541Y0081634D01*
X0372074Y0080102D01*
X0374076Y0079272D01*
X0376244Y0079272D01*
X0378246Y0080102D01*
X0379778Y0081634D01*
X0380608Y0083637D01*
X0380608Y0085276D01*
X0387095Y0085276D01*
X0387660Y0085841D01*
X0387660Y0038659D01*
X0387095Y0039224D01*
X0380608Y0039224D01*
X0380608Y0040863D01*
X0379778Y0042866D01*
X0378246Y0044398D01*
X0376244Y0045228D01*
X0374076Y0045228D01*
X0372074Y0044398D01*
X0370541Y0042866D01*
X0369712Y0040863D01*
X0369712Y0039224D01*
X0363225Y0039224D01*
X0361936Y0037935D01*
X0361936Y0014065D01*
X0363225Y0012776D01*
X0387095Y0012776D01*
X0387660Y0013341D01*
X0387660Y0006000D01*
X0380608Y0006000D01*
X0380608Y0007399D01*
X0379778Y0009401D01*
X0378246Y0010934D01*
X0376244Y0011763D01*
X0374076Y0011763D01*
X0372074Y0010934D01*
X0370541Y0009401D01*
X0369712Y0007399D01*
X0369712Y0006000D01*
X0288420Y0006000D01*
X0304345Y0021925D01*
X0304889Y0021381D01*
X0306891Y0020552D01*
X0309058Y0020552D01*
X0311061Y0021381D01*
X0312593Y0022914D01*
X0313423Y0024916D01*
X0313423Y0027084D01*
X0312593Y0029086D01*
X0311061Y0030619D01*
X0309058Y0031448D01*
X0306891Y0031448D01*
X0304889Y0030619D01*
X0303356Y0029086D01*
X0302807Y0027760D01*
X0301874Y0027374D01*
X0295667Y0021167D01*
X0295667Y0024695D01*
X0295517Y0025255D01*
X0295227Y0025756D01*
X0294818Y0026166D01*
X0294316Y0026456D01*
X0293757Y0026605D01*
X0293529Y0026605D01*
X0295667Y0028743D01*
X0295667Y0033257D01*
X0293002Y0035921D01*
X0295667Y0038586D01*
X0295667Y0043099D01*
X0292476Y0046291D01*
X0287962Y0046291D01*
X0284771Y0043099D01*
X0284771Y0038586D01*
X0287435Y0035921D01*
X0284771Y0033257D01*
X0284771Y0028743D01*
X0286909Y0026605D01*
X0286681Y0026605D01*
X0286122Y0026456D01*
X0285620Y0026166D01*
X0285210Y0025756D01*
X0284921Y0025255D01*
X0284771Y0024695D01*
X0284771Y0021158D01*
X0290219Y0021158D01*
X0290219Y0021157D01*
X0284771Y0021157D01*
X0284771Y0017620D01*
X0284921Y0017060D01*
X0285210Y0016559D01*
X0285620Y0016149D01*
X0286122Y0015859D01*
X0286681Y0015709D01*
X0290210Y0015709D01*
X0280500Y0006000D01*
X0270755Y0006000D01*
X0270994Y0006238D01*
X0270994Y0020329D01*
X0269705Y0021617D01*
X0255615Y0021617D01*
X0254326Y0020329D01*
X0254326Y0006238D01*
X0254564Y0006000D01*
X0190994Y0006000D01*
X0190994Y0017829D01*
X0190622Y0018200D01*
X0198217Y0018200D01*
X0199246Y0018626D01*
X0200034Y0019414D01*
X0205817Y0025197D01*
X0206909Y0024105D01*
X0206681Y0024105D01*
X0206122Y0023956D01*
X0205620Y0023666D01*
X0205210Y0023256D01*
X0204921Y0022755D01*
X0204771Y0022195D01*
X0204771Y0018658D01*
X0210219Y0018658D01*
X0215667Y0018658D01*
X0215667Y0022195D01*
X0215517Y0022755D01*
X0215227Y0023256D01*
X0214818Y0023666D01*
X0214316Y0023956D01*
X0213757Y0024105D01*
X0213529Y0024105D01*
X0215667Y0026243D01*
X0215667Y0030757D01*
X0213002Y0033421D01*
X0215667Y0036086D01*
X0215667Y0040599D01*
X0212476Y0043791D01*
X0207962Y0043791D01*
X0204771Y0040599D01*
X0204771Y0036086D01*
X0207435Y0033421D01*
X0205314Y0031300D01*
X0204603Y0031300D01*
X0203574Y0030874D01*
X0196500Y0023800D01*
X0157103Y0023800D01*
X0156074Y0023374D01*
X0141500Y0008800D01*
X0120460Y0008800D01*
X0120460Y0016557D01*
X0120034Y0017586D01*
X0115034Y0022586D01*
X0114246Y0023374D01*
X0113217Y0023800D01*
X0103820Y0023800D01*
X0090460Y0037160D01*
X0090460Y0058170D01*
X0091035Y0058745D01*
X0091641Y0060208D01*
X0091641Y0061792D01*
X0091035Y0063255D01*
X0089915Y0064375D01*
X0088452Y0064981D01*
X0086868Y0064981D01*
X0085405Y0064375D01*
X0084285Y0063255D01*
X0083679Y0061792D01*
X0083679Y0060208D01*
X0084285Y0058745D01*
X0084860Y0058170D01*
X0084860Y0035443D01*
X0085286Y0034414D01*
X0086074Y0033626D01*
X0098083Y0021617D01*
X0095615Y0021617D01*
X0094326Y0020329D01*
X0094326Y0006238D01*
X0094564Y0006000D01*
X0092820Y0006000D01*
X0057834Y0040986D01*
X0057046Y0041774D01*
X0056017Y0042200D01*
X0055667Y0042200D01*
X0055667Y0043099D01*
X0052476Y0046291D01*
X0047962Y0046291D01*
X0044771Y0043099D01*
X0044771Y0038586D01*
X0047435Y0035921D01*
X0044771Y0033257D01*
X0044771Y0028743D01*
X0046909Y0026605D01*
X0046681Y0026605D01*
X0046122Y0026456D01*
X0045620Y0026166D01*
X0045210Y0025756D01*
X0044921Y0025255D01*
X0044771Y0024695D01*
X0044771Y0021158D01*
X0050219Y0021158D01*
X0055667Y0021158D01*
X0055667Y0024695D01*
X0055517Y0025255D01*
X0055227Y0025756D01*
X0054818Y0026166D01*
X0054316Y0026456D01*
X0053757Y0026605D01*
X0053529Y0026605D01*
X0055667Y0028743D01*
X0055667Y0033257D01*
X0053002Y0035921D01*
X0053681Y0036600D01*
X0054300Y0036600D01*
X0084900Y0006000D01*
X0030755Y0006000D01*
X0030994Y0006238D01*
X0030994Y0020329D01*
X0029705Y0021617D01*
X0015615Y0021617D01*
X0014326Y0020329D01*
X0014326Y0006238D01*
X0014564Y0006000D01*
X0007660Y0006000D01*
X0007660Y0055336D01*
X0008469Y0055001D01*
X0011850Y0055001D01*
X0014778Y0056213D01*
X0014326Y0055762D01*
X0014326Y0041671D01*
X0015615Y0040383D01*
X0029705Y0040383D01*
X0030994Y0041671D01*
X0030994Y0055762D01*
X0029705Y0057050D01*
X0015730Y0057050D01*
X0017365Y0058686D01*
X0018659Y0061809D01*
X0018659Y0065191D01*
X0017365Y0068314D01*
X0014974Y0070705D01*
X0011850Y0071999D01*
X0008469Y0071999D01*
X0007660Y0071664D01*
X0007660Y0122836D01*
X0008469Y0122501D01*
X0011850Y0122501D01*
X0014778Y0123713D01*
X0014326Y0123262D01*
X0014326Y0109171D01*
X0015615Y0107883D01*
X0029705Y0107883D01*
X0030994Y0109171D01*
X0030994Y0123262D01*
X0029705Y0124550D01*
X0015730Y0124550D01*
X0017365Y0126186D01*
X0018659Y0129309D01*
X0018659Y0132691D01*
X0017365Y0135814D01*
X0014974Y0138205D01*
X0011850Y0139499D01*
X0008469Y0139499D01*
X0007660Y0139164D01*
X0007660Y0191000D01*
X0014564Y0191000D01*
X0014326Y0190762D01*
X0014326Y0176671D01*
X0015615Y0175383D01*
X0029705Y0175383D01*
X0030994Y0176671D01*
X0030994Y0190762D01*
X0030755Y0191000D01*
X0094564Y0191000D01*
X0094326Y0190762D01*
X0094326Y0176671D01*
X0095615Y0175383D01*
X0109705Y0175383D01*
X0110994Y0176671D01*
X0110994Y0190762D01*
X0110755Y0191000D01*
X0174564Y0191000D01*
X0174326Y0190762D01*
X0174326Y0176671D01*
X0175615Y0175383D01*
X0189705Y0175383D01*
X0190994Y0176671D01*
X0190994Y0190762D01*
X0190755Y0191000D01*
X0204030Y0191000D01*
X0203285Y0190255D01*
X0202679Y0188792D01*
X0202679Y0187208D01*
X0203285Y0185745D01*
X0204405Y0184625D01*
X0205868Y0184019D01*
X0207452Y0184019D01*
X0208915Y0184625D01*
X0210035Y0185745D01*
X0210641Y0187208D01*
X0210641Y0188021D01*
X0212820Y0190200D01*
X0254326Y0190200D01*
X0254326Y0176671D01*
X0255615Y0175383D01*
X0269705Y0175383D01*
X0270994Y0176671D01*
X0270994Y0190200D01*
X0346500Y0190200D01*
X0346760Y0189940D01*
X0346760Y0185423D01*
X0347201Y0184357D01*
X0350679Y0180880D01*
X0350679Y0180208D01*
X0351285Y0178745D01*
X0352405Y0177625D01*
X0353868Y0177019D01*
X0355452Y0177019D01*
X0356915Y0177625D01*
X0358035Y0178745D01*
X0358641Y0180208D01*
X0358641Y0181792D01*
X0358035Y0183255D01*
X0356915Y0184375D01*
X0355452Y0184981D01*
X0354780Y0184981D01*
X0352560Y0187201D01*
X0352560Y0191000D01*
X0369712Y0191000D01*
X0369712Y0189601D01*
X0370541Y0187599D01*
X0372074Y0186066D01*
X0374076Y0185237D01*
X0376244Y0185237D01*
X0378246Y0186066D01*
X0379778Y0187599D01*
X0380608Y0189601D01*
X0380608Y0191000D01*
X0387660Y0191000D01*
X0387660Y0183659D01*
X0387095Y0184224D01*
X0363225Y0184224D01*
X0361936Y0182935D01*
X0361936Y0159065D01*
X0363225Y0157776D01*
X0369712Y0157776D01*
X0369712Y0156137D01*
X0370541Y0154134D01*
X0372074Y0152602D01*
X0374076Y0151772D01*
X0376244Y0151772D01*
X0378246Y0152602D01*
X0379778Y0154134D01*
X0380608Y0156137D01*
X0380608Y0157776D01*
X0387095Y0157776D01*
X0387660Y0158341D01*
X0387660Y0111159D01*
X0387095Y0111724D01*
X0387487Y0111332D02*
X0387660Y0111332D01*
X0371910Y0113730D02*
X0340883Y0113730D01*
X0340883Y0116129D02*
X0370115Y0116129D01*
X0369712Y0118527D02*
X0355491Y0118527D01*
X0353250Y0118527D02*
X0353250Y0118527D01*
X0351010Y0118527D02*
X0343670Y0118527D01*
X0346270Y0120926D02*
X0348448Y0120926D01*
X0347802Y0123324D02*
X0346887Y0123324D01*
X0346416Y0125723D02*
X0348268Y0125723D01*
X0353250Y0125723D02*
X0353250Y0125723D01*
X0353250Y0123324D02*
X0353250Y0123324D01*
X0353250Y0120926D02*
X0353250Y0120926D01*
X0358053Y0120926D02*
X0370398Y0120926D01*
X0362833Y0111332D02*
X0340650Y0111332D01*
X0361936Y0108933D02*
X0295667Y0108933D01*
X0295667Y0106534D02*
X0361936Y0106534D01*
X0361936Y0104136D02*
X0293717Y0104136D01*
X0294686Y0101737D02*
X0361936Y0101737D01*
X0361936Y0099339D02*
X0295667Y0099339D01*
X0295667Y0096940D02*
X0361936Y0096940D01*
X0361936Y0094542D02*
X0293965Y0094542D01*
X0295667Y0092143D02*
X0361936Y0092143D01*
X0361936Y0089745D02*
X0295667Y0089745D01*
X0295667Y0087346D02*
X0361936Y0087346D01*
X0369712Y0084948D02*
X0340883Y0084948D01*
X0340883Y0085435D02*
X0339595Y0086724D01*
X0315725Y0086724D01*
X0314436Y0085435D01*
X0314436Y0061565D01*
X0315725Y0060276D01*
X0339595Y0060276D01*
X0340883Y0061565D01*
X0340883Y0068052D01*
X0342523Y0068052D01*
X0344525Y0068881D01*
X0346058Y0070414D01*
X0346887Y0072416D01*
X0346887Y0074584D01*
X0346058Y0076586D01*
X0344525Y0078119D01*
X0342523Y0078948D01*
X0340883Y0078948D01*
X0340883Y0085435D01*
X0340883Y0082549D02*
X0370162Y0082549D01*
X0372025Y0080151D02*
X0340883Y0080151D01*
X0344892Y0077752D02*
X0349835Y0077752D01*
X0349701Y0077656D02*
X0349095Y0077049D01*
X0348591Y0076355D01*
X0348202Y0075591D01*
X0347937Y0074776D01*
X0347802Y0073929D01*
X0347802Y0073500D01*
X0347802Y0073071D01*
X0347937Y0072224D01*
X0348202Y0071409D01*
X0348591Y0070645D01*
X0349095Y0069951D01*
X0349701Y0069344D01*
X0350395Y0068840D01*
X0351159Y0068451D01*
X0351975Y0068186D01*
X0352822Y0068052D01*
X0353250Y0068052D01*
X0353250Y0073500D01*
X0347802Y0073500D01*
X0353250Y0073500D01*
X0353250Y0073500D01*
X0353250Y0078948D01*
X0352822Y0078948D01*
X0351975Y0078814D01*
X0351159Y0078549D01*
X0350395Y0078160D01*
X0349701Y0077656D01*
X0348124Y0075354D02*
X0346568Y0075354D01*
X0346887Y0072955D02*
X0347821Y0072955D01*
X0353250Y0072955D02*
X0353250Y0072955D01*
X0353250Y0073500D02*
X0353250Y0068052D01*
X0353679Y0068052D01*
X0354526Y0068186D01*
X0355342Y0068451D01*
X0356106Y0068840D01*
X0356800Y0069344D01*
X0357406Y0069951D01*
X0357910Y0070645D01*
X0358299Y0071409D01*
X0358564Y0072224D01*
X0358698Y0073071D01*
X0358698Y0073500D01*
X0358698Y0073929D01*
X0358564Y0074776D01*
X0358299Y0075591D01*
X0357910Y0076355D01*
X0357406Y0077049D01*
X0356800Y0077656D01*
X0356106Y0078160D01*
X0355342Y0078549D01*
X0354526Y0078814D01*
X0353679Y0078948D01*
X0353250Y0078948D01*
X0353250Y0073500D01*
X0353250Y0073500D01*
X0353250Y0073500D01*
X0353251Y0073500D02*
X0358698Y0073500D01*
X0353251Y0073500D01*
X0353251Y0073500D01*
X0353250Y0075354D02*
X0353250Y0075354D01*
X0353250Y0077752D02*
X0353250Y0077752D01*
X0356666Y0077752D02*
X0372664Y0077752D01*
X0372304Y0077569D02*
X0371611Y0077065D01*
X0371004Y0076459D01*
X0370500Y0075765D01*
X0370111Y0075001D01*
X0369846Y0074185D01*
X0369712Y0073338D01*
X0369712Y0072909D01*
X0369712Y0072481D01*
X0369846Y0071634D01*
X0370111Y0070818D01*
X0370500Y0070054D01*
X0371004Y0069360D01*
X0371611Y0068754D01*
X0372304Y0068250D01*
X0373069Y0067861D01*
X0373884Y0067596D01*
X0374731Y0067461D01*
X0375160Y0067461D01*
X0375589Y0067461D01*
X0376436Y0067596D01*
X0377251Y0067861D01*
X0378015Y0068250D01*
X0378709Y0068754D01*
X0379315Y0069360D01*
X0379819Y0070054D01*
X0380209Y0070818D01*
X0380474Y0071634D01*
X0380608Y0072481D01*
X0380608Y0072909D01*
X0375160Y0072909D01*
X0375160Y0067461D01*
X0375160Y0072909D01*
X0375160Y0072909D01*
X0375160Y0072909D01*
X0369712Y0072909D01*
X0375160Y0072909D01*
X0375160Y0072909D01*
X0380608Y0072909D01*
X0380608Y0073338D01*
X0380474Y0074185D01*
X0380209Y0075001D01*
X0379819Y0075765D01*
X0379315Y0076459D01*
X0378709Y0077065D01*
X0378015Y0077569D01*
X0377251Y0077958D01*
X0376436Y0078223D01*
X0375589Y0078357D01*
X0375160Y0078357D01*
X0375160Y0072910D01*
X0375160Y0072910D01*
X0375160Y0078357D01*
X0374731Y0078357D01*
X0373884Y0078223D01*
X0373069Y0077958D01*
X0372304Y0077569D01*
X0375160Y0077752D02*
X0375160Y0077752D01*
X0375160Y0075354D02*
X0375160Y0075354D01*
X0375160Y0072955D02*
X0375160Y0072955D01*
X0380029Y0075354D02*
X0387660Y0075354D01*
X0387660Y0077752D02*
X0377655Y0077752D01*
X0378295Y0080151D02*
X0387660Y0080151D01*
X0387660Y0082549D02*
X0380157Y0082549D01*
X0380608Y0084948D02*
X0387660Y0084948D01*
X0370291Y0075354D02*
X0358376Y0075354D01*
X0358680Y0072955D02*
X0369712Y0072955D01*
X0370244Y0070557D02*
X0357846Y0070557D01*
X0354351Y0068158D02*
X0372484Y0068158D01*
X0375160Y0068158D02*
X0375160Y0068158D01*
X0375160Y0070557D02*
X0375160Y0070557D01*
X0377836Y0068158D02*
X0387660Y0068158D01*
X0387660Y0065760D02*
X0340883Y0065760D01*
X0340883Y0063361D02*
X0387660Y0063361D01*
X0387660Y0060963D02*
X0340281Y0060963D01*
X0342780Y0068158D02*
X0352150Y0068158D01*
X0353250Y0068158D02*
X0353250Y0068158D01*
X0353250Y0070557D02*
X0353250Y0070557D01*
X0348655Y0070557D02*
X0346117Y0070557D01*
X0371004Y0055140D02*
X0371611Y0055746D01*
X0372304Y0056250D01*
X0373069Y0056639D01*
X0373884Y0056904D01*
X0374731Y0057039D01*
X0375160Y0057039D01*
X0375589Y0057039D01*
X0376436Y0056904D01*
X0377251Y0056639D01*
X0378015Y0056250D01*
X0378709Y0055746D01*
X0379315Y0055140D01*
X0379819Y0054446D01*
X0380209Y0053682D01*
X0380474Y0052866D01*
X0380608Y0052019D01*
X0380608Y0051591D01*
X0375160Y0051591D01*
X0375160Y0051591D01*
X0375160Y0057039D01*
X0375160Y0051591D01*
X0375160Y0051590D01*
X0375160Y0046143D01*
X0375589Y0046143D01*
X0376436Y0046277D01*
X0377251Y0046542D01*
X0378015Y0046931D01*
X0378709Y0047435D01*
X0379315Y0048041D01*
X0379819Y0048735D01*
X0380209Y0049499D01*
X0380474Y0050315D01*
X0380608Y0051162D01*
X0380608Y0051590D01*
X0375160Y0051590D01*
X0375160Y0051590D01*
X0375160Y0046143D01*
X0374731Y0046143D01*
X0373884Y0046277D01*
X0373069Y0046542D01*
X0372304Y0046931D01*
X0371611Y0047435D01*
X0371004Y0048041D01*
X0370500Y0048735D01*
X0370111Y0049499D01*
X0369846Y0050315D01*
X0369712Y0051162D01*
X0369712Y0051590D01*
X0375160Y0051590D01*
X0375160Y0051591D01*
X0369712Y0051591D01*
X0369712Y0052019D01*
X0369846Y0052866D01*
X0370111Y0053682D01*
X0370500Y0054446D01*
X0371004Y0055140D01*
X0372188Y0056166D02*
X0272634Y0056166D01*
X0272086Y0055618D02*
X0276968Y0060500D01*
X0278754Y0060500D01*
X0280775Y0061337D01*
X0282323Y0062884D01*
X0283160Y0064906D01*
X0283160Y0067094D01*
X0282323Y0069115D01*
X0280775Y0070663D01*
X0278754Y0071500D01*
X0276566Y0071500D01*
X0274544Y0070663D01*
X0272997Y0069115D01*
X0272160Y0067094D01*
X0272160Y0065308D01*
X0269252Y0062400D01*
X0242984Y0062400D01*
X0241734Y0061882D01*
X0240777Y0060926D01*
X0239252Y0059400D01*
X0234068Y0059400D01*
X0228042Y0065426D01*
X0227086Y0066382D01*
X0225836Y0066900D01*
X0196984Y0066900D01*
X0195734Y0066382D01*
X0194777Y0065426D01*
X0194377Y0064460D01*
X0193917Y0064000D01*
X0192063Y0064000D01*
X0190960Y0063543D01*
X0190117Y0062699D01*
X0186417Y0059000D01*
X0185641Y0059000D01*
X0185641Y0059792D01*
X0185035Y0061255D01*
X0183915Y0062375D01*
X0182452Y0062981D01*
X0180868Y0062981D01*
X0179405Y0062375D01*
X0178285Y0061255D01*
X0177679Y0059792D01*
X0177679Y0059000D01*
X0177063Y0059000D01*
X0175960Y0058543D01*
X0175117Y0057699D01*
X0166417Y0049000D01*
X0146141Y0049000D01*
X0146641Y0050208D01*
X0146641Y0051792D01*
X0146035Y0053255D01*
X0144915Y0054375D01*
X0143452Y0054981D01*
X0141868Y0054981D01*
X0140405Y0054375D01*
X0139830Y0053800D01*
X0138820Y0053800D01*
X0135460Y0057160D01*
X0135460Y0076557D01*
X0135034Y0077586D01*
X0129410Y0083209D01*
X0130219Y0083209D01*
X0133757Y0083209D01*
X0134316Y0083359D01*
X0134818Y0083649D01*
X0135227Y0084059D01*
X0135517Y0084560D01*
X0135667Y0085120D01*
X0135667Y0088657D01*
X0130219Y0088657D01*
X0130219Y0083209D01*
X0130219Y0088657D01*
X0130219Y0088657D01*
X0130219Y0088658D01*
X0135667Y0088658D01*
X0135667Y0092195D01*
X0135517Y0092755D01*
X0135227Y0093256D01*
X0134818Y0093666D01*
X0134316Y0093956D01*
X0133757Y0094105D01*
X0133529Y0094105D01*
X0135667Y0096243D01*
X0135667Y0100757D01*
X0133002Y0103421D01*
X0135667Y0106086D01*
X0135667Y0110599D01*
X0135543Y0110723D01*
X0137046Y0112226D01*
X0137834Y0113014D01*
X0138260Y0114043D01*
X0138260Y0118757D01*
X0137834Y0119786D01*
X0132960Y0124660D01*
X0132960Y0140125D01*
X0133177Y0139908D01*
X0134464Y0139375D01*
X0135856Y0139375D01*
X0137142Y0139908D01*
X0137310Y0140075D01*
X0163375Y0140075D01*
X0175911Y0127539D01*
X0176699Y0126751D01*
X0177728Y0126325D01*
X0191388Y0126325D01*
X0191568Y0125892D01*
X0192552Y0124908D01*
X0193839Y0124375D01*
X0195231Y0124375D01*
X0196517Y0124908D01*
X0197502Y0125892D01*
X0198035Y0127179D01*
X0198035Y0128571D01*
X0197502Y0129858D01*
X0196517Y0130842D01*
X0195231Y0131375D01*
X0194995Y0131375D01*
X0194871Y0131499D01*
X0193842Y0131925D01*
X0184141Y0131925D01*
X0184141Y0136192D01*
X0182852Y0137481D01*
X0180139Y0137481D01*
X0177670Y0139950D01*
X0189705Y0139950D01*
X0190994Y0141238D01*
X0190994Y0155329D01*
X0189705Y0156617D01*
X0179837Y0156617D01*
X0197239Y0174019D01*
X0197452Y0174019D01*
X0198915Y0174625D01*
X0200035Y0175745D01*
X0200641Y0177208D01*
X0200641Y0178792D01*
X0200035Y0180255D01*
X0198915Y0181375D01*
X0197452Y0181981D01*
X0195868Y0181981D01*
X0194405Y0181375D01*
X0193285Y0180255D01*
X0192679Y0178792D01*
X0192679Y0177379D01*
X0169500Y0154200D01*
X0168723Y0154200D01*
X0169141Y0155208D01*
X0169141Y0156792D01*
X0168535Y0158255D01*
X0167415Y0159375D01*
X0165952Y0159981D01*
X0164368Y0159981D01*
X0162905Y0159375D01*
X0162330Y0158800D01*
X0156641Y0158800D01*
X0156641Y0159292D01*
X0156035Y0160755D01*
X0154915Y0161875D01*
X0153452Y0162481D01*
X0151868Y0162481D01*
X0150405Y0161875D01*
X0149285Y0160755D01*
X0148679Y0159292D01*
X0148679Y0157708D01*
X0149285Y0156245D01*
X0150405Y0155125D01*
X0151868Y0154519D01*
X0152681Y0154519D01*
X0153000Y0154200D01*
X0150410Y0154200D01*
X0150242Y0154367D01*
X0148956Y0154900D01*
X0147564Y0154900D01*
X0146277Y0154367D01*
X0145293Y0153383D01*
X0144760Y0152096D01*
X0144760Y0150704D01*
X0145293Y0149417D01*
X0146277Y0148433D01*
X0147564Y0147900D01*
X0148956Y0147900D01*
X0150242Y0148433D01*
X0150410Y0148600D01*
X0169500Y0148600D01*
X0169860Y0148240D01*
X0169860Y0141510D01*
X0166121Y0145249D01*
X0165092Y0145675D01*
X0137310Y0145675D01*
X0137142Y0145842D01*
X0136661Y0146041D01*
X0140034Y0149414D01*
X0140460Y0150443D01*
X0140460Y0168957D01*
X0140034Y0169986D01*
X0135667Y0174353D01*
X0135667Y0178099D01*
X0132476Y0181291D01*
X0127962Y0181291D01*
X0124771Y0178099D01*
X0124771Y0173586D01*
X0127435Y0170921D01*
X0124771Y0168257D01*
X0124771Y0163743D01*
X0126909Y0161605D01*
X0126681Y0161605D01*
X0126122Y0161456D01*
X0125620Y0161166D01*
X0125210Y0160756D01*
X0124921Y0160255D01*
X0124771Y0159695D01*
X0124771Y0156158D01*
X0130219Y0156158D01*
X0130219Y0156157D01*
X0130219Y0150709D01*
X0133410Y0150709D01*
X0127786Y0145086D01*
X0127360Y0144057D01*
X0127360Y0122943D01*
X0127786Y0121914D01*
X0128574Y0121126D01*
X0132660Y0117040D01*
X0132660Y0115760D01*
X0130691Y0113791D01*
X0127962Y0113791D01*
X0124771Y0110599D01*
X0124771Y0106086D01*
X0127435Y0103421D01*
X0124771Y0100757D01*
X0124771Y0096243D01*
X0126909Y0094105D01*
X0126681Y0094105D01*
X0126122Y0093956D01*
X0125620Y0093666D01*
X0125210Y0093256D01*
X0125091Y0093049D01*
X0124606Y0093250D01*
X0124370Y0093250D01*
X0115496Y0102124D01*
X0114467Y0102550D01*
X0084603Y0102550D01*
X0083574Y0102124D01*
X0082786Y0101336D01*
X0071536Y0090086D01*
X0071110Y0089057D01*
X0071110Y0082943D01*
X0071536Y0081914D01*
X0072324Y0081126D01*
X0075410Y0078040D01*
X0075410Y0077804D01*
X0075943Y0076517D01*
X0076927Y0075533D01*
X0078214Y0075000D01*
X0079606Y0075000D01*
X0080892Y0075533D01*
X0081877Y0076517D01*
X0082410Y0077804D01*
X0082410Y0079196D01*
X0081877Y0080483D01*
X0080892Y0081467D01*
X0079606Y0082000D01*
X0079370Y0082000D01*
X0079351Y0082019D01*
X0080352Y0082019D01*
X0081533Y0083200D01*
X0083217Y0083200D01*
X0084246Y0083626D01*
X0084660Y0084040D01*
X0084660Y0077243D01*
X0081417Y0074000D01*
X0058902Y0074000D01*
X0054359Y0078543D01*
X0053257Y0079000D01*
X0048902Y0079000D01*
X0043160Y0084743D01*
X0043160Y0128844D01*
X0043247Y0128880D01*
X0044710Y0130343D01*
X0044710Y0129960D01*
X0044860Y0129401D01*
X0045149Y0128899D01*
X0045559Y0128490D01*
X0046061Y0128200D01*
X0046620Y0128050D01*
X0050160Y0128050D01*
X0052660Y0128050D01*
X0052660Y0115760D01*
X0050691Y0113791D01*
X0047962Y0113791D01*
X0044771Y0110599D01*
X0044771Y0106086D01*
X0047435Y0103421D01*
X0044771Y0100757D01*
X0044771Y0096243D01*
X0046909Y0094105D01*
X0046681Y0094105D01*
X0046122Y0093956D01*
X0045620Y0093666D01*
X0045210Y0093256D01*
X0044921Y0092755D01*
X0044771Y0092195D01*
X0044771Y0088658D01*
X0050219Y0088658D01*
X0055667Y0088658D01*
X0055667Y0092195D01*
X0055517Y0092755D01*
X0055227Y0093256D01*
X0054818Y0093666D01*
X0054316Y0093956D01*
X0053757Y0094105D01*
X0053529Y0094105D01*
X0055667Y0096243D01*
X0055667Y0100189D01*
X0061689Y0106211D01*
X0062449Y0106971D01*
X0062860Y0107963D01*
X0062860Y0133070D01*
X0063535Y0133745D01*
X0064141Y0135208D01*
X0064141Y0136792D01*
X0063535Y0138255D01*
X0062415Y0139375D01*
X0060952Y0139981D01*
X0059368Y0139981D01*
X0058260Y0139522D01*
X0058260Y0171157D01*
X0057834Y0172186D01*
X0057046Y0172974D01*
X0055667Y0174353D01*
X0055667Y0178099D01*
X0052476Y0181291D01*
X0047962Y0181291D01*
X0044771Y0178099D01*
X0044771Y0173586D01*
X0047435Y0170921D01*
X0044771Y0168257D01*
X0044771Y0163743D01*
X0046909Y0161605D01*
X0046681Y0161605D01*
X0046122Y0161456D01*
X0045620Y0161166D01*
X0045210Y0160756D01*
X0044921Y0160255D01*
X0044771Y0159695D01*
X0044771Y0156158D01*
X0050219Y0156158D01*
X0050219Y0156157D01*
X0050219Y0150709D01*
X0052660Y0150709D01*
X0052660Y0138950D01*
X0050160Y0138950D01*
X0050160Y0133500D01*
X0050160Y0133500D01*
X0050160Y0128050D01*
X0050160Y0133500D01*
X0050160Y0133500D01*
X0050160Y0138950D01*
X0046620Y0138950D01*
X0046061Y0138800D01*
X0045559Y0138510D01*
X0045149Y0138101D01*
X0044860Y0137599D01*
X0044710Y0137040D01*
X0044710Y0136657D01*
X0043247Y0138120D01*
X0041244Y0138950D01*
X0039076Y0138950D01*
X0037073Y0138120D01*
X0035540Y0136587D01*
X0034710Y0134584D01*
X0034710Y0132416D01*
X0035540Y0130413D01*
X0037073Y0128880D01*
X0037160Y0128844D01*
X0037160Y0082903D01*
X0037617Y0081801D01*
X0045117Y0074301D01*
X0045960Y0073457D01*
X0047063Y0073000D01*
X0051417Y0073000D01*
X0052967Y0071450D01*
X0048499Y0071450D01*
X0047210Y0070161D01*
X0047210Y0069010D01*
X0046817Y0069550D01*
X0046210Y0070157D01*
X0045516Y0070661D01*
X0044752Y0071051D01*
X0043936Y0071316D01*
X0043089Y0071450D01*
X0042660Y0071450D01*
X0042660Y0066000D01*
X0042660Y0066000D01*
X0042660Y0060550D01*
X0043089Y0060550D01*
X0043936Y0060684D01*
X0044752Y0060949D01*
X0045516Y0061339D01*
X0046210Y0061843D01*
X0046817Y0062450D01*
X0047210Y0062990D01*
X0047210Y0061839D01*
X0048499Y0060550D01*
X0056821Y0060550D01*
X0058110Y0061839D01*
X0058110Y0065200D01*
X0092830Y0065200D01*
X0092905Y0065125D01*
X0094368Y0064519D01*
X0095952Y0064519D01*
X0097415Y0065125D01*
X0098535Y0066245D01*
X0099141Y0067708D01*
X0099141Y0069292D01*
X0098535Y0070755D01*
X0097415Y0071875D01*
X0096028Y0072450D01*
X0109705Y0072450D01*
X0110994Y0073738D01*
X0110994Y0087829D01*
X0110822Y0088000D01*
X0111417Y0088000D01*
X0120960Y0078457D01*
X0121202Y0078357D01*
X0126760Y0072799D01*
X0126760Y0053423D01*
X0127201Y0052357D01*
X0135017Y0044542D01*
X0135117Y0044301D01*
X0135960Y0043457D01*
X0137063Y0043000D01*
X0139179Y0043000D01*
X0138679Y0041792D01*
X0138679Y0040208D01*
X0139227Y0038885D01*
X0138630Y0038289D01*
X0137871Y0037529D01*
X0137460Y0036537D01*
X0137460Y0032118D01*
X0135667Y0030325D01*
X0135667Y0033257D01*
X0133002Y0035921D01*
X0135667Y0038586D01*
X0135667Y0043099D01*
X0132476Y0046291D01*
X0127962Y0046291D01*
X0127846Y0046174D01*
X0120660Y0053360D01*
X0120660Y0072450D01*
X0120827Y0072617D01*
X0121360Y0073904D01*
X0121360Y0075296D01*
X0120827Y0076583D01*
X0119842Y0077567D01*
X0118556Y0078100D01*
X0117164Y0078100D01*
X0115877Y0077567D01*
X0114893Y0076583D01*
X0114360Y0075296D01*
X0114360Y0073904D01*
X0114893Y0072617D01*
X0115060Y0072450D01*
X0115060Y0051643D01*
X0115486Y0050614D01*
X0124771Y0041329D01*
X0124771Y0038800D01*
X0120490Y0038800D01*
X0119915Y0039375D01*
X0118452Y0039981D01*
X0116868Y0039981D01*
X0115405Y0039375D01*
X0114285Y0038255D01*
X0113679Y0036792D01*
X0113679Y0035208D01*
X0114285Y0033745D01*
X0114530Y0033500D01*
X0114285Y0033255D01*
X0113679Y0031792D01*
X0113679Y0030208D01*
X0114285Y0028745D01*
X0115405Y0027625D01*
X0116868Y0027019D01*
X0117823Y0027019D01*
X0121130Y0023711D01*
X0122123Y0023300D01*
X0124771Y0023300D01*
X0124771Y0021158D01*
X0130219Y0021158D01*
X0135667Y0021158D01*
X0135667Y0023300D01*
X0135697Y0023300D01*
X0136689Y0023711D01*
X0137449Y0024471D01*
X0142449Y0029471D01*
X0142860Y0030463D01*
X0142860Y0034882D01*
X0144949Y0036971D01*
X0145360Y0037963D01*
X0145360Y0038070D01*
X0146035Y0038745D01*
X0146641Y0040208D01*
X0146641Y0041792D01*
X0146141Y0043000D01*
X0168257Y0043000D01*
X0169359Y0043457D01*
X0174326Y0048424D01*
X0174326Y0039171D01*
X0175615Y0037883D01*
X0189705Y0037883D01*
X0190994Y0039171D01*
X0190994Y0053262D01*
X0190079Y0054176D01*
X0193902Y0058000D01*
X0195757Y0058000D01*
X0196859Y0058457D01*
X0198502Y0060100D01*
X0223752Y0060100D01*
X0229777Y0054074D01*
X0230734Y0053118D01*
X0231984Y0052600D01*
X0241598Y0052600D01*
X0242847Y0053118D01*
X0243804Y0054074D01*
X0243989Y0054521D01*
X0245068Y0055600D01*
X0254326Y0055600D01*
X0254326Y0041671D01*
X0255615Y0040383D01*
X0269705Y0040383D01*
X0270994Y0041671D01*
X0270994Y0055165D01*
X0272086Y0055618D01*
X0270994Y0053767D02*
X0370154Y0053767D01*
X0369712Y0051369D02*
X0270994Y0051369D01*
X0270994Y0048970D02*
X0370380Y0048970D01*
X0373010Y0046572D02*
X0270994Y0046572D01*
X0270994Y0044173D02*
X0285845Y0044173D01*
X0284771Y0041775D02*
X0270994Y0041775D01*
X0284771Y0039376D02*
X0215667Y0039376D01*
X0215667Y0036978D02*
X0286379Y0036978D01*
X0286093Y0034579D02*
X0214160Y0034579D01*
X0214243Y0032181D02*
X0284771Y0032181D01*
X0284771Y0029782D02*
X0215667Y0029782D01*
X0215667Y0027384D02*
X0286131Y0027384D01*
X0284849Y0024985D02*
X0214409Y0024985D01*
X0215562Y0022587D02*
X0284771Y0022587D01*
X0284771Y0020188D02*
X0270994Y0020188D01*
X0270994Y0017790D02*
X0284771Y0017790D01*
X0289891Y0015391D02*
X0270994Y0015391D01*
X0270994Y0012993D02*
X0287493Y0012993D01*
X0285094Y0010594D02*
X0270994Y0010594D01*
X0270994Y0008196D02*
X0282696Y0008196D01*
X0290615Y0008196D02*
X0370042Y0008196D01*
X0371734Y0010594D02*
X0293014Y0010594D01*
X0295412Y0012993D02*
X0315509Y0012993D01*
X0315725Y0012776D02*
X0339595Y0012776D01*
X0340883Y0014065D01*
X0340883Y0020552D01*
X0342523Y0020552D01*
X0344525Y0021381D01*
X0346058Y0022914D01*
X0346887Y0024916D01*
X0346887Y0027084D01*
X0346058Y0029086D01*
X0344525Y0030619D01*
X0342523Y0031448D01*
X0340883Y0031448D01*
X0340883Y0037935D01*
X0339595Y0039224D01*
X0315725Y0039224D01*
X0314436Y0037935D01*
X0314436Y0014065D01*
X0315725Y0012776D01*
X0314436Y0015391D02*
X0297811Y0015391D01*
X0300209Y0017790D02*
X0314436Y0017790D01*
X0314436Y0020188D02*
X0302608Y0020188D01*
X0297087Y0022587D02*
X0295667Y0022587D01*
X0295589Y0024985D02*
X0299485Y0024985D01*
X0301898Y0027384D02*
X0294307Y0027384D01*
X0295667Y0029782D02*
X0304052Y0029782D01*
X0311897Y0029782D02*
X0314436Y0029782D01*
X0314436Y0032181D02*
X0295667Y0032181D01*
X0294344Y0034579D02*
X0314436Y0034579D01*
X0314436Y0036978D02*
X0294059Y0036978D01*
X0295667Y0039376D02*
X0369712Y0039376D01*
X0370089Y0041775D02*
X0295667Y0041775D01*
X0294593Y0044173D02*
X0371849Y0044173D01*
X0375160Y0046572D02*
X0375160Y0046572D01*
X0377310Y0046572D02*
X0387660Y0046572D01*
X0387660Y0048970D02*
X0379939Y0048970D01*
X0375160Y0048970D02*
X0375160Y0048970D01*
X0375160Y0051369D02*
X0375160Y0051369D01*
X0375160Y0053767D02*
X0375160Y0053767D01*
X0375160Y0056166D02*
X0375160Y0056166D01*
X0378131Y0056166D02*
X0387660Y0056166D01*
X0387660Y0058564D02*
X0275032Y0058564D01*
X0270160Y0058500D02*
X0269660Y0059000D01*
X0243660Y0059000D01*
X0240922Y0056262D01*
X0240922Y0056000D01*
X0232660Y0056000D01*
X0225160Y0063500D01*
X0197660Y0063500D01*
X0195111Y0065760D02*
X0135460Y0065760D01*
X0135460Y0068158D02*
X0232601Y0068158D01*
X0232160Y0065760D02*
X0227708Y0065760D01*
X0228042Y0065426D02*
X0228042Y0065426D01*
X0230107Y0063361D02*
X0232800Y0063361D01*
X0232505Y0060963D02*
X0235449Y0060963D01*
X0239871Y0060963D02*
X0240814Y0060963D01*
X0242520Y0063361D02*
X0270213Y0063361D01*
X0272160Y0065760D02*
X0243160Y0065760D01*
X0242719Y0068158D02*
X0272601Y0068158D01*
X0274439Y0070557D02*
X0241060Y0070557D01*
X0241060Y0072955D02*
X0255109Y0072955D01*
X0255615Y0072450D02*
X0254326Y0073738D01*
X0254326Y0087829D01*
X0255615Y0089117D01*
X0269705Y0089117D01*
X0270994Y0087829D01*
X0270994Y0073738D01*
X0269705Y0072450D01*
X0255615Y0072450D01*
X0254326Y0075354D02*
X0241060Y0075354D01*
X0241060Y0077752D02*
X0254326Y0077752D01*
X0254326Y0080151D02*
X0241060Y0080151D01*
X0241060Y0082549D02*
X0254326Y0082549D01*
X0254326Y0084948D02*
X0241060Y0084948D01*
X0241060Y0087346D02*
X0254326Y0087346D01*
X0241060Y0089745D02*
X0281460Y0089745D01*
X0281460Y0092143D02*
X0241060Y0092143D01*
X0241060Y0094542D02*
X0281460Y0094542D01*
X0281460Y0096940D02*
X0241060Y0096940D01*
X0241060Y0099339D02*
X0281460Y0099339D01*
X0281460Y0101737D02*
X0241060Y0101737D01*
X0241060Y0104136D02*
X0281534Y0104136D01*
X0283435Y0106534D02*
X0241060Y0106534D01*
X0241060Y0108933D02*
X0254564Y0108933D01*
X0254326Y0111332D02*
X0241060Y0111332D01*
X0241060Y0113730D02*
X0254326Y0113730D01*
X0254326Y0116129D02*
X0241060Y0116129D01*
X0241060Y0118527D02*
X0254326Y0118527D01*
X0254326Y0120926D02*
X0241060Y0120926D01*
X0241060Y0123324D02*
X0254388Y0123324D01*
X0241728Y0125723D02*
X0241060Y0125723D01*
X0255361Y0135317D02*
X0284263Y0135317D01*
X0284260Y0137715D02*
X0253723Y0137715D01*
X0255451Y0140114D02*
X0245460Y0140114D01*
X0245460Y0142512D02*
X0254326Y0142512D01*
X0254326Y0144911D02*
X0245460Y0144911D01*
X0245460Y0147309D02*
X0254326Y0147309D01*
X0254326Y0149708D02*
X0245460Y0149708D01*
X0245851Y0152106D02*
X0254326Y0152106D01*
X0254326Y0154505D02*
X0248249Y0154505D01*
X0250648Y0156903D02*
X0266948Y0156903D01*
X0264550Y0159302D02*
X0253046Y0159302D01*
X0256435Y0161700D02*
X0262151Y0161700D01*
X0266971Y0166497D02*
X0284771Y0166497D01*
X0284771Y0164099D02*
X0269369Y0164099D01*
X0271768Y0161700D02*
X0286814Y0161700D01*
X0284771Y0159302D02*
X0274166Y0159302D01*
X0276565Y0156903D02*
X0284771Y0156903D01*
X0284771Y0156157D02*
X0284771Y0152620D01*
X0284921Y0152060D01*
X0285210Y0151559D01*
X0285620Y0151149D01*
X0286122Y0150859D01*
X0286681Y0150709D01*
X0290219Y0150709D01*
X0290219Y0156157D01*
X0290219Y0156157D01*
X0284771Y0156157D01*
X0284771Y0154505D02*
X0278963Y0154505D01*
X0281362Y0152106D02*
X0284908Y0152106D01*
X0283760Y0149708D02*
X0292660Y0149708D01*
X0290219Y0152106D02*
X0290219Y0152106D01*
X0290219Y0154505D02*
X0290219Y0154505D01*
X0298260Y0154505D02*
X0370388Y0154505D01*
X0369712Y0156903D02*
X0298260Y0156903D01*
X0298260Y0159302D02*
X0314436Y0159302D01*
X0314436Y0159065D02*
X0315725Y0157776D01*
X0339595Y0157776D01*
X0340883Y0159065D01*
X0340883Y0165552D01*
X0342523Y0165552D01*
X0344525Y0166381D01*
X0346058Y0167914D01*
X0346887Y0169916D01*
X0346887Y0172084D01*
X0346058Y0174086D01*
X0344525Y0175619D01*
X0342523Y0176448D01*
X0340883Y0176448D01*
X0340883Y0182935D01*
X0339595Y0184224D01*
X0315725Y0184224D01*
X0314436Y0182935D01*
X0314436Y0159065D01*
X0314436Y0161700D02*
X0298260Y0161700D01*
X0298260Y0164099D02*
X0314436Y0164099D01*
X0314436Y0166497D02*
X0311177Y0166497D01*
X0313000Y0168896D02*
X0314436Y0168896D01*
X0314436Y0171294D02*
X0313423Y0171294D01*
X0312756Y0173693D02*
X0314436Y0173693D01*
X0314436Y0176091D02*
X0309920Y0176091D01*
X0306030Y0176091D02*
X0295667Y0176091D01*
X0295276Y0178490D02*
X0314436Y0178490D01*
X0314436Y0180888D02*
X0292878Y0180888D01*
X0287560Y0180888D02*
X0270994Y0180888D01*
X0270994Y0178490D02*
X0285162Y0178490D01*
X0284771Y0176091D02*
X0270414Y0176091D01*
X0257174Y0171294D02*
X0287062Y0171294D01*
X0285410Y0168896D02*
X0264553Y0168896D01*
X0254775Y0173693D02*
X0284771Y0173693D01*
X0298260Y0168896D02*
X0302949Y0168896D01*
X0304773Y0166497D02*
X0298260Y0166497D01*
X0298260Y0152106D02*
X0373270Y0152106D01*
X0373884Y0150723D02*
X0373069Y0150458D01*
X0372304Y0150069D01*
X0371611Y0149565D01*
X0371004Y0148959D01*
X0370500Y0148265D01*
X0370111Y0147501D01*
X0369846Y0146685D01*
X0369712Y0145838D01*
X0369712Y0145409D01*
X0369712Y0144981D01*
X0369846Y0144134D01*
X0370111Y0143318D01*
X0370500Y0142554D01*
X0371004Y0141860D01*
X0371611Y0141254D01*
X0372304Y0140750D01*
X0373069Y0140361D01*
X0373884Y0140096D01*
X0374731Y0139961D01*
X0375160Y0139961D01*
X0375589Y0139961D01*
X0376436Y0140096D01*
X0377251Y0140361D01*
X0378015Y0140750D01*
X0378709Y0141254D01*
X0379315Y0141860D01*
X0379819Y0142554D01*
X0380209Y0143318D01*
X0380474Y0144134D01*
X0380608Y0144981D01*
X0380608Y0145409D01*
X0375160Y0145409D01*
X0375160Y0139961D01*
X0375160Y0145409D01*
X0375160Y0145409D01*
X0375160Y0145409D01*
X0369712Y0145409D01*
X0375160Y0145409D01*
X0375160Y0145409D01*
X0380608Y0145409D01*
X0380608Y0145838D01*
X0380474Y0146685D01*
X0380209Y0147501D01*
X0379819Y0148265D01*
X0379315Y0148959D01*
X0378709Y0149565D01*
X0378015Y0150069D01*
X0377251Y0150458D01*
X0376436Y0150723D01*
X0375589Y0150857D01*
X0375160Y0150857D01*
X0375160Y0145410D01*
X0375160Y0145410D01*
X0375160Y0150857D01*
X0374731Y0150857D01*
X0373884Y0150723D01*
X0375160Y0149708D02*
X0375160Y0149708D01*
X0377049Y0152106D02*
X0387660Y0152106D01*
X0387660Y0149708D02*
X0378513Y0149708D01*
X0371807Y0149708D02*
X0298260Y0149708D01*
X0298260Y0147309D02*
X0370049Y0147309D01*
X0369723Y0144911D02*
X0298260Y0144911D01*
X0298260Y0142512D02*
X0370531Y0142512D01*
X0373828Y0140114D02*
X0298260Y0140114D01*
X0292660Y0140114D02*
X0291060Y0140114D01*
X0290714Y0142512D02*
X0292660Y0142512D01*
X0292660Y0144911D02*
X0288557Y0144911D01*
X0286159Y0147309D02*
X0292660Y0147309D01*
X0283738Y0140114D02*
X0269869Y0140114D01*
X0270994Y0142512D02*
X0281339Y0142512D01*
X0278941Y0144911D02*
X0270994Y0144911D01*
X0270994Y0147309D02*
X0276542Y0147309D01*
X0274144Y0149708D02*
X0270994Y0149708D01*
X0270994Y0152106D02*
X0271745Y0152106D01*
X0249924Y0164099D02*
X0236915Y0164099D01*
X0237860Y0161700D02*
X0247525Y0161700D01*
X0245127Y0159302D02*
X0237860Y0159302D01*
X0235917Y0156903D02*
X0242728Y0156903D01*
X0240330Y0154505D02*
X0236509Y0154505D01*
X0237860Y0152106D02*
X0239860Y0152106D01*
X0239860Y0149708D02*
X0237860Y0149708D01*
X0236323Y0147309D02*
X0239860Y0147309D01*
X0239860Y0144911D02*
X0236103Y0144911D01*
X0237860Y0142512D02*
X0239860Y0142512D01*
X0239860Y0140114D02*
X0238354Y0140114D01*
X0237660Y0136000D02*
X0232660Y0141000D01*
X0222660Y0141000D01*
X0219217Y0144911D02*
X0217560Y0144911D01*
X0216452Y0147309D02*
X0218997Y0147309D01*
X0217460Y0149708D02*
X0213701Y0149708D01*
X0213757Y0150709D02*
X0214316Y0150859D01*
X0214818Y0151149D01*
X0215227Y0151559D01*
X0215517Y0152060D01*
X0215667Y0152620D01*
X0215667Y0156157D01*
X0210219Y0156157D01*
X0210219Y0150709D01*
X0213757Y0150709D01*
X0215529Y0152106D02*
X0217460Y0152106D01*
X0218811Y0154505D02*
X0215667Y0154505D01*
X0215667Y0156158D02*
X0210219Y0156158D01*
X0210219Y0156157D01*
X0210219Y0156157D01*
X0210219Y0150709D01*
X0206681Y0150709D01*
X0206122Y0150859D01*
X0205620Y0151149D01*
X0205210Y0151559D01*
X0204921Y0152060D01*
X0204771Y0152620D01*
X0204771Y0156157D01*
X0210219Y0156157D01*
X0210219Y0156158D01*
X0204771Y0156158D01*
X0204771Y0159695D01*
X0204921Y0160255D01*
X0205210Y0160756D01*
X0205620Y0161166D01*
X0206122Y0161456D01*
X0206681Y0161605D01*
X0206909Y0161605D01*
X0204771Y0163743D01*
X0204771Y0168257D01*
X0207435Y0170921D01*
X0204771Y0173586D01*
X0204771Y0178099D01*
X0207962Y0181291D01*
X0212476Y0181291D01*
X0215667Y0178099D01*
X0215667Y0173586D01*
X0213002Y0170921D01*
X0215667Y0168257D01*
X0215667Y0163743D01*
X0213529Y0161605D01*
X0213757Y0161605D01*
X0214316Y0161456D01*
X0214818Y0161166D01*
X0215227Y0160756D01*
X0215517Y0160255D01*
X0215667Y0159695D01*
X0215667Y0156158D01*
X0215667Y0156903D02*
X0219403Y0156903D01*
X0217460Y0159302D02*
X0215667Y0159302D01*
X0217460Y0161700D02*
X0213624Y0161700D01*
X0215667Y0164099D02*
X0218405Y0164099D01*
X0219809Y0166497D02*
X0215667Y0166497D01*
X0215028Y0168896D02*
X0217460Y0168896D01*
X0217460Y0171294D02*
X0213375Y0171294D01*
X0215667Y0173693D02*
X0217999Y0173693D01*
X0220215Y0176091D02*
X0215667Y0176091D01*
X0215276Y0178490D02*
X0217816Y0178490D01*
X0217460Y0180888D02*
X0212878Y0180888D01*
X0207560Y0180888D02*
X0199402Y0180888D01*
X0200641Y0178490D02*
X0205162Y0178490D01*
X0204771Y0176091D02*
X0200178Y0176091D01*
X0196912Y0173693D02*
X0204771Y0173693D01*
X0207062Y0171294D02*
X0194514Y0171294D01*
X0192115Y0168896D02*
X0205410Y0168896D01*
X0204771Y0166497D02*
X0189717Y0166497D01*
X0187318Y0164099D02*
X0204771Y0164099D01*
X0206814Y0161700D02*
X0184920Y0161700D01*
X0179399Y0164099D02*
X0140460Y0164099D01*
X0140460Y0166497D02*
X0181797Y0166497D01*
X0184196Y0168896D02*
X0140460Y0168896D01*
X0138725Y0171294D02*
X0186594Y0171294D01*
X0188993Y0173693D02*
X0136327Y0173693D01*
X0135667Y0176091D02*
X0174906Y0176091D01*
X0174326Y0178490D02*
X0135276Y0178490D01*
X0132878Y0180888D02*
X0174326Y0180888D01*
X0174326Y0183287D02*
X0110994Y0183287D01*
X0110994Y0185685D02*
X0174326Y0185685D01*
X0174326Y0188084D02*
X0110994Y0188084D01*
X0110994Y0190482D02*
X0174326Y0190482D01*
X0190994Y0190482D02*
X0203512Y0190482D01*
X0202679Y0188084D02*
X0190994Y0188084D01*
X0190994Y0185685D02*
X0203344Y0185685D01*
X0209975Y0185685D02*
X0219991Y0185685D01*
X0217593Y0183287D02*
X0190994Y0183287D01*
X0190994Y0180888D02*
X0193918Y0180888D01*
X0192679Y0178490D02*
X0190994Y0178490D01*
X0191391Y0176091D02*
X0190414Y0176091D01*
X0210704Y0188084D02*
X0254326Y0188084D01*
X0254326Y0185685D02*
X0235328Y0185685D01*
X0229991Y0185685D02*
X0225328Y0185685D01*
X0235105Y0176091D02*
X0242760Y0176091D01*
X0245159Y0173693D02*
X0237321Y0173693D01*
X0237860Y0171294D02*
X0247557Y0171294D01*
X0249956Y0168896D02*
X0237860Y0168896D01*
X0235511Y0166497D02*
X0251332Y0166497D01*
X0252377Y0176091D02*
X0254906Y0176091D01*
X0254326Y0178490D02*
X0249978Y0178490D01*
X0247580Y0180888D02*
X0254326Y0180888D01*
X0254326Y0183287D02*
X0245181Y0183287D01*
X0270994Y0183287D02*
X0314788Y0183287D01*
X0340531Y0183287D02*
X0348272Y0183287D01*
X0346760Y0185685D02*
X0270994Y0185685D01*
X0270994Y0188084D02*
X0346760Y0188084D01*
X0352560Y0188084D02*
X0370340Y0188084D01*
X0369712Y0190482D02*
X0352560Y0190482D01*
X0354076Y0185685D02*
X0372994Y0185685D01*
X0377326Y0185685D02*
X0387660Y0185685D01*
X0387660Y0188084D02*
X0379979Y0188084D01*
X0380608Y0190482D02*
X0387660Y0190482D01*
X0362288Y0183287D02*
X0358003Y0183287D01*
X0358641Y0180888D02*
X0361936Y0180888D01*
X0361936Y0178490D02*
X0357780Y0178490D01*
X0356106Y0175660D02*
X0355342Y0176049D01*
X0354526Y0176314D01*
X0353679Y0176448D01*
X0353250Y0176448D01*
X0352822Y0176448D01*
X0351975Y0176314D01*
X0351159Y0176049D01*
X0350395Y0175660D01*
X0349701Y0175156D01*
X0349095Y0174549D01*
X0348591Y0173855D01*
X0348202Y0173091D01*
X0347937Y0172276D01*
X0347802Y0171429D01*
X0347802Y0171000D01*
X0347802Y0170571D01*
X0347937Y0169724D01*
X0348202Y0168909D01*
X0348591Y0168145D01*
X0349095Y0167451D01*
X0349701Y0166844D01*
X0350395Y0166340D01*
X0351159Y0165951D01*
X0351975Y0165686D01*
X0352822Y0165552D01*
X0353250Y0165552D01*
X0353250Y0171000D01*
X0347802Y0171000D01*
X0353250Y0171000D01*
X0353250Y0171000D01*
X0353250Y0176448D01*
X0353250Y0171000D01*
X0353250Y0171000D01*
X0353250Y0171000D01*
X0353250Y0165552D01*
X0353679Y0165552D01*
X0354526Y0165686D01*
X0355342Y0165951D01*
X0356106Y0166340D01*
X0356800Y0166844D01*
X0357406Y0167451D01*
X0357910Y0168145D01*
X0358299Y0168909D01*
X0358564Y0169724D01*
X0358698Y0170571D01*
X0358698Y0171000D01*
X0358698Y0171429D01*
X0358564Y0172276D01*
X0358299Y0173091D01*
X0357910Y0173855D01*
X0357406Y0174549D01*
X0356800Y0175156D01*
X0356106Y0175660D01*
X0355211Y0176091D02*
X0361936Y0176091D01*
X0361936Y0173693D02*
X0357993Y0173693D01*
X0353250Y0173693D02*
X0353250Y0173693D01*
X0353250Y0176091D02*
X0353250Y0176091D01*
X0351290Y0176091D02*
X0343384Y0176091D01*
X0340883Y0178490D02*
X0351540Y0178490D01*
X0350670Y0180888D02*
X0340883Y0180888D01*
X0346221Y0173693D02*
X0348508Y0173693D01*
X0347802Y0171294D02*
X0346887Y0171294D01*
X0346465Y0168896D02*
X0348208Y0168896D01*
X0350179Y0166497D02*
X0344641Y0166497D01*
X0340883Y0164099D02*
X0361936Y0164099D01*
X0361936Y0166497D02*
X0356322Y0166497D01*
X0353250Y0166497D02*
X0353250Y0166497D01*
X0353250Y0168896D02*
X0353250Y0168896D01*
X0353251Y0171000D02*
X0353251Y0171000D01*
X0358698Y0171000D01*
X0353251Y0171000D01*
X0353250Y0171294D02*
X0353250Y0171294D01*
X0358698Y0171294D02*
X0361936Y0171294D01*
X0361936Y0168896D02*
X0358293Y0168896D01*
X0361936Y0161700D02*
X0340883Y0161700D01*
X0340883Y0159302D02*
X0361936Y0159302D01*
X0379932Y0154505D02*
X0387660Y0154505D01*
X0387660Y0156903D02*
X0380608Y0156903D01*
X0380271Y0147309D02*
X0387660Y0147309D01*
X0387660Y0144911D02*
X0380597Y0144911D01*
X0379789Y0142512D02*
X0387660Y0142512D01*
X0387660Y0140114D02*
X0376491Y0140114D01*
X0375160Y0140114D02*
X0375160Y0140114D01*
X0375160Y0142512D02*
X0375160Y0142512D01*
X0375160Y0144911D02*
X0375160Y0144911D01*
X0375160Y0147309D02*
X0375160Y0147309D01*
X0304895Y0128121D02*
X0298260Y0128121D01*
X0292660Y0128121D02*
X0291546Y0128121D01*
X0298260Y0125723D02*
X0302999Y0125723D01*
X0302527Y0123324D02*
X0298260Y0123324D01*
X0298260Y0120926D02*
X0303144Y0120926D01*
X0305744Y0118527D02*
X0298260Y0118527D01*
X0287902Y0113730D02*
X0270994Y0113730D01*
X0270994Y0111332D02*
X0285503Y0111332D01*
X0284771Y0108933D02*
X0270755Y0108933D01*
X0234260Y0101737D02*
X0232963Y0101737D01*
X0234260Y0099339D02*
X0231164Y0099339D01*
X0229365Y0096940D02*
X0234260Y0096940D01*
X0234260Y0094542D02*
X0227587Y0094542D01*
X0234260Y0092143D02*
X0215667Y0092143D01*
X0215667Y0089745D02*
X0234260Y0089745D01*
X0234260Y0087346D02*
X0215667Y0087346D01*
X0215621Y0084948D02*
X0234260Y0084948D01*
X0234260Y0082549D02*
X0212641Y0082549D01*
X0212203Y0080151D02*
X0234260Y0080151D01*
X0234260Y0077752D02*
X0207867Y0077752D01*
X0210936Y0075354D02*
X0234260Y0075354D01*
X0234260Y0072955D02*
X0211641Y0072955D01*
X0210847Y0070557D02*
X0234260Y0070557D01*
X0237660Y0066000D02*
X0237660Y0136000D01*
X0245460Y0137715D02*
X0246597Y0137715D01*
X0232660Y0151000D02*
X0232660Y0151000D01*
X0232660Y0152106D02*
X0232660Y0152106D01*
X0232660Y0154505D02*
X0232660Y0154505D01*
X0232660Y0156903D02*
X0232660Y0156903D01*
X0232660Y0159302D02*
X0232660Y0159302D01*
X0232660Y0161000D02*
X0232660Y0161000D01*
X0232660Y0161700D02*
X0232660Y0161700D01*
X0232660Y0164099D02*
X0232660Y0164099D01*
X0232660Y0166497D02*
X0232660Y0166497D01*
X0232660Y0168896D02*
X0232660Y0168896D01*
X0232660Y0171000D02*
X0232660Y0171000D01*
X0222660Y0171000D02*
X0222660Y0171000D01*
X0222660Y0168896D02*
X0222660Y0168896D01*
X0222660Y0166497D02*
X0222660Y0166497D01*
X0222660Y0164099D02*
X0222660Y0164099D01*
X0222660Y0161700D02*
X0222660Y0161700D01*
X0222660Y0161000D02*
X0222660Y0161000D01*
X0222660Y0159302D02*
X0222660Y0159302D01*
X0222660Y0156903D02*
X0222660Y0156903D01*
X0222660Y0154505D02*
X0222660Y0154505D01*
X0222660Y0152106D02*
X0222660Y0152106D01*
X0222660Y0151000D02*
X0222660Y0151000D01*
X0210219Y0152106D02*
X0210219Y0152106D01*
X0210208Y0149708D02*
X0190994Y0149708D01*
X0190994Y0152106D02*
X0204908Y0152106D01*
X0204771Y0154505D02*
X0190994Y0154505D01*
X0182521Y0159302D02*
X0204771Y0159302D01*
X0204771Y0156903D02*
X0180123Y0156903D01*
X0174602Y0159302D02*
X0167488Y0159302D01*
X0169095Y0156903D02*
X0172203Y0156903D01*
X0169805Y0154505D02*
X0168850Y0154505D01*
X0162831Y0159302D02*
X0156637Y0159302D01*
X0155090Y0161700D02*
X0177000Y0161700D01*
X0152695Y0154505D02*
X0149910Y0154505D01*
X0149012Y0156903D02*
X0140460Y0156903D01*
X0140460Y0154505D02*
X0146609Y0154505D01*
X0144764Y0152106D02*
X0140460Y0152106D01*
X0140155Y0149708D02*
X0145172Y0149708D01*
X0137929Y0147309D02*
X0169860Y0147309D01*
X0169860Y0144911D02*
X0166459Y0144911D01*
X0168857Y0142512D02*
X0169860Y0142512D01*
X0165735Y0137715D02*
X0132960Y0137715D01*
X0132960Y0135317D02*
X0168133Y0135317D01*
X0170532Y0132918D02*
X0132960Y0132918D01*
X0132960Y0130520D02*
X0172930Y0130520D01*
X0175329Y0128121D02*
X0132960Y0128121D01*
X0127360Y0128121D02*
X0109499Y0128121D01*
X0107100Y0130520D02*
X0127360Y0130520D01*
X0127360Y0132918D02*
X0104702Y0132918D01*
X0102303Y0135317D02*
X0127360Y0135317D01*
X0127360Y0137715D02*
X0099904Y0137715D01*
X0099409Y0138211D02*
X0098621Y0138999D01*
X0097592Y0139425D01*
X0084185Y0139425D01*
X0084017Y0139592D01*
X0082731Y0140125D01*
X0081606Y0140125D01*
X0081641Y0140208D01*
X0081641Y0141792D01*
X0081035Y0143255D01*
X0079915Y0144375D01*
X0078452Y0144981D01*
X0076868Y0144981D01*
X0075405Y0144375D01*
X0074285Y0143255D01*
X0073679Y0141792D01*
X0073679Y0140208D01*
X0074285Y0138745D01*
X0074860Y0138170D01*
X0074860Y0130443D01*
X0075286Y0129414D01*
X0076074Y0128626D01*
X0081685Y0123015D01*
X0081179Y0121792D01*
X0081179Y0120208D01*
X0081785Y0118745D01*
X0082905Y0117625D01*
X0084368Y0117019D01*
X0085952Y0117019D01*
X0087415Y0117625D01*
X0088535Y0118745D01*
X0089141Y0120208D01*
X0089141Y0121792D01*
X0088535Y0123255D01*
X0087960Y0123830D01*
X0087960Y0124057D01*
X0087534Y0125086D01*
X0080460Y0132160D01*
X0080460Y0133489D01*
X0081339Y0133125D01*
X0082731Y0133125D01*
X0084017Y0133658D01*
X0084185Y0133825D01*
X0095875Y0133825D01*
X0105150Y0124550D01*
X0095615Y0124550D01*
X0094326Y0123262D01*
X0094326Y0109171D01*
X0095615Y0107883D01*
X0109705Y0107883D01*
X0110994Y0109171D01*
X0110994Y0119450D01*
X0114260Y0119450D01*
X0114427Y0119283D01*
X0115714Y0118750D01*
X0117106Y0118750D01*
X0118392Y0119283D01*
X0119377Y0120267D01*
X0119910Y0121554D01*
X0119910Y0122946D01*
X0119377Y0124233D01*
X0118392Y0125217D01*
X0117106Y0125750D01*
X0115714Y0125750D01*
X0114427Y0125217D01*
X0114260Y0125050D01*
X0112570Y0125050D01*
X0099409Y0138211D01*
X0095615Y0139950D02*
X0109705Y0139950D01*
X0110994Y0141238D01*
X0110994Y0155329D01*
X0109705Y0156617D01*
X0095615Y0156617D01*
X0094326Y0155329D01*
X0094326Y0141238D01*
X0095615Y0139950D01*
X0095451Y0140114D02*
X0082758Y0140114D01*
X0081343Y0142512D02*
X0094326Y0142512D01*
X0094326Y0144911D02*
X0078622Y0144911D01*
X0076698Y0144911D02*
X0058260Y0144911D01*
X0058260Y0147309D02*
X0094326Y0147309D01*
X0094326Y0149708D02*
X0058260Y0149708D01*
X0058260Y0152106D02*
X0094326Y0152106D01*
X0094326Y0154505D02*
X0058260Y0154505D01*
X0058260Y0156903D02*
X0124771Y0156903D01*
X0124771Y0156157D02*
X0124771Y0152620D01*
X0124921Y0152060D01*
X0125210Y0151559D01*
X0125620Y0151149D01*
X0126122Y0150859D01*
X0126681Y0150709D01*
X0130219Y0150709D01*
X0130219Y0156157D01*
X0130219Y0156157D01*
X0124771Y0156157D01*
X0124771Y0154505D02*
X0110994Y0154505D01*
X0110994Y0152106D02*
X0124908Y0152106D01*
X0130219Y0152106D02*
X0130219Y0152106D01*
X0130219Y0154505D02*
X0130219Y0154505D01*
X0132408Y0149708D02*
X0110994Y0149708D01*
X0110994Y0147309D02*
X0130009Y0147309D01*
X0127713Y0144911D02*
X0110994Y0144911D01*
X0110994Y0142512D02*
X0127360Y0142512D01*
X0127360Y0140114D02*
X0109869Y0140114D01*
X0096782Y0132918D02*
X0080460Y0132918D01*
X0082100Y0130520D02*
X0099180Y0130520D01*
X0101579Y0128121D02*
X0084499Y0128121D01*
X0086897Y0125723D02*
X0103977Y0125723D01*
X0111897Y0125723D02*
X0115648Y0125723D01*
X0117172Y0125723D02*
X0127360Y0125723D01*
X0127360Y0123324D02*
X0119753Y0123324D01*
X0119650Y0120926D02*
X0128774Y0120926D01*
X0131173Y0118527D02*
X0110994Y0118527D01*
X0110994Y0116129D02*
X0132660Y0116129D01*
X0127902Y0113730D02*
X0110994Y0113730D01*
X0110994Y0111332D02*
X0125503Y0111332D01*
X0124771Y0108933D02*
X0110755Y0108933D01*
X0124771Y0106534D02*
X0062013Y0106534D01*
X0062860Y0108933D02*
X0094564Y0108933D01*
X0094326Y0111332D02*
X0062860Y0111332D01*
X0062860Y0113730D02*
X0094326Y0113730D01*
X0094326Y0116129D02*
X0062860Y0116129D01*
X0062860Y0118527D02*
X0082003Y0118527D01*
X0081179Y0120926D02*
X0062860Y0120926D01*
X0062860Y0123324D02*
X0081376Y0123324D01*
X0078977Y0125723D02*
X0062860Y0125723D01*
X0062860Y0128121D02*
X0076579Y0128121D01*
X0074860Y0130520D02*
X0062860Y0130520D01*
X0062860Y0132918D02*
X0074860Y0132918D01*
X0074860Y0135317D02*
X0064141Y0135317D01*
X0063759Y0137715D02*
X0074860Y0137715D01*
X0073718Y0140114D02*
X0058260Y0140114D01*
X0058260Y0142512D02*
X0073977Y0142512D01*
X0052660Y0142512D02*
X0030994Y0142512D01*
X0030994Y0141238D02*
X0029705Y0139950D01*
X0015615Y0139950D01*
X0014326Y0141238D01*
X0014326Y0155329D01*
X0015615Y0156617D01*
X0029705Y0156617D01*
X0030994Y0155329D01*
X0030994Y0141238D01*
X0029869Y0140114D02*
X0052660Y0140114D01*
X0050160Y0137715D02*
X0050160Y0137715D01*
X0050160Y0135317D02*
X0050160Y0135317D01*
X0050160Y0132918D02*
X0050160Y0132918D01*
X0050160Y0130520D02*
X0050160Y0130520D01*
X0050160Y0128121D02*
X0050160Y0128121D01*
X0046355Y0128121D02*
X0043160Y0128121D01*
X0037160Y0128121D02*
X0018167Y0128121D01*
X0018659Y0130520D02*
X0035495Y0130520D01*
X0034710Y0132918D02*
X0018565Y0132918D01*
X0017571Y0135317D02*
X0035013Y0135317D01*
X0036668Y0137715D02*
X0015464Y0137715D01*
X0015451Y0140114D02*
X0007660Y0140114D01*
X0007660Y0142512D02*
X0014326Y0142512D01*
X0014326Y0144911D02*
X0007660Y0144911D01*
X0007660Y0147309D02*
X0014326Y0147309D01*
X0014326Y0149708D02*
X0007660Y0149708D01*
X0007660Y0152106D02*
X0014326Y0152106D01*
X0014326Y0154505D02*
X0007660Y0154505D01*
X0007660Y0156903D02*
X0044771Y0156903D01*
X0044771Y0156157D02*
X0044771Y0152620D01*
X0044921Y0152060D01*
X0045210Y0151559D01*
X0045620Y0151149D01*
X0046122Y0150859D01*
X0046681Y0150709D01*
X0050219Y0150709D01*
X0050219Y0156157D01*
X0050219Y0156157D01*
X0044771Y0156157D01*
X0044771Y0154505D02*
X0030994Y0154505D01*
X0030994Y0152106D02*
X0044908Y0152106D01*
X0050219Y0152106D02*
X0050219Y0152106D01*
X0050219Y0154505D02*
X0050219Y0154505D01*
X0052660Y0149708D02*
X0030994Y0149708D01*
X0030994Y0147309D02*
X0052660Y0147309D01*
X0052660Y0144911D02*
X0030994Y0144911D01*
X0043652Y0137715D02*
X0044927Y0137715D01*
X0043160Y0125723D02*
X0052660Y0125723D01*
X0052660Y0123324D02*
X0043160Y0123324D01*
X0043160Y0120926D02*
X0052660Y0120926D01*
X0052660Y0118527D02*
X0043160Y0118527D01*
X0037160Y0118527D02*
X0030994Y0118527D01*
X0030994Y0120926D02*
X0037160Y0120926D01*
X0037160Y0123324D02*
X0030931Y0123324D01*
X0037160Y0125723D02*
X0016902Y0125723D01*
X0014388Y0123324D02*
X0013838Y0123324D01*
X0014326Y0120926D02*
X0007660Y0120926D01*
X0007660Y0118527D02*
X0014326Y0118527D01*
X0014326Y0116129D02*
X0007660Y0116129D01*
X0007660Y0113730D02*
X0014326Y0113730D01*
X0014326Y0111332D02*
X0007660Y0111332D01*
X0007660Y0108933D02*
X0014564Y0108933D01*
X0007660Y0106534D02*
X0037160Y0106534D01*
X0037160Y0108933D02*
X0030755Y0108933D01*
X0030994Y0111332D02*
X0037160Y0111332D01*
X0037160Y0113730D02*
X0030994Y0113730D01*
X0030994Y0116129D02*
X0037160Y0116129D01*
X0043160Y0116129D02*
X0052660Y0116129D01*
X0047902Y0113730D02*
X0043160Y0113730D01*
X0043160Y0111332D02*
X0045503Y0111332D01*
X0044771Y0108933D02*
X0043160Y0108933D01*
X0043160Y0106534D02*
X0044771Y0106534D01*
X0043160Y0104136D02*
X0046721Y0104136D01*
X0045752Y0101737D02*
X0043160Y0101737D01*
X0043160Y0099339D02*
X0044771Y0099339D01*
X0044771Y0096940D02*
X0043160Y0096940D01*
X0043160Y0094542D02*
X0046472Y0094542D01*
X0044771Y0092143D02*
X0043160Y0092143D01*
X0043160Y0089745D02*
X0044771Y0089745D01*
X0044771Y0088657D02*
X0044771Y0085120D01*
X0044921Y0084560D01*
X0045210Y0084059D01*
X0045620Y0083649D01*
X0046122Y0083359D01*
X0046681Y0083209D01*
X0050219Y0083209D01*
X0053757Y0083209D01*
X0054316Y0083359D01*
X0054818Y0083649D01*
X0055227Y0084059D01*
X0055517Y0084560D01*
X0055667Y0085120D01*
X0055667Y0088657D01*
X0050219Y0088657D01*
X0050219Y0083209D01*
X0050219Y0088657D01*
X0050219Y0088657D01*
X0050219Y0088658D01*
X0050219Y0088657D01*
X0044771Y0088657D01*
X0044771Y0087346D02*
X0043160Y0087346D01*
X0043160Y0084948D02*
X0044817Y0084948D01*
X0050219Y0084948D02*
X0050219Y0084948D01*
X0050219Y0087346D02*
X0050219Y0087346D01*
X0055667Y0087346D02*
X0071110Y0087346D01*
X0071110Y0084948D02*
X0055621Y0084948D01*
X0055667Y0089745D02*
X0071395Y0089745D01*
X0073593Y0092143D02*
X0055667Y0092143D01*
X0053965Y0094542D02*
X0075992Y0094542D01*
X0078391Y0096940D02*
X0055667Y0096940D01*
X0055667Y0099339D02*
X0080789Y0099339D01*
X0083188Y0101737D02*
X0057216Y0101737D01*
X0059614Y0104136D02*
X0126721Y0104136D01*
X0125752Y0101737D02*
X0115882Y0101737D01*
X0118281Y0099339D02*
X0124771Y0099339D01*
X0124771Y0096940D02*
X0120679Y0096940D01*
X0123078Y0094542D02*
X0126472Y0094542D01*
X0133965Y0094542D02*
X0160308Y0094542D01*
X0161240Y0096940D02*
X0135667Y0096940D01*
X0135667Y0099339D02*
X0162869Y0099339D01*
X0167451Y0099339D02*
X0176825Y0099339D01*
X0183494Y0099339D02*
X0192180Y0099339D01*
X0193679Y0101737D02*
X0134686Y0101737D01*
X0133717Y0104136D02*
X0141179Y0104136D01*
X0141179Y0106534D02*
X0135667Y0106534D01*
X0135667Y0108933D02*
X0141419Y0108933D01*
X0136151Y0111332D02*
X0174326Y0111332D01*
X0174326Y0113730D02*
X0138130Y0113730D01*
X0138260Y0116129D02*
X0174326Y0116129D01*
X0174326Y0118527D02*
X0138260Y0118527D01*
X0136694Y0120926D02*
X0174326Y0120926D01*
X0174388Y0123324D02*
X0134296Y0123324D01*
X0132960Y0125723D02*
X0191737Y0125723D01*
X0190931Y0123324D02*
X0211760Y0123324D01*
X0211760Y0120926D02*
X0190994Y0120926D01*
X0190994Y0118527D02*
X0206179Y0118527D01*
X0203970Y0116129D02*
X0190994Y0116129D01*
X0190994Y0113730D02*
X0201572Y0113730D01*
X0199173Y0111332D02*
X0190994Y0111332D01*
X0190755Y0108933D02*
X0196774Y0108933D01*
X0174564Y0108933D02*
X0148900Y0108933D01*
X0158324Y0092143D02*
X0135667Y0092143D01*
X0135667Y0089745D02*
X0158371Y0089745D01*
X0160577Y0087346D02*
X0135667Y0087346D01*
X0136568Y0085483D02*
X0136035Y0084196D01*
X0136035Y0082804D01*
X0136568Y0081517D01*
X0137552Y0080533D01*
X0138839Y0080000D01*
X0139075Y0080000D01*
X0146035Y0073040D01*
X0146035Y0072804D01*
X0146568Y0071517D01*
X0147552Y0070533D01*
X0148839Y0070000D01*
X0150231Y0070000D01*
X0151517Y0070533D01*
X0152502Y0071517D01*
X0153035Y0072804D01*
X0153035Y0074196D01*
X0152502Y0075483D01*
X0151517Y0076467D01*
X0150231Y0077000D01*
X0149995Y0077000D01*
X0143035Y0083960D01*
X0143035Y0084196D01*
X0142502Y0085483D01*
X0141517Y0086467D01*
X0140231Y0087000D01*
X0138839Y0087000D01*
X0137552Y0086467D01*
X0136568Y0085483D01*
X0136346Y0084948D02*
X0135621Y0084948D01*
X0136140Y0082549D02*
X0130070Y0082549D01*
X0132469Y0080151D02*
X0138474Y0080151D01*
X0141323Y0077752D02*
X0134867Y0077752D01*
X0135460Y0075354D02*
X0143721Y0075354D01*
X0146035Y0072955D02*
X0135460Y0072955D01*
X0135460Y0070557D02*
X0147528Y0070557D01*
X0151541Y0070557D02*
X0204473Y0070557D01*
X0203679Y0072955D02*
X0190211Y0072955D01*
X0190994Y0075354D02*
X0202346Y0075354D01*
X0199948Y0077752D02*
X0190994Y0077752D01*
X0190994Y0080151D02*
X0197549Y0080151D01*
X0195151Y0082549D02*
X0190994Y0082549D01*
X0190994Y0084948D02*
X0193860Y0084948D01*
X0187383Y0094542D02*
X0184141Y0094542D01*
X0184141Y0096940D02*
X0189782Y0096940D01*
X0166201Y0087346D02*
X0163742Y0087346D01*
X0166494Y0084948D02*
X0142723Y0084948D01*
X0144445Y0082549D02*
X0169294Y0082549D01*
X0171025Y0082549D02*
X0174326Y0082549D01*
X0174326Y0080151D02*
X0146844Y0080151D01*
X0149242Y0077752D02*
X0174326Y0077752D01*
X0174326Y0075354D02*
X0152555Y0075354D01*
X0153035Y0072955D02*
X0175109Y0072955D01*
X0190778Y0063361D02*
X0135460Y0063361D01*
X0135460Y0060963D02*
X0178164Y0060963D01*
X0176011Y0058564D02*
X0135460Y0058564D01*
X0136454Y0056166D02*
X0173583Y0056166D01*
X0175117Y0057699D02*
X0175117Y0057699D01*
X0171184Y0053767D02*
X0145523Y0053767D01*
X0146641Y0051369D02*
X0168786Y0051369D01*
X0172474Y0046572D02*
X0174326Y0046572D01*
X0174326Y0044173D02*
X0170076Y0044173D01*
X0174326Y0041775D02*
X0146641Y0041775D01*
X0146296Y0039376D02*
X0174326Y0039376D01*
X0190994Y0039376D02*
X0204771Y0039376D01*
X0204771Y0036978D02*
X0144952Y0036978D01*
X0142860Y0034579D02*
X0206278Y0034579D01*
X0206195Y0032181D02*
X0142860Y0032181D01*
X0142578Y0029782D02*
X0202482Y0029782D01*
X0200084Y0027384D02*
X0140362Y0027384D01*
X0137963Y0024985D02*
X0197685Y0024985D01*
X0203206Y0022587D02*
X0204876Y0022587D01*
X0204771Y0020188D02*
X0200808Y0020188D01*
X0204771Y0018657D02*
X0204771Y0015120D01*
X0204921Y0014560D01*
X0205210Y0014059D01*
X0205620Y0013649D01*
X0206122Y0013359D01*
X0206681Y0013209D01*
X0210219Y0013209D01*
X0213757Y0013209D01*
X0214316Y0013359D01*
X0214818Y0013649D01*
X0215227Y0014059D01*
X0215517Y0014560D01*
X0215667Y0015120D01*
X0215667Y0018657D01*
X0210219Y0018657D01*
X0210219Y0013209D01*
X0210219Y0018657D01*
X0210219Y0018657D01*
X0210219Y0018658D01*
X0210219Y0018657D01*
X0204771Y0018657D01*
X0204771Y0017790D02*
X0190994Y0017790D01*
X0190994Y0015391D02*
X0204771Y0015391D01*
X0210219Y0015391D02*
X0210219Y0015391D01*
X0215667Y0015391D02*
X0254326Y0015391D01*
X0254326Y0012993D02*
X0190994Y0012993D01*
X0190994Y0010594D02*
X0254326Y0010594D01*
X0254326Y0008196D02*
X0190994Y0008196D01*
X0210219Y0017790D02*
X0210219Y0017790D01*
X0215667Y0017790D02*
X0254326Y0017790D01*
X0254326Y0020188D02*
X0215667Y0020188D01*
X0206029Y0024985D02*
X0205605Y0024985D01*
X0205946Y0041775D02*
X0190994Y0041775D01*
X0190994Y0044173D02*
X0254326Y0044173D01*
X0254326Y0041775D02*
X0214491Y0041775D01*
X0230084Y0053767D02*
X0190488Y0053767D01*
X0190994Y0051369D02*
X0254326Y0051369D01*
X0254326Y0053767D02*
X0243497Y0053767D01*
X0254326Y0048970D02*
X0190994Y0048970D01*
X0190994Y0046572D02*
X0254326Y0046572D01*
X0270160Y0058500D02*
X0277660Y0066000D01*
X0282719Y0068158D02*
X0286245Y0068158D01*
X0286260Y0070557D02*
X0280881Y0070557D01*
X0283160Y0065760D02*
X0285679Y0065760D01*
X0286668Y0063361D02*
X0282520Y0063361D01*
X0279871Y0060963D02*
X0315039Y0060963D01*
X0314436Y0063361D02*
X0292651Y0063361D01*
X0293641Y0065760D02*
X0314436Y0065760D01*
X0314436Y0068158D02*
X0309315Y0068158D01*
X0309058Y0068052D02*
X0311061Y0068881D01*
X0312593Y0070414D01*
X0313423Y0072416D01*
X0313423Y0074584D01*
X0312593Y0076586D01*
X0311061Y0078119D01*
X0309058Y0078948D01*
X0306891Y0078948D01*
X0304889Y0078119D01*
X0303356Y0076586D01*
X0302527Y0074584D01*
X0302527Y0072416D01*
X0303356Y0070414D01*
X0304889Y0068881D01*
X0306891Y0068052D01*
X0309058Y0068052D01*
X0306634Y0068158D02*
X0293075Y0068158D01*
X0291860Y0070557D02*
X0303297Y0070557D01*
X0302527Y0072955D02*
X0291860Y0072955D01*
X0291860Y0075354D02*
X0302846Y0075354D01*
X0304522Y0077752D02*
X0291860Y0077752D01*
X0291860Y0080151D02*
X0314436Y0080151D01*
X0314436Y0082549D02*
X0291449Y0082549D01*
X0285949Y0080151D02*
X0270994Y0080151D01*
X0270994Y0082549D02*
X0283551Y0082549D01*
X0281582Y0084948D02*
X0270994Y0084948D01*
X0270994Y0087346D02*
X0281460Y0087346D01*
X0295621Y0084948D02*
X0314436Y0084948D01*
X0314436Y0077752D02*
X0311427Y0077752D01*
X0313104Y0075354D02*
X0314436Y0075354D01*
X0314436Y0072955D02*
X0313423Y0072955D01*
X0312653Y0070557D02*
X0314436Y0070557D01*
X0286260Y0072955D02*
X0270211Y0072955D01*
X0270994Y0075354D02*
X0286260Y0075354D01*
X0286260Y0077752D02*
X0270994Y0077752D01*
X0227686Y0056166D02*
X0192068Y0056166D01*
X0196967Y0058564D02*
X0225287Y0058564D01*
X0188380Y0060963D02*
X0185156Y0060963D01*
X0138679Y0041775D02*
X0135667Y0041775D01*
X0135244Y0044173D02*
X0134593Y0044173D01*
X0132987Y0046572D02*
X0127448Y0046572D01*
X0125049Y0048970D02*
X0130588Y0048970D01*
X0128190Y0051369D02*
X0122651Y0051369D01*
X0120660Y0053767D02*
X0126760Y0053767D01*
X0126760Y0056166D02*
X0120660Y0056166D01*
X0120660Y0058564D02*
X0126760Y0058564D01*
X0126760Y0060963D02*
X0120660Y0060963D01*
X0115060Y0060963D02*
X0091641Y0060963D01*
X0090854Y0058564D02*
X0115060Y0058564D01*
X0115060Y0056166D02*
X0110590Y0056166D01*
X0110994Y0055762D02*
X0109705Y0057050D01*
X0095615Y0057050D01*
X0094326Y0055762D01*
X0094326Y0041671D01*
X0095615Y0040383D01*
X0109705Y0040383D01*
X0110994Y0041671D01*
X0110994Y0055762D01*
X0110994Y0053767D02*
X0115060Y0053767D01*
X0115173Y0051369D02*
X0110994Y0051369D01*
X0110994Y0048970D02*
X0117130Y0048970D01*
X0119528Y0046572D02*
X0110994Y0046572D01*
X0110994Y0044173D02*
X0121927Y0044173D01*
X0124325Y0041775D02*
X0110994Y0041775D01*
X0115408Y0039376D02*
X0090460Y0039376D01*
X0090642Y0036978D02*
X0113756Y0036978D01*
X0113939Y0034579D02*
X0093040Y0034579D01*
X0095439Y0032181D02*
X0113840Y0032181D01*
X0113855Y0029782D02*
X0097837Y0029782D01*
X0100236Y0027384D02*
X0115987Y0027384D01*
X0119856Y0024985D02*
X0102635Y0024985D01*
X0097113Y0022587D02*
X0076233Y0022587D01*
X0073835Y0024985D02*
X0094715Y0024985D01*
X0092316Y0027384D02*
X0071436Y0027384D01*
X0069037Y0029782D02*
X0089918Y0029782D01*
X0087519Y0032181D02*
X0066639Y0032181D01*
X0064240Y0034579D02*
X0085218Y0034579D01*
X0084860Y0036978D02*
X0061842Y0036978D01*
X0059443Y0039376D02*
X0084860Y0039376D01*
X0084860Y0041775D02*
X0057044Y0041775D01*
X0054593Y0044173D02*
X0084860Y0044173D01*
X0084860Y0046572D02*
X0030994Y0046572D01*
X0030994Y0048970D02*
X0084860Y0048970D01*
X0090460Y0048970D02*
X0094326Y0048970D01*
X0094326Y0046572D02*
X0090460Y0046572D01*
X0090460Y0044173D02*
X0094326Y0044173D01*
X0094326Y0041775D02*
X0090460Y0041775D01*
X0090460Y0051369D02*
X0094326Y0051369D01*
X0094326Y0053767D02*
X0090460Y0053767D01*
X0090460Y0056166D02*
X0094730Y0056166D01*
X0084860Y0056166D02*
X0030590Y0056166D01*
X0030994Y0053767D02*
X0084860Y0053767D01*
X0084860Y0051369D02*
X0030994Y0051369D01*
X0017244Y0058564D02*
X0084465Y0058564D01*
X0083679Y0060963D02*
X0057234Y0060963D01*
X0058110Y0063361D02*
X0084391Y0063361D01*
X0090929Y0063361D02*
X0115060Y0063361D01*
X0115060Y0065760D02*
X0098050Y0065760D01*
X0099141Y0068158D02*
X0115060Y0068158D01*
X0115060Y0070557D02*
X0098617Y0070557D01*
X0110211Y0072955D02*
X0114753Y0072955D01*
X0114384Y0075354D02*
X0110994Y0075354D01*
X0110994Y0077752D02*
X0116324Y0077752D01*
X0119395Y0077752D02*
X0121806Y0077752D01*
X0121336Y0075354D02*
X0124205Y0075354D01*
X0126603Y0072955D02*
X0120967Y0072955D01*
X0120660Y0070557D02*
X0126760Y0070557D01*
X0126760Y0068158D02*
X0120660Y0068158D01*
X0120660Y0065760D02*
X0126760Y0065760D01*
X0126760Y0063361D02*
X0120660Y0063361D01*
X0119266Y0080151D02*
X0110994Y0080151D01*
X0110994Y0082549D02*
X0116868Y0082549D01*
X0114469Y0084948D02*
X0110994Y0084948D01*
X0110994Y0087346D02*
X0112071Y0087346D01*
X0130219Y0087346D02*
X0130219Y0087346D01*
X0130219Y0084948D02*
X0130219Y0084948D01*
X0084660Y0082549D02*
X0080883Y0082549D01*
X0082014Y0080151D02*
X0084660Y0080151D01*
X0084660Y0077752D02*
X0082389Y0077752D01*
X0082771Y0075354D02*
X0080460Y0075354D01*
X0077359Y0075354D02*
X0057549Y0075354D01*
X0055150Y0077752D02*
X0075431Y0077752D01*
X0073299Y0080151D02*
X0047752Y0080151D01*
X0045353Y0082549D02*
X0071273Y0082549D01*
X0051462Y0072955D02*
X0030211Y0072955D01*
X0029705Y0072450D02*
X0030994Y0073738D01*
X0030994Y0087829D01*
X0029705Y0089117D01*
X0015615Y0089117D01*
X0014326Y0087829D01*
X0014326Y0073738D01*
X0015615Y0072450D01*
X0029705Y0072450D01*
X0030994Y0075354D02*
X0044063Y0075354D01*
X0041665Y0077752D02*
X0030994Y0077752D01*
X0030994Y0080151D02*
X0039266Y0080151D01*
X0037306Y0082549D02*
X0030994Y0082549D01*
X0030994Y0084948D02*
X0037160Y0084948D01*
X0037160Y0087346D02*
X0030994Y0087346D01*
X0037160Y0089745D02*
X0007660Y0089745D01*
X0007660Y0092143D02*
X0037160Y0092143D01*
X0037160Y0094542D02*
X0007660Y0094542D01*
X0007660Y0096940D02*
X0037160Y0096940D01*
X0037160Y0099339D02*
X0007660Y0099339D01*
X0007660Y0101737D02*
X0037160Y0101737D01*
X0037160Y0104136D02*
X0007660Y0104136D01*
X0007660Y0087346D02*
X0014326Y0087346D01*
X0014326Y0084948D02*
X0007660Y0084948D01*
X0007660Y0082549D02*
X0014326Y0082549D01*
X0014326Y0080151D02*
X0007660Y0080151D01*
X0007660Y0077752D02*
X0014326Y0077752D01*
X0014326Y0075354D02*
X0007660Y0075354D01*
X0007660Y0072955D02*
X0015109Y0072955D01*
X0015123Y0070557D02*
X0039660Y0070557D01*
X0039803Y0070661D02*
X0039109Y0070157D01*
X0038503Y0069550D01*
X0037999Y0068856D01*
X0037609Y0068092D01*
X0037344Y0067276D01*
X0037210Y0066429D01*
X0037210Y0066000D01*
X0042660Y0066000D01*
X0042660Y0066000D01*
X0042660Y0060550D01*
X0042231Y0060550D01*
X0041384Y0060684D01*
X0040568Y0060949D01*
X0039803Y0061339D01*
X0039109Y0061843D01*
X0038503Y0062450D01*
X0037999Y0063144D01*
X0037609Y0063908D01*
X0037344Y0064724D01*
X0037210Y0065571D01*
X0037210Y0066000D01*
X0042660Y0066000D01*
X0042660Y0071450D01*
X0042231Y0071450D01*
X0041384Y0071316D01*
X0040568Y0071051D01*
X0039803Y0070661D01*
X0042660Y0070557D02*
X0042660Y0070557D01*
X0042660Y0068158D02*
X0042660Y0068158D01*
X0042660Y0066000D02*
X0042660Y0066000D01*
X0042660Y0065760D02*
X0042660Y0065760D01*
X0042660Y0063361D02*
X0042660Y0063361D01*
X0037888Y0063361D02*
X0018659Y0063361D01*
X0018423Y0065760D02*
X0037210Y0065760D01*
X0037643Y0068158D02*
X0017430Y0068158D01*
X0018308Y0060963D02*
X0040541Y0060963D01*
X0042660Y0060963D02*
X0042660Y0060963D01*
X0044778Y0060963D02*
X0048086Y0060963D01*
X0047605Y0070557D02*
X0045660Y0070557D01*
X0014730Y0056166D02*
X0014663Y0056166D01*
X0014326Y0053767D02*
X0007660Y0053767D01*
X0007660Y0051369D02*
X0014326Y0051369D01*
X0014326Y0048970D02*
X0007660Y0048970D01*
X0007660Y0046572D02*
X0014326Y0046572D01*
X0014326Y0044173D02*
X0007660Y0044173D01*
X0007660Y0041775D02*
X0014326Y0041775D01*
X0007660Y0039376D02*
X0044771Y0039376D01*
X0046379Y0036978D02*
X0007660Y0036978D01*
X0007660Y0034579D02*
X0046093Y0034579D01*
X0044771Y0032181D02*
X0007660Y0032181D01*
X0007660Y0029782D02*
X0044771Y0029782D01*
X0046131Y0027384D02*
X0007660Y0027384D01*
X0007660Y0024985D02*
X0044849Y0024985D01*
X0044771Y0022587D02*
X0007660Y0022587D01*
X0007660Y0020188D02*
X0014326Y0020188D01*
X0014326Y0017790D02*
X0007660Y0017790D01*
X0007660Y0015391D02*
X0014326Y0015391D01*
X0014326Y0012993D02*
X0007660Y0012993D01*
X0007660Y0010594D02*
X0014326Y0010594D01*
X0014326Y0008196D02*
X0007660Y0008196D01*
X0030994Y0008196D02*
X0082705Y0008196D01*
X0080306Y0010594D02*
X0030994Y0010594D01*
X0030994Y0012993D02*
X0077907Y0012993D01*
X0075509Y0015391D02*
X0030994Y0015391D01*
X0030994Y0017790D02*
X0044771Y0017790D01*
X0044771Y0017620D02*
X0044921Y0017060D01*
X0045210Y0016559D01*
X0045620Y0016149D01*
X0046122Y0015859D01*
X0046681Y0015709D01*
X0050219Y0015709D01*
X0053757Y0015709D01*
X0054316Y0015859D01*
X0054818Y0016149D01*
X0055227Y0016559D01*
X0055517Y0017060D01*
X0055667Y0017620D01*
X0055667Y0021157D01*
X0050219Y0021157D01*
X0050219Y0015709D01*
X0050219Y0021157D01*
X0050219Y0021157D01*
X0050219Y0021158D01*
X0050219Y0021157D01*
X0044771Y0021157D01*
X0044771Y0017620D01*
X0050219Y0017790D02*
X0050219Y0017790D01*
X0050219Y0020188D02*
X0050219Y0020188D01*
X0044771Y0020188D02*
X0030994Y0020188D01*
X0054307Y0027384D02*
X0063516Y0027384D01*
X0065915Y0024985D02*
X0055589Y0024985D01*
X0055667Y0022587D02*
X0068313Y0022587D01*
X0070712Y0020188D02*
X0055667Y0020188D01*
X0055667Y0017790D02*
X0073110Y0017790D01*
X0078632Y0020188D02*
X0094326Y0020188D01*
X0094326Y0017790D02*
X0081030Y0017790D01*
X0083429Y0015391D02*
X0094326Y0015391D01*
X0094326Y0012993D02*
X0085827Y0012993D01*
X0088226Y0010594D02*
X0094326Y0010594D01*
X0094326Y0008196D02*
X0090624Y0008196D01*
X0115033Y0022587D02*
X0124771Y0022587D01*
X0124771Y0021157D02*
X0124771Y0017620D01*
X0124921Y0017060D01*
X0125210Y0016559D01*
X0125620Y0016149D01*
X0126122Y0015859D01*
X0126681Y0015709D01*
X0130219Y0015709D01*
X0133757Y0015709D01*
X0134316Y0015859D01*
X0134818Y0016149D01*
X0135227Y0016559D01*
X0135517Y0017060D01*
X0135667Y0017620D01*
X0135667Y0021157D01*
X0130219Y0021157D01*
X0130219Y0015709D01*
X0130219Y0021157D01*
X0130219Y0021157D01*
X0130219Y0021158D01*
X0130219Y0021157D01*
X0124771Y0021157D01*
X0124771Y0020188D02*
X0117432Y0020188D01*
X0119830Y0017790D02*
X0124771Y0017790D01*
X0130219Y0017790D02*
X0130219Y0017790D01*
X0130219Y0020188D02*
X0130219Y0020188D01*
X0135667Y0020188D02*
X0152888Y0020188D01*
X0150490Y0017790D02*
X0135667Y0017790D01*
X0135667Y0022587D02*
X0155287Y0022587D01*
X0148091Y0015391D02*
X0120460Y0015391D01*
X0120460Y0012993D02*
X0145693Y0012993D01*
X0143294Y0010594D02*
X0120460Y0010594D01*
X0135667Y0032181D02*
X0137460Y0032181D01*
X0137460Y0034579D02*
X0134344Y0034579D01*
X0134059Y0036978D02*
X0137642Y0036978D01*
X0139023Y0039376D02*
X0135667Y0039376D01*
X0124771Y0039376D02*
X0119912Y0039376D01*
X0061118Y0029782D02*
X0055667Y0029782D01*
X0055667Y0032181D02*
X0058719Y0032181D01*
X0056321Y0034579D02*
X0054344Y0034579D01*
X0044771Y0041775D02*
X0030994Y0041775D01*
X0030994Y0044173D02*
X0045845Y0044173D01*
X0088317Y0118527D02*
X0094326Y0118527D01*
X0094326Y0120926D02*
X0089141Y0120926D01*
X0088466Y0123324D02*
X0094388Y0123324D01*
X0132960Y0140114D02*
X0132971Y0140114D01*
X0140460Y0159302D02*
X0148683Y0159302D01*
X0150230Y0161700D02*
X0140460Y0161700D01*
X0126814Y0161700D02*
X0058260Y0161700D01*
X0058260Y0164099D02*
X0124771Y0164099D01*
X0124771Y0166497D02*
X0058260Y0166497D01*
X0058260Y0168896D02*
X0125410Y0168896D01*
X0127062Y0171294D02*
X0058203Y0171294D01*
X0057046Y0172974D02*
X0057046Y0172974D01*
X0056327Y0173693D02*
X0124771Y0173693D01*
X0124771Y0176091D02*
X0110414Y0176091D01*
X0110994Y0178490D02*
X0125162Y0178490D01*
X0127560Y0180888D02*
X0110994Y0180888D01*
X0094906Y0176091D02*
X0055667Y0176091D01*
X0055276Y0178490D02*
X0094326Y0178490D01*
X0094326Y0180888D02*
X0052878Y0180888D01*
X0047560Y0180888D02*
X0030994Y0180888D01*
X0030994Y0178490D02*
X0045162Y0178490D01*
X0044771Y0176091D02*
X0030414Y0176091D01*
X0030994Y0183287D02*
X0094326Y0183287D01*
X0094326Y0185685D02*
X0030994Y0185685D01*
X0030994Y0188084D02*
X0094326Y0188084D01*
X0094326Y0190482D02*
X0030994Y0190482D01*
X0014326Y0190482D02*
X0007660Y0190482D01*
X0007660Y0188084D02*
X0014326Y0188084D01*
X0014326Y0185685D02*
X0007660Y0185685D01*
X0007660Y0183287D02*
X0014326Y0183287D01*
X0014326Y0180888D02*
X0007660Y0180888D01*
X0007660Y0178490D02*
X0014326Y0178490D01*
X0014906Y0176091D02*
X0007660Y0176091D01*
X0007660Y0173693D02*
X0044771Y0173693D01*
X0047062Y0171294D02*
X0007660Y0171294D01*
X0007660Y0168896D02*
X0045410Y0168896D01*
X0044771Y0166497D02*
X0007660Y0166497D01*
X0007660Y0164099D02*
X0044771Y0164099D01*
X0046814Y0161700D02*
X0007660Y0161700D01*
X0007660Y0159302D02*
X0044771Y0159302D01*
X0058260Y0159302D02*
X0124771Y0159302D01*
X0179904Y0137715D02*
X0211760Y0137715D01*
X0211760Y0135317D02*
X0184141Y0135317D01*
X0184141Y0132918D02*
X0211760Y0132918D01*
X0211760Y0130520D02*
X0196840Y0130520D01*
X0198035Y0128121D02*
X0211760Y0128121D01*
X0211760Y0125723D02*
X0197332Y0125723D01*
X0189869Y0140114D02*
X0211760Y0140114D01*
X0209677Y0142512D02*
X0190994Y0142512D01*
X0190994Y0144911D02*
X0207802Y0144911D01*
X0207893Y0147309D02*
X0190994Y0147309D01*
X0210219Y0154505D02*
X0210219Y0154505D01*
X0380608Y0072955D02*
X0387660Y0072955D01*
X0387660Y0070557D02*
X0380076Y0070557D01*
X0380165Y0053767D02*
X0387660Y0053767D01*
X0387660Y0051369D02*
X0380608Y0051369D01*
X0378471Y0044173D02*
X0387660Y0044173D01*
X0387660Y0041775D02*
X0380230Y0041775D01*
X0380608Y0039376D02*
X0387660Y0039376D01*
X0361936Y0036978D02*
X0340883Y0036978D01*
X0340883Y0034579D02*
X0361936Y0034579D01*
X0361936Y0032181D02*
X0340883Y0032181D01*
X0345362Y0029782D02*
X0349328Y0029782D01*
X0349095Y0029549D02*
X0348591Y0028855D01*
X0348202Y0028091D01*
X0347937Y0027276D01*
X0347802Y0026429D01*
X0347802Y0026000D01*
X0347802Y0025571D01*
X0347937Y0024724D01*
X0348202Y0023909D01*
X0348591Y0023145D01*
X0349095Y0022451D01*
X0349701Y0021844D01*
X0350395Y0021340D01*
X0351159Y0020951D01*
X0351975Y0020686D01*
X0352822Y0020552D01*
X0353250Y0020552D01*
X0353250Y0026000D01*
X0347802Y0026000D01*
X0353250Y0026000D01*
X0353250Y0026000D01*
X0353250Y0031448D01*
X0352822Y0031448D01*
X0351975Y0031314D01*
X0351159Y0031049D01*
X0350395Y0030660D01*
X0349701Y0030156D01*
X0349095Y0029549D01*
X0353250Y0029782D02*
X0353250Y0029782D01*
X0353250Y0031448D02*
X0353250Y0026000D01*
X0353250Y0026000D01*
X0353250Y0026000D01*
X0353250Y0020552D01*
X0353679Y0020552D01*
X0354526Y0020686D01*
X0355342Y0020951D01*
X0356106Y0021340D01*
X0356800Y0021844D01*
X0357406Y0022451D01*
X0357910Y0023145D01*
X0358299Y0023909D01*
X0358564Y0024724D01*
X0358698Y0025571D01*
X0358698Y0026000D01*
X0358698Y0026429D01*
X0358564Y0027276D01*
X0358299Y0028091D01*
X0357910Y0028855D01*
X0357406Y0029549D01*
X0356800Y0030156D01*
X0356106Y0030660D01*
X0355342Y0031049D01*
X0354526Y0031314D01*
X0353679Y0031448D01*
X0353250Y0031448D01*
X0357173Y0029782D02*
X0361936Y0029782D01*
X0361936Y0027384D02*
X0358529Y0027384D01*
X0358698Y0026000D02*
X0353251Y0026000D01*
X0353251Y0026000D01*
X0358698Y0026000D01*
X0358606Y0024985D02*
X0361936Y0024985D01*
X0361936Y0022587D02*
X0357505Y0022587D01*
X0353250Y0022587D02*
X0353250Y0022587D01*
X0353250Y0024985D02*
X0353250Y0024985D01*
X0353250Y0027384D02*
X0353250Y0027384D01*
X0347972Y0027384D02*
X0346763Y0027384D01*
X0346887Y0024985D02*
X0347895Y0024985D01*
X0348996Y0022587D02*
X0345731Y0022587D01*
X0340883Y0020188D02*
X0361936Y0020188D01*
X0361936Y0017790D02*
X0340883Y0017790D01*
X0340883Y0015391D02*
X0361936Y0015391D01*
X0363009Y0012993D02*
X0339811Y0012993D01*
X0314436Y0022587D02*
X0312266Y0022587D01*
X0313423Y0024985D02*
X0314436Y0024985D01*
X0314436Y0027384D02*
X0313299Y0027384D01*
X0378585Y0010594D02*
X0387660Y0010594D01*
X0387660Y0008196D02*
X0380278Y0008196D01*
X0387311Y0012993D02*
X0387660Y0012993D01*
D20*
X0385160Y0008500D03*
X0312660Y0011000D03*
X0280160Y0023500D03*
X0275160Y0008500D03*
X0238160Y0035500D03*
X0238160Y0041500D03*
X0217160Y0051500D03*
X0192660Y0066000D03*
X0197660Y0071000D03*
X0192660Y0076000D03*
X0185660Y0071000D03*
X0169660Y0079000D03*
X0170160Y0086500D03*
X0162160Y0091000D03*
X0165160Y0096000D03*
X0157660Y0098000D03*
X0148660Y0100000D03*
X0140160Y0093500D03*
X0157660Y0081000D03*
X0152660Y0069000D03*
X0123660Y0062000D03*
X0107660Y0061000D03*
X0102660Y0061000D03*
X0087660Y0061000D03*
X0095160Y0068500D03*
X0128660Y0049000D03*
X0142660Y0051000D03*
X0149660Y0042000D03*
X0142660Y0041000D03*
X0157660Y0042000D03*
X0172660Y0043000D03*
X0169660Y0055000D03*
X0181660Y0059000D03*
X0207660Y0073000D03*
X0213660Y0076000D03*
X0208660Y0082000D03*
X0230160Y0078500D03*
X0247660Y0096000D03*
X0280160Y0076000D03*
X0289660Y0066000D03*
X0298160Y0061500D03*
X0298160Y0051500D03*
X0280160Y0049500D03*
X0280160Y0043500D03*
X0337660Y0051000D03*
X0352660Y0051500D03*
X0382660Y0063500D03*
X0337660Y0101000D03*
X0382660Y0128500D03*
X0340160Y0146000D03*
X0354660Y0181000D03*
X0355160Y0186000D03*
X0297660Y0186000D03*
X0272660Y0173500D03*
X0248660Y0188000D03*
X0237660Y0176000D03*
X0245160Y0166000D03*
X0211660Y0146000D03*
X0202660Y0158500D03*
X0196660Y0178000D03*
X0197660Y0186000D03*
X0206660Y0188000D03*
X0160160Y0176000D03*
X0147660Y0181000D03*
X0137660Y0176000D03*
X0152660Y0158500D03*
X0142660Y0153000D03*
X0165160Y0156000D03*
X0135160Y0138500D03*
X0125160Y0131000D03*
X0125160Y0126000D03*
X0134660Y0128000D03*
X0154160Y0131000D03*
X0168160Y0125000D03*
X0192660Y0123500D03*
X0192660Y0117000D03*
X0192660Y0111000D03*
X0197660Y0101000D03*
X0187660Y0101000D03*
X0178660Y0102000D03*
X0117660Y0106000D03*
X0117660Y0111000D03*
X0085160Y0121000D03*
X0060160Y0136000D03*
X0077660Y0141000D03*
X0117660Y0141000D03*
X0120160Y0151000D03*
X0047660Y0188500D03*
X0079660Y0189500D03*
X0035160Y0163500D03*
X0010160Y0178500D03*
X0030160Y0133500D03*
X0020160Y0098500D03*
X0036660Y0097000D03*
X0052660Y0081000D03*
X0117660Y0036000D03*
X0117660Y0031000D03*
X0147660Y0031000D03*
X0157660Y0031000D03*
X0167660Y0031000D03*
X0092660Y0011000D03*
X0052660Y0011000D03*
X0033160Y0029000D03*
X0012660Y0031000D03*
D21*
X0117660Y0031000D02*
X0122660Y0026000D01*
X0135160Y0026000D01*
X0140160Y0031000D01*
X0140160Y0036000D01*
X0142660Y0038500D01*
X0142660Y0041000D01*
X0162160Y0091000D02*
X0187660Y0091000D01*
X0197660Y0101000D01*
X0197660Y0106000D02*
X0145160Y0106000D01*
X0167660Y0133500D02*
X0175160Y0126000D01*
X0190160Y0126000D01*
X0192660Y0123500D01*
X0207660Y0116000D02*
X0197660Y0106000D01*
X0207660Y0116000D02*
X0210160Y0116000D01*
X0167660Y0133500D02*
X0157660Y0133500D01*
X0156410Y0134750D02*
X0154160Y0131000D01*
X0156410Y0134750D02*
X0152660Y0138500D01*
X0135160Y0138500D01*
X0127660Y0146000D02*
X0132660Y0151000D01*
X0132660Y0153717D01*
X0130219Y0156157D01*
X0060160Y0136000D02*
X0060160Y0108500D01*
X0050219Y0098559D01*
X0050219Y0098500D01*
D22*
X0040160Y0083500D02*
X0047660Y0076000D01*
X0052660Y0076000D01*
X0057660Y0071000D01*
X0082660Y0071000D01*
X0087660Y0076000D01*
X0087660Y0086000D01*
X0092660Y0091000D01*
X0112660Y0091000D01*
X0122660Y0081000D01*
X0167660Y0046000D02*
X0177660Y0056000D01*
X0187660Y0056000D01*
X0192660Y0061000D01*
X0195160Y0061000D01*
X0197660Y0063500D01*
X0167660Y0046000D02*
X0137660Y0046000D01*
X0054660Y0068000D02*
X0052660Y0066000D01*
X0040160Y0083500D02*
X0040160Y0133500D01*
X0127502Y0156157D02*
X0130219Y0156157D01*
D23*
X0137660Y0151000D02*
X0137660Y0168400D01*
X0130660Y0175400D01*
X0130219Y0175843D01*
X0152660Y0158500D02*
X0155160Y0156000D01*
X0165160Y0156000D01*
X0170660Y0151400D02*
X0196660Y0177400D01*
X0196660Y0178000D01*
X0206660Y0188000D02*
X0211660Y0193000D01*
X0347660Y0193000D01*
X0349660Y0191000D01*
X0307975Y0171000D02*
X0306660Y0172200D01*
X0295460Y0172200D01*
X0295460Y0114600D01*
X0290660Y0109800D01*
X0290219Y0108343D01*
X0289060Y0108200D01*
X0284260Y0103400D01*
X0284260Y0085800D01*
X0289060Y0081000D01*
X0289060Y0066600D01*
X0289660Y0066000D01*
X0232660Y0106000D02*
X0225160Y0096000D01*
X0212719Y0096000D01*
X0210219Y0098500D01*
X0204260Y0103400D02*
X0204260Y0084400D01*
X0206660Y0082000D01*
X0208660Y0082000D01*
X0207660Y0074000D02*
X0196660Y0085000D01*
X0196660Y0088000D01*
X0195660Y0089000D01*
X0174660Y0089000D01*
X0172160Y0086500D01*
X0170160Y0086500D01*
X0165160Y0096000D02*
X0180160Y0096000D01*
X0204260Y0103400D02*
X0209060Y0108200D01*
X0210219Y0108343D01*
X0210660Y0109800D01*
X0232660Y0106000D02*
X0232660Y0116000D01*
X0242660Y0129125D02*
X0242660Y0152875D01*
X0253910Y0164125D01*
X0232660Y0161625D02*
X0232660Y0161000D01*
X0180160Y0133500D02*
X0172660Y0141000D01*
X0172660Y0149400D01*
X0170660Y0151400D01*
X0148260Y0151400D01*
X0137660Y0151000D02*
X0130160Y0143500D01*
X0130160Y0123500D01*
X0135460Y0118200D01*
X0135460Y0114600D01*
X0130660Y0109800D01*
X0130219Y0108343D01*
X0113910Y0099750D02*
X0123910Y0089750D01*
X0112660Y0096000D02*
X0092660Y0096000D01*
X0082660Y0086000D01*
X0077660Y0086000D01*
X0073910Y0088500D02*
X0073910Y0083500D01*
X0078910Y0078500D01*
X0073910Y0088500D02*
X0085160Y0099750D01*
X0113910Y0099750D01*
X0112660Y0096000D02*
X0132660Y0076000D01*
X0132660Y0056000D01*
X0137660Y0051000D01*
X0142660Y0051000D01*
X0130219Y0040843D02*
X0129060Y0041000D01*
X0117860Y0052200D01*
X0117860Y0074600D01*
X0095160Y0068500D02*
X0094660Y0068000D01*
X0054660Y0068000D01*
X0087660Y0061000D02*
X0087660Y0036000D01*
X0102660Y0021000D01*
X0112660Y0021000D01*
X0117660Y0016000D01*
X0117660Y0006000D01*
X0142660Y0006000D01*
X0157660Y0021000D01*
X0197660Y0021000D01*
X0205160Y0028500D01*
X0210219Y0028500D01*
X0182660Y0057000D02*
X0181660Y0057000D01*
X0181660Y0059000D01*
X0181660Y0058000D02*
X0182660Y0057000D01*
X0181660Y0058000D02*
X0179660Y0056000D01*
X0177660Y0056000D01*
X0149535Y0073500D02*
X0139535Y0083500D01*
X0207660Y0074000D02*
X0207660Y0073000D01*
X0130219Y0031000D02*
X0125219Y0036000D01*
X0117660Y0036000D01*
X0092260Y0002600D02*
X0055460Y0039400D01*
X0050660Y0039400D01*
X0050219Y0040843D01*
X0092260Y0002600D02*
X0281060Y0002600D01*
X0303460Y0025000D01*
X0306660Y0025000D01*
X0307975Y0026000D01*
X0116410Y0122250D02*
X0111410Y0122250D01*
X0097035Y0136625D01*
X0082035Y0136625D01*
X0077660Y0141000D02*
X0077660Y0131000D01*
X0085160Y0123500D01*
X0085160Y0121000D01*
X0055460Y0114600D02*
X0050660Y0109800D01*
X0050219Y0108343D01*
X0055460Y0114600D02*
X0055460Y0170600D01*
X0050660Y0175400D01*
X0050219Y0175843D01*
X0127660Y0146000D02*
X0127660Y0133500D01*
X0125160Y0131000D01*
X0135160Y0142875D02*
X0164535Y0142875D01*
X0178285Y0129125D01*
X0193285Y0129125D01*
X0194535Y0127875D01*
X0157660Y0133500D02*
X0156410Y0134750D01*
X0290219Y0175843D02*
X0290660Y0175400D01*
X0293860Y0172200D01*
X0295460Y0172200D01*
D24*
X0253910Y0164125D03*
X0242660Y0129125D03*
X0194535Y0127875D03*
X0148260Y0151400D03*
X0135160Y0142875D03*
X0116410Y0122250D03*
X0082035Y0136625D03*
X0123910Y0089750D03*
X0139535Y0083500D03*
X0149535Y0073500D03*
X0117860Y0074600D03*
X0078910Y0078500D03*
D25*
X0122660Y0081000D02*
X0129660Y0074000D01*
X0129660Y0054000D01*
X0137660Y0046000D01*
X0210219Y0108343D02*
X0214660Y0112783D01*
X0214660Y0145000D01*
X0212660Y0147000D01*
X0211660Y0146000D01*
X0349660Y0186000D02*
X0354660Y0181000D01*
X0349660Y0186000D02*
X0349660Y0191000D01*
D26*
X0232660Y0116000D03*
X0210160Y0116000D03*
X0180160Y0133500D03*
X0145160Y0106000D03*
X0180160Y0096000D03*
X0077660Y0086000D03*
M02*
